<?xml version="1.0" encoding="UTF-8"?>
<svg xmlns="http://www.w3.org/2000/svg" xmlns:xlink="http://www.w3.org/1999/xlink" width="42px" height="21px" viewBox="0 0 43 21" version="1.1">
<g id="surface1">
<path style=" stroke:none;fill-rule:nonzero;fill:rgb(100%,100%,100%);fill-opacity:1;" d="M 35.460938 11.382812 C 35.335938 12.0625 35.402344 12.265625 35.511719 12.667969 C 35.679688 13.28125 35.378906 13.929688 34.878906 14.226562 C 34.449219 14.480469 34.117188 14.46875 33.496094 14.160156 C 33.496094 14.777344 33.484375 15.371094 33.609375 15.957031 C 33.65625 16.164062 33.804688 16.296875 33.945312 16.441406 C 34.242188 16.738281 34.351562 17.085938 34.195312 17.492188 C 34.03125 17.917969 33.707031 18.097656 33.265625 18.121094 C 32.851562 18.140625 32.480469 18.007812 32.089844 17.820312 C 31.308594 18.167969 30.519531 18.382812 29.855469 17.523438 C 29.257812 17.9375 28.601562 18.125 27.898438 18.136719 C 27.222656 18.144531 26.554688 18.050781 25.851562 17.910156 C 25.457031 18.261719 25.011719 18.21875 24.496094 18.121094 C 23.890625 18.007812 22.308594 17.886719 21.664062 18.027344 C 21.527344 18.058594 21.417969 18.148438 21.359375 18.269531 C 20.609375 19.84375 19.230469 20.496094 17.652344 20.855469 C 16.835938 21.042969 16.007812 21.046875 15.179688 20.875 C 14.273438 20.6875 13.457031 20.332031 12.777344 19.6875 C 12.578125 19.496094 12.375 19.3125 12.152344 19.109375 C 11.503906 19.234375 10.847656 19.289062 10.191406 19.167969 C 8.730469 18.894531 7.636719 18.089844 6.882812 16.816406 C 6.765625 16.613281 6.640625 16.445312 6.417969 16.332031 C 6.070312 16.160156 5.90625 15.839844 5.945312 15.457031 C 6.054688 14.375 6.179688 12.644531 7.183594 11.496094 C 6.574219 11.496094 6.035156 11.582031 5.496094 11.648438 C 4.050781 11.832031 2.601562 11.996094 1.164062 12.257812 C 0.0390625 12.460938 -0.589844 10.777344 0.777344 10.324219 C 2.332031 9.808594 3.90625 9.445312 5.507812 9.152344 C 6.050781 9.054688 6.640625 8.988281 7.171875 8.902344 C 7.1875 8.800781 7.082031 8.671875 7.042969 8.582031 C 6.851562 8.132812 6.941406 7.683594 7.332031 7.386719 C 7.480469 7.269531 7.605469 7.148438 7.6875 6.960938 C 7.726562 6.867188 7.71875 6.761719 7.664062 6.679688 C 7.390625 6.253906 7.527344 5.800781 7.757812 5.367188 C 7.792969 5.304688 7.753906 5.226562 7.683594 5.214844 C 7.613281 5.203125 7.558594 5.222656 7.503906 5.226562 C 6.675781 5.273438 5.976562 5.023438 5.535156 4.285156 C 5.085938 3.527344 5.140625 2.753906 5.582031 2.007812 C 5.925781 1.417969 6.433594 0.976562 7.058594 0.734375 C 8.707031 0.0898438 10.367188 -0.183594 12.058594 0.128906 C 13.382812 0.371094 14.289062 1.167969 14.597656 2.566406 C 16.027344 1.351562 17.601562 1.074219 19.359375 1.78125 C 19.925781 1.476562 20.515625 1.472656 21.078125 1.792969 C 21.730469 1.613281 22.359375 1.386719 22.964844 1.863281 C 23.484375 1.40625 24.03125 1.304688 24.636719 1.710938 C 25.089844 1.582031 25.554688 1.503906 25.996094 1.683594 C 26.128906 1.636719 26.132812 1.535156 26.179688 1.457031 C 26.496094 0.914062 27.054688 0.761719 27.597656 1.085938 C 28.074219 1.371094 28.390625 1.796875 28.625 2.296875 C 28.734375 2.535156 28.785156 2.832031 28.964844 3.023438 C 29.082031 3.144531 29.269531 3.140625 29.375 3.007812 C 29.445312 2.910156 29.484375 2.777344 29.484375 2.632812 C 29.46875 1.761719 30.011719 1.453125 30.78125 1.519531 C 31.140625 1.550781 31.46875 1.675781 31.777344 1.84375 C 32.066406 1.738281 32.335938 1.640625 32.609375 1.542969 C 32.859375 1.457031 33.128906 1.441406 33.382812 1.496094 C 33.78125 1.582031 34.035156 1.835938 34.117188 2.234375 C 34.203125 2.636719 34.0625 2.960938 33.746094 3.210938 C 33.589844 3.332031 33.378906 3.378906 33.238281 3.636719 C 33.21875 4.007812 33.183594 4.453125 33.171875 4.898438 C 33.160156 5.28125 33.167969 5.722656 33.167969 6.097656 C 33.167969 6.261719 33.324219 6.335938 33.375 6.027344 C 33.445312 5.59375 33.871094 5.402344 34.320312 5.429688 C 34.816406 5.457031 35.367188 5.886719 35.390625 6.382812 C 35.433594 7.246094 35.429688 8.25 34.976562 8.78125 C 35.722656 8.902344 36.460938 9.015625 37.195312 9.144531 C 38.902344 9.453125 40.59375 9.84375 42.25 10.363281 C 42.878906 10.558594 43.136719 11.066406 42.929688 11.65625 C 42.761719 12.136719 42.378906 12.339844 41.78125 12.253906 C 40.914062 12.125 40.050781 11.976562 39.183594 11.859375 C 38.121094 11.710938 35.628906 11.308594 35.460938 11.378906 Z M 14.796875 14.871094 C 14.871094 13.121094 13.761719 10.824219 11.277344 10.617188 C 9.335938 10.53125 7.832031 11.753906 7.351562 13.398438 C 7.191406 13.996094 7.078125 15.375 6.941406 15.464844 C 7.171875 15.496094 7.167969 15.429688 7.34375 15.3125 C 8.234375 17.710938 10.164062 18.757812 12.527344 17.984375 C 12.550781 18 13.152344 18.589844 13.421875 18.859375 C 13.71875 19.160156 14.050781 19.410156 14.4375 19.570312 C 16.425781 20.390625 18.246094 20.042969 19.917969 18.746094 C 20.167969 18.550781 21.074219 17.5625 20.246094 17.078125 C 20.222656 17.0625 20.203125 17.09375 20.214844 17.113281 C 20.53125 17.566406 20.332031 17.789062 20.0625 18.015625 C 19.199219 18.75 18.007812 19.234375 16.707031 19.21875 C 16.71875 19.160156 16.761719 19.074219 16.695312 18.933594 C 15.773438 19.441406 14.160156 18.582031 13.34375 17.414062 C 14.136719 16.757812 14.628906 15.4375 15.089844 14.867188 C 15.003906 14.832031 14.917969 14.820312 14.800781 14.871094 Z M 20.9375 8.253906 C 21.0625 8.921875 20.855469 8.917969 20.308594 8.921875 C 17.003906 8.941406 13.703125 9.097656 10.414062 9.417969 C 7.875 9.667969 5.351562 10.019531 2.871094 10.628906 C 2.328125 10.761719 0.949219 11.195312 1.0625 11.234375 C 1.160156 11.265625 6.273438 10.539062 8.660156 10.320312 C 12.320312 9.992188 15.984375 9.800781 19.65625 9.726562 C 20.84375 9.660156 20.796875 10.355469 21.410156 10.402344 C 21.265625 9.558594 22.097656 9.71875 22.417969 9.71875 C 28.648438 9.78125 34.851562 10.125 41.015625 11.089844 C 41.210938 11.121094 43.25 11.546875 41.199219 10.957031 C 38.742188 10.261719 36.234375 9.816406 33.699219 9.519531 C 30.277344 9.121094 26.84375 8.945312 23.398438 8.929688 C 20.890625 9 21.769531 8.429688 20.9375 8.253906 Z M 10.839844 8.035156 C 10.855469 8.03125 10.863281 8.011719 10.847656 8 C 9.875 7.355469 9.875 6.601562 9.984375 5.714844 C 10.035156 5.289062 10.113281 5.175781 10.503906 5.175781 C 10.601562 5.175781 10.691406 5.222656 10.753906 5.296875 C 11.269531 5.945312 11.804688 6.585938 12.417969 7.160156 C 13.324219 8.011719 14.679688 8.472656 16.117188 8.285156 C 16.15625 8.28125 16.15625 8.226562 16.117188 8.21875 C 15.15625 8.046875 14.820312 7.972656 13.757812 7.125 C 13.910156 7.125 13.984375 7.113281 14.097656 7.015625 C 13.363281 6.84375 12.21875 5.519531 12.152344 4.820312 C 12.382812 4.679688 12.707031 4.519531 12.933594 4.363281 C 13.425781 4.011719 13.699219 3.535156 13.714844 2.921875 C 13.738281 2.007812 13.140625 1.3125 12.09375 1.007812 C 11.066406 0.714844 10.050781 0.894531 9.035156 1.054688 C 8.425781 1.152344 7.839844 1.328125 7.304688 1.648438 C 6.910156 1.878906 6.585938 2.179688 6.394531 2.597656 C 6.152344 3.125 6.285156 3.714844 6.707031 4.011719 C 7.078125 4.273438 7.953125 4.242188 8.300781 3.890625 C 8.515625 3.675781 8.554688 3.292969 8.109375 3.097656 C 8.46875 3.535156 8.25 3.742188 7.925781 3.804688 C 7.476562 3.890625 7.152344 3.648438 7.085938 3.175781 C 6.96875 2.339844 7.964844 1.433594 8.8125 1.605469 C 8.820312 1.605469 8.914062 1.632812 8.90625 1.808594 C 8.871094 3.230469 9.128906 5.636719 8.558594 6.011719 C 8.808594 6.066406 8.839844 5.953125 8.902344 5.917969 C 8.832031 7.109375 8.722656 7.503906 8.085938 8.046875 C 8.066406 8.0625 8.082031 8.097656 8.105469 8.097656 C 8.375 8.089844 8.554688 8.019531 8.71875 7.921875 C 9.214844 7.628906 9.699219 7.617188 10.199219 7.910156 C 10.371094 8.011719 10.527344 8.0625 10.839844 8.035156 Z M 14.585938 5.828125 C 15.097656 7.316406 16.335938 8.082031 17.625 8.082031 C 20.019531 8.082031 20.636719 5.765625 20.972656 5.160156 C 20.882812 5.128906 20.746094 5.144531 20.628906 5.21875 C 20.597656 3.992188 19.742188 2.628906 18.253906 2.347656 C 16.949219 2.097656 15.824219 2.511719 15.019531 3.617188 C 14.375 4.5 14.429688 5.644531 14.273438 6.042969 C 14.351562 6.03125 14.503906 6.007812 14.585938 5.828125 Z M 15.871094 15.914062 C 16.035156 16.441406 16.371094 16.875 16.929688 17.117188 C 17.398438 17.320312 17.882812 17.34375 18.375 17.289062 C 19.308594 17.191406 19.9375 16.648438 20.148438 15.738281 C 20.210938 15.464844 20.203125 15.109375 20.457031 14.878906 C 20.375 14.847656 20.316406 14.855469 20.226562 14.898438 C 20.234375 14.453125 20.226562 13.6875 20.230469 13.242188 C 20.234375 12.964844 20.230469 12.667969 20.234375 12.402344 C 20.242188 12.15625 20.558594 11.996094 20.828125 11.832031 C 20.453125 11.722656 20.21875 12.007812 19.875 12.003906 C 19.511719 11.992188 19.257812 11.621094 18.863281 11.871094 C 19.371094 12.050781 19.488281 12.214844 19.5 12.753906 C 19.507812 13.121094 19.511719 13.492188 19.507812 13.859375 C 19.496094 14.519531 19.5625 15.183594 19.421875 15.839844 C 19.316406 16.335938 18.949219 16.800781 18.089844 16.800781 C 17.175781 16.800781 16.953125 16.542969 16.832031 15.597656 C 16.734375 14.863281 16.785156 14.03125 16.789062 13.292969 C 16.789062 12.730469 16.648438 12.160156 17.515625 11.839844 C 17.109375 11.757812 16.824219 11.925781 16.554688 12.03125 C 16.40625 12.089844 16.242188 12.09375 16.09375 12.046875 C 15.148438 11.761719 15.011719 11.792969 14.734375 12.046875 C 15.445312 12.023438 15.746094 12.257812 15.757812 12.722656 C 15.773438 13.597656 15.753906 14.472656 15.734375 15.347656 C 15.730469 15.511719 15.660156 15.816406 15.527344 15.929688 C 15.65625 15.976562 15.777344 15.789062 15.871094 15.914062 Z M 25.53125 7.855469 C 25.804688 7.867188 25.996094 8.148438 26.335938 8.109375 C 26.363281 8.105469 26.371094 8.070312 26.347656 8.054688 C 26.011719 7.847656 25.949219 7.628906 25.992188 7.324219 C 26.070312 6.707031 27.136719 5.96875 27.746094 6.109375 C 27.953125 6.15625 28.117188 6.269531 28.167969 6.488281 C 28.210938 6.675781 28.117188 6.8125 27.910156 6.898438 C 27.808594 6.957031 27.683594 6.914062 27.472656 6.804688 C 27.53125 6.957031 27.742188 7.074219 27.875 7.101562 C 28.128906 7.152344 28.332031 7 28.523438 6.878906 C 28.800781 7.261719 28.855469 7.769531 28.4375 7.992188 C 28.414062 8.003906 28.417969 8.039062 28.445312 8.042969 C 28.855469 8.121094 29.277344 7.789062 29.613281 7.820312 C 29.914062 7.851562 30.164062 8.140625 30.566406 7.992188 C 30.59375 7.980469 30.597656 7.941406 30.566406 7.929688 C 29.75 7.582031 29.554688 6.828125 29.269531 6.140625 C 28.789062 4.976562 28.324219 3.792969 27.832031 2.636719 C 27.652344 2.210938 27.488281 1.96875 27.171875 1.808594 C 27.140625 1.792969 27.105469 1.824219 27.117188 1.855469 C 27.304688 2.375 27.183594 2.917969 26.992188 3.367188 C 26.484375 4.550781 25.992188 5.742188 25.484375 6.929688 C 25.289062 7.382812 25.082031 7.828125 24.457031 7.917969 C 24.429688 7.921875 24.421875 7.960938 24.449219 7.972656 C 24.878906 8.148438 25.175781 7.84375 25.53125 7.855469 Z M 25.140625 11.734375 C 25.15625 11.71875 25.140625 11.695312 25.117188 11.699219 C 24.988281 11.734375 24.917969 11.816406 24.722656 11.828125 C 23.296875 11.910156 21.683594 12.25 21.148438 11.726562 C 21.125 11.703125 21.085938 11.726562 21.097656 11.757812 C 21.273438 12.25 21.710938 12.191406 21.777344 12.636719 C 21.902344 13.765625 21.898438 14.269531 21.886719 14.707031 C 21.882812 14.773438 21.875 14.839844 21.859375 14.902344 C 21.828125 15.046875 21.785156 15.203125 21.613281 15.328125 C 21.6875 15.355469 21.800781 15.347656 21.894531 15.253906 C 21.945312 16.363281 21.75 16.769531 21.117188 17.070312 C 21.082031 17.085938 21.117188 17.152344 21.148438 17.132812 C 21.566406 16.835938 24.792969 16.992188 25.097656 17.21875 C 25.128906 17.242188 25.171875 17.203125 25.164062 17.164062 C 25.101562 16.878906 25.09375 16.59375 25.144531 16.46875 C 25.242188 16.230469 25.457031 15.800781 25.199219 15.507812 C 25.171875 15.476562 25.117188 15.5 25.117188 15.542969 C 25.144531 16.035156 24.820312 16.554688 24.347656 16.617188 C 23.949219 16.671875 23.382812 16.613281 23.078125 16.507812 C 23.015625 16.488281 22.792969 16.386719 22.792969 15.988281 C 22.792969 15.589844 22.78125 15.117188 22.820312 14.691406 C 22.828125 14.605469 22.898438 14.539062 22.984375 14.53125 C 23.21875 14.515625 23.914062 14.507812 24.105469 14.507812 C 24.425781 14.507812 24.617188 14.828125 24.523438 15.089844 C 24.515625 15.117188 24.539062 15.140625 24.5625 15.128906 C 25.015625 14.890625 24.59375 14.410156 24.800781 13.953125 C 24.839844 13.851562 24.851562 13.464844 24.574219 13.472656 C 24.546875 13.472656 24.53125 13.503906 24.542969 13.527344 C 24.652344 13.734375 24.597656 14.035156 24.285156 14.046875 C 23.898438 14.0625 23.410156 14.046875 23.03125 14.042969 C 22.851562 14.039062 22.761719 13.980469 22.761719 13.8125 C 22.761719 13.675781 22.769531 12.914062 22.777344 12.511719 C 22.78125 12.386719 22.882812 12.28125 23.011719 12.273438 C 24.605469 12.207031 24.847656 12.371094 24.980469 13.308594 C 24.988281 13.339844 25.03125 13.355469 25.042969 13.328125 C 25.320312 12.730469 24.757812 12.1875 25.140625 11.734375 Z M 29.070312 12.027344 C 29.085938 11.988281 29.066406 11.929688 29.023438 11.925781 C 28.28125 11.828125 27.757812 11.5 27.078125 11.683594 C 26.515625 11.835938 26.09375 12.132812 25.984375 12.734375 C 25.871094 13.351562 26.15625 13.800781 26.664062 14.132812 C 27.101562 14.417969 27.558594 14.667969 28.035156 14.878906 C 28.40625 15.042969 28.738281 15.257812 28.851562 15.695312 C 28.941406 16.054688 28.878906 16.335938 28.542969 16.476562 C 28.277344 16.585938 27.867188 16.554688 27.589844 16.453125 C 27.570312 16.566406 27.613281 16.667969 27.722656 16.714844 C 26.777344 16.800781 26.324219 16.371094 26.179688 15.648438 C 26.136719 15.449219 26.113281 15.167969 25.769531 15.101562 C 25.742188 15.097656 25.722656 15.128906 25.738281 15.152344 C 26.023438 15.546875 25.886719 16.1875 25.878906 16.707031 C 25.878906 16.792969 25.9375 16.871094 26.023438 16.890625 C 26.71875 17.0625 27.003906 17.101562 27.675781 17.09375 C 28.011719 17.09375 28.699219 17.0625 29.007812 16.910156 C 29.589844 16.625 29.800781 16.183594 29.820312 15.492188 C 29.820312 14.675781 29.195312 14.425781 28.585938 14.171875 C 28.636719 14.128906 28.683594 14.105469 28.710938 13.953125 C 27.8125 14.078125 26.566406 13.460938 26.730469 12.625 C 26.792969 12.289062 27.171875 12.003906 27.675781 11.996094 C 28.113281 11.984375 28.925781 12.453125 28.683594 13.164062 C 28.675781 13.183594 28.695312 13.199219 28.714844 13.195312 C 29.175781 13.019531 28.925781 12.359375 29.070312 12.027344 Z M 31.484375 12.269531 C 31.578125 12.277344 31.695312 12.359375 31.695312 12.476562 C 31.695312 13.101562 31.742188 15.09375 31.746094 15.707031 C 31.746094 16.371094 31.53125 16.796875 30.871094 17.011719 C 30.847656 17.019531 30.851562 17.050781 30.871094 17.058594 C 31.425781 17.183594 31.601562 16.734375 32.1875 16.726562 C 32.683594 16.722656 32.867188 17.125 33.308594 17.09375 C 33.335938 17.089844 33.34375 17.054688 33.320312 17.042969 C 32.742188 16.691406 32.59375 16.398438 32.59375 15.695312 C 32.59375 14.941406 32.578125 13.058594 32.574219 12.488281 C 32.574219 12.378906 32.667969 12.296875 32.777344 12.289062 C 33.339844 12.246094 33.589844 12.3125 33.914062 12.480469 C 34.332031 12.691406 34.4375 12.96875 34.371094 13.300781 C 34.363281 13.335938 34.40625 13.363281 34.433594 13.339844 C 34.894531 12.988281 34.382812 12.195312 34.539062 11.675781 C 34.554688 11.628906 34.511719 11.585938 34.464844 11.597656 C 33.472656 11.917969 30.734375 11.9375 29.90625 11.515625 C 29.863281 11.492188 29.816406 11.535156 29.835938 11.582031 C 30.039062 12.144531 29.660156 12.71875 29.953125 13.265625 C 29.976562 13.308594 30.039062 13.289062 30.039062 13.242188 C 30.035156 12.480469 30.503906 12.191406 31.484375 12.269531 Z M 24.136719 8.109375 C 24.152344 8.113281 24.160156 8.09375 24.148438 8.082031 C 23.304688 7.257812 23.414062 6.925781 23.460938 5.976562 C 23.46875 5.84375 23.449219 5.699219 23.476562 5.476562 C 23.484375 5.414062 23.503906 5.355469 23.53125 5.300781 C 23.910156 4.574219 24.75 2.890625 25.605469 2.523438 C 25.621094 2.515625 25.617188 2.496094 25.601562 2.492188 C 25.441406 2.464844 25.28125 2.46875 25.074219 2.550781 C 24.914062 2.613281 24.78125 2.695312 24.65625 2.695312 C 24.464844 2.679688 24.011719 2.179688 23.671875 2.539062 C 23.660156 2.550781 23.667969 2.566406 23.683594 2.566406 C 24.257812 2.566406 24.300781 3.019531 24.257812 3.097656 C 24.054688 3.460938 23.40625 4.875 23.101562 4.875 C 22.875 4.875 22.222656 3.667969 21.9375 3.105469 C 21.90625 3.035156 21.910156 2.960938 21.914062 2.886719 C 21.925781 2.699219 22.105469 2.613281 22.25 2.503906 C 22.261719 2.496094 22.257812 2.476562 22.242188 2.472656 C 22.074219 2.445312 21.882812 2.492188 21.765625 2.542969 C 21.363281 2.71875 20.980469 2.757812 20.582031 2.511719 C 20.441406 2.429688 20.171875 2.375 19.96875 2.511719 C 20.558594 2.667969 20.878906 3.117188 21.148438 3.535156 C 21.484375 4.046875 21.820312 4.5625 22.160156 5.074219 C 22.359375 5.378906 22.449219 5.707031 22.457031 6.074219 C 22.46875 6.828125 22.472656 7.574219 21.710938 8.046875 C 21.695312 8.054688 21.703125 8.078125 21.71875 8.078125 C 22.203125 8.09375 22.542969 7.707031 22.933594 7.710938 C 23.371094 7.714844 23.703125 8.074219 24.132812 8.109375 Z M 31.378906 6.105469 C 31.347656 6.695312 31.285156 7.566406 30.742188 7.832031 C 30.714844 7.847656 30.714844 7.886719 30.742188 7.898438 C 30.886719 7.960938 31 7.9375 31.113281 7.894531 C 31.636719 7.691406 32.167969 7.738281 32.703125 7.8125 C 33.039062 7.855469 33.375 7.914062 33.710938 7.929688 C 33.929688 7.941406 34.144531 7.945312 34.367188 7.910156 C 34.4375 7.898438 34.5 7.828125 34.507812 7.757812 C 34.558594 7.289062 34.585938 6.511719 34.410156 6.308594 C 34.382812 6.277344 34.332031 6.296875 34.335938 6.335938 C 34.359375 6.691406 34.167969 7.285156 33.855469 7.390625 C 33.636719 7.460938 32.898438 7.476562 32.585938 7.320312 C 32.414062 7.234375 32.355469 7.0625 32.320312 6.917969 C 32.289062 6.773438 32.328125 5.03125 32.332031 4.324219 C 32.335938 3.597656 32.203125 2.917969 33.066406 2.453125 C 33.089844 2.441406 33.082031 2.40625 33.058594 2.40625 C 32.828125 2.394531 32.65625 2.476562 32.492188 2.566406 C 32.085938 2.796875 31.699219 2.835938 31.285156 2.5625 C 31.097656 2.4375 30.867188 2.355469 30.542969 2.445312 C 30.515625 2.449219 30.515625 2.488281 30.539062 2.496094 C 30.9375 2.683594 31.238281 2.894531 31.296875 3.257812 C 31.441406 4.183594 31.4375 6.046875 31.035156 6.191406 C 31.113281 6.222656 31.273438 6.203125 31.378906 6.105469 Z M 31.378906 6.105469 "/>
<path style=" stroke:none;fill-rule:nonzero;fill:rgb(100%,100%,100%);fill-opacity:1;" d="M 12.730469 16.804688 C 12.316406 16.496094 11.914062 16.128906 11.453125 15.953125 C 10.519531 15.597656 9.632812 15.917969 9.382812 16.882812 C 8.5 16.074219 8.441406 14.746094 8.6875 13.59375 C 8.84375 12.847656 9.210938 12.1875 9.796875 11.671875 C 10.582031 10.980469 11.507812 10.984375 12.273438 11.714844 C 13.273438 12.667969 13.597656 13.851562 13.390625 15.199219 C 13.277344 15.953125 13.152344 16.324219 12.730469 16.804688 Z M 12.730469 16.804688 "/>
<path style=" stroke:none;fill-rule:nonzero;fill:rgb(100%,100%,100%);fill-opacity:1;" d="M 9.683594 17.109375 C 9.957031 16.277344 10.542969 16.085938 11.25 16.578125 C 11.566406 16.796875 11.882812 17.074219 12.078125 17.414062 C 11.230469 17.871094 10.359375 17.761719 9.683594 17.109375 Z M 9.988281 4.585938 L 9.988281 1.550781 C 10.835938 1.28125 12.039062 1.742188 12.445312 2.488281 C 12.699219 2.957031 12.675781 3.433594 12.386719 3.882812 C 11.914062 4.605469 10.859375 4.921875 9.988281 4.585938 Z M 15.617188 5.140625 C 15.617188 3.996094 16.292969 3.054688 17.285156 2.828125 C 17.8125 2.707031 18.292969 2.820312 18.707031 3.167969 C 19.769531 4.054688 19.898438 5.921875 18.96875 6.957031 C 18.199219 7.8125 16.9375 7.769531 16.199219 6.851562 C 15.796875 6.355469 15.617188 5.777344 15.617188 5.140625 Z M 16.546875 5.175781 C 17.28125 5.402344 17.15625 5.816406 17.742188 6.308594 C 17.675781 5.550781 18.195312 5.492188 18.6875 5.175781 C 17.9375 4.925781 18.027344 4.347656 17.476562 4.050781 C 17.480469 4.871094 16.992188 4.699219 16.546875 5.175781 Z M 27.394531 4.042969 C 27.644531 4.636719 27.863281 5.160156 28.117188 5.765625 C 27.574219 5.546875 27.125 5.648438 26.613281 5.855469 C 26.886719 5.226562 27.128906 4.664062 27.398438 4.046875 L 27.394531 4.046875 Z M 27.394531 4.042969 "/>
</g>
</svg>
