<?xml version="1.0" standalone="no"?>
<!DOCTYPE svg PUBLIC "-//W3C//DTD SVG 1.1//EN" "http://www.w3.org/Graphics/SVG/1.1/DTD/svg11.dtd" >
<svg xmlns="http://www.w3.org/2000/svg" xmlns:xlink="http://www.w3.org/1999/xlink" version="1.1">
<metadata>
Created by FontForge 20201107 at Sat Mar 24 03:34:29 1928
 By 
(c)1991,1993 Tilde Ltd. AG Fonts collection.
</metadata>
<defs>
<font id="AGPresquire-Roman" horiz-adv-x="600" >
  <font-face 
    font-family="AGPresquire"
    font-weight="400"
    font-stretch="normal"
    units-per-em="1000"
    panose-1="0 0 0 0 0 0 0 0 0 0"
    ascent="800"
    descent="-200"
    x-height="473"
    cap-height="732"
    bbox="-37 -206 1173 951"
    underline-thickness="20"
    underline-position="-143"
    unicode-range="U+0020-2122"
  />
<missing-glyph horiz-adv-x="800" 
d="M50 0v800h700v-800h-700zM700 50v700h-600v-700h600z" />
    <glyph glyph-name=".notdef" horiz-adv-x="800" 
d="M50 0v800h700v-800h-700zM700 50v700h-600v-700h600z" />
    <glyph glyph-name=".null" horiz-adv-x="0" 
 />
    <glyph glyph-name="nonmarkingreturn" horiz-adv-x="300" 
 />
    <glyph glyph-name="space" unicode=" " horiz-adv-x="300" 
 />
    <glyph glyph-name="exclam" unicode="!" horiz-adv-x="300" 
d="M93 47q0 23 15.5 37.5t37.5 14.5q24 0 39 -16t15 -39q0 -22 -16 -37t-38 -15q-23 0 -38 16t-15 39zM165 231q0 -19 -3 -33t-17 -14q-13 0 -16 15t-3 37l-29 451q0 33 11.5 51.5t41.5 18.5q23 0 35 -14.5t12 -59.5v-21z" />
    <glyph glyph-name="quotedbl" unicode="&#x22;" horiz-adv-x="360" 
d="M79 507l-33 196q-3 15 10.5 29.5t32.5 14.5q18 0 32 -14t11 -30l-33 -196h-20zM260 507l-33 196q-3 15 10.5 29.5t32.5 14.5q18 0 32 -14t11 -30l-33 -196h-20z" />
    <glyph glyph-name="numbersign" unicode="#" 
d="M351 139q-4 -13 -10.5 -19.5t-19.5 -6.5q-11 0 -20 8t-9 20q0 6 2.5 14.5t5.5 16.5l30 89h-146l-35 -106q-8 -24 -11 -28q-9 -14 -26 -14q-12 0 -21 8t-9 21q0 6 4 17.5t5 14.5l29 87h-71q-17 0 -26 5.5t-9 22.5q0 14 9.5 20.5t24.5 6.5h90l53 159h-70q-35 0 -35 28
q0 14 9 21t24 7h91l41 120q4 14 11 21t20 7q12 0 21 -8t9 -21q0 -8 -1 -12t-7 -20l-29 -87h146l40 122q5 13 11.5 19.5t19.5 6.5q12 0 20 -8t8 -20q0 -6 -2.5 -15t-5.5 -16l-30 -89h69q15 0 25 -6.5t10 -21.5q0 -14 -10 -21t-24 -7h-88l-54 -159h69q14 0 19 -2q16 -6 16 -25
q0 -14 -10 -21t-24 -7h-88zM256 476l-53 -159h146l53 159h-146z" />
    <glyph glyph-name="dollar" unicode="$" 
d="M328 431q99 -41 145 -84q64 -60 64 -150q0 -88 -59.5 -146.5t-149.5 -67.5v-81q0 -24 -1 -27q-4 -12 -23 -12q-18 0 -21.5 7t-3.5 26v87q-72 0 -131 41q-31 22 -53 54q-25 37 -25 70q0 34 29 34q14 0 22 -10q5 -7 10 -24q16 -60 49.5 -86t98.5 -32v322l-13 6
q-92 43 -125 74q-54 50 -54 131q0 78 57.5 134.5t134.5 56.5v76q0 21 3.5 29t20.5 8q13 0 19 -6t6 -31v-76q61 0 110 -35q55 -39 55 -99q0 -18 -8 -31.5t-25 -13.5t-26 12.5t-9 30.5v15q0 17 -1.5 24t-10.5 17q-15 16 -34 22.5t-51 11.5v-277zM278 706q-54 0 -92.5 -33
t-38.5 -88q0 -50 43 -86q27 -23 88 -49v256zM328 29q61 0 104 40t43 102q0 71 -69 116q-26 17 -78 41v-299z" />
    <glyph glyph-name="percent" unicode="%" horiz-adv-x="820" 
d="M23 528q0 89 33 148q42 74 124 74t124 -74q34 -60 34 -148t-34 -148q-42 -74 -124 -74t-123 73q-34 60 -34 149zM277 533q0 76 -14 119q-23 71 -82 71q-62 0 -84 -73q-13 -42 -13 -123q0 -73 15 -120q24 -74 82 -74t81 76q15 49 15 124zM477 207q0 89 33 148
q42 74 124 74t124 -74q34 -60 34 -148t-34 -148q-42 -74 -124 -74t-123 73q-34 60 -34 149zM731 212q0 76 -14 119q-23 71 -82 71q-62 0 -84 -73q-13 -42 -13 -123q0 -73 15 -120q24 -74 82 -74t81 76q15 49 15 124zM226 31q-8 -12 -15 -24q-9 -10 -26 -10q-13 0 -17 2t-4 7
t7 16.5t7 12.5l414 673q5 8 10 17q8 11 26 11q22 0 22 -10q0 -4 -5 -12.5t-5 -9.5z" />
    <glyph glyph-name="ampersand" unicode="&#x26;" horiz-adv-x="800" 
d="M488 171q33 38 56 77q31 53 31 88q0 20 -32.5 33t-32.5 29q0 14 8.5 17t26.5 3h151q23 0 31.5 -2.5t8.5 -18.5q0 -9 -7 -15t-18 -10q-23 -9 -24 -10q-10 -6 -21 -17q-10 -13 -28 -43q-14 -24 -15 -26l-98 -140q37 -36 81 -58.5t90 -22.5q16 0 40.5 4.5t31.5 4.5
q19 0 19 -18q0 -13 -14 -24q-9 -7 -28 -15.5t-41.5 -12.5t-45.5 -4q-55 0 -102 22.5t-92 63.5q-48 -43 -104 -67t-117 -24q-89 0 -152 50q-69 55 -69 142q0 70 52 131q42 49 115 91q-36 47 -52 82q-22 47 -22 94q0 80 62 128q57 44 140 44q64 0 110 -33q27 -19 43.5 -48
t16.5 -61q0 -66 -68 -125q-34 -30 -125 -81zM219 360q-53 -30 -82 -67q-35 -45 -35 -100q0 -66 46 -106.5t113 -40.5q51 0 90 17q31 13 77 50zM420 597q0 47 -32.5 76.5t-80.5 29.5q-45 0 -82.5 -27.5t-37.5 -71.5q0 -39 25 -87q18 -35 51 -77q70 37 100 61q57 46 57 96z
" />
    <glyph glyph-name="quotesingle" unicode="'" horiz-adv-x="160" 
d="M70 507l-33 196q-3 15 10.5 29.5t32.5 14.5q18 0 32 -14t11 -30l-33 -196h-20z" />
    <glyph glyph-name="parenleft" unicode="(" horiz-adv-x="240" 
d="M200 -158q-20 0 -33 15q-4 5 -20 34q-54 100 -82 200.5t-28 208.5q0 78 14.5 151.5t44.5 148.5q15 38 31.5 72t34.5 62q14 23 38 23t24 -12q0 -5 -6 -18t-10 -23q-93 -192 -93 -405q0 -212 93 -404q6 -12 9 -20q7 -16 7 -21q0 -7 -7.5 -9.5t-16.5 -2.5z" />
    <glyph glyph-name="parenright" unicode=")" horiz-adv-x="240" 
d="M39 757q20 0 33 -15q4 -5 20 -34q54 -100 82 -200.5t28 -208.5q0 -152 -60 -301q-13 -33 -30 -68q-20 -41 -34.5 -64.5t-38.5 -23.5t-24 12q0 6 6 20q3 7 10 21q92 193 92 404q0 107 -22.5 207t-69.5 198q-2 4 -9 20.5t-7 20.5q0 7 7.5 9.5t16.5 2.5z" />
    <glyph glyph-name="asterisk" unicode="*" horiz-adv-x="360" 
d="M74 502q-15 0 -24 10t-9 25q0 21 24 31q13 5 43.5 8.5t32.5 3.5q27 5 27 16t-63.5 19t-63.5 39q0 14 9.5 24.5t23.5 10.5q24 0 56 -41t43 -41q2 0 4 7q0 14 -10 39q-22 55 -22 61q0 14 10 25t25 11q17 0 26 -11t9 -28q0 -14 -15.5 -50t-15.5 -48q2 -8 4 -8
q11 0 42.5 43.5t55.5 43.5q14 0 24 -9t10 -24q0 -33 -63 -43t-63 -20t63 -20t63 -44q0 -14 -9.5 -23.5t-24.5 -9.5q-24 0 -55.5 43.5t-42.5 43.5q-2 0 -4 -8q0 -13 15.5 -49t15.5 -49q0 -16 -9.5 -27.5t-25.5 -11.5q-15 0 -24.5 10.5t-9.5 25.5q0 7 21 61q10 26 10 39
q-2 8 -4 8q-7 0 -19.5 -13.5t-19.5 -22.5q-19 -24 -25 -30q-17 -17 -35 -17z" />
    <glyph glyph-name="plus" unicode="+" horiz-adv-x="660" 
d="M299 292v228h63v-228h228v-63h-228v-229h-63v229h-229v63h229z" />
    <glyph glyph-name="comma" unicode="," horiz-adv-x="300" 
d="M107 2q-18 18 -18 43q0 23 16 37t39 14q34 0 53 -29q16 -25 16 -62q0 -44 -21 -88.5t-55 -74.5q-1 -1 -8 -7t-10 -6q-5 0 -9 4t-4 10q26 29 46.5 59.5t20.5 58.5q0 18 -4.5 24.5t-20.5 6.5h-11q-19 0 -30 10z" />
    <glyph glyph-name="hyphen" unicode="-" horiz-adv-x="300" 
d="M65 257h-16q-13 0 -20 5t-7 20q0 21 6.5 26.5t25.5 5.5h11h170h16q13 0 20 -4.5t7 -19.5q0 -25 -7 -29t-36 -4h-170z" />
    <glyph glyph-name="period" unicode="." horiz-adv-x="300" 
d="M96 47q0 23 15.5 37.5t37.5 14.5q23 0 38.5 -15.5t15.5 -39.5q0 -22 -16 -37t-38 -15q-23 0 -38 16t-15 39z" />
    <glyph glyph-name="slash" unicode="/" horiz-adv-x="520" 
d="M466 727q9 15 16 21q11 9 27 9q14 0 20.5 -6t6.5 -15q0 -7 -3 -15l-453 -795q-11 -19 -17 -25q-10 -10 -27 -10q-16 0 -22.5 6.5t-6.5 16.5q0 6 2 9.5t2 4.5z" />
    <glyph glyph-name="zero" unicode="0" 
d="M52 365q0 142 54 249q69 136 197 136q65 0 117 -39q45 -34 79 -96q28 -51 41.5 -117.5t13.5 -132.5q0 -141 -54 -246q-69 -134 -197 -134t-196 133q-55 107 -55 247zM436 167q12 41 17.5 94t5.5 104q0 56 -5.5 109t-19.5 97q-18 56 -45 89q-37 45 -86 45q-50 0 -87 -47
q-28 -36 -46 -93q-12 -42 -17.5 -95t-5.5 -105q0 -58 5.5 -108.5t21.5 -100.5t44 -83q36 -43 85 -43q51 0 87 45q28 35 46 92z" />
    <glyph glyph-name="one" unicode="1" 
d="M369 137q0 -54 12.5 -70t62.5 -16q24 0 42.5 -4.5t18.5 -20.5q0 -17 -9 -21.5t-29 -4.5h-289q-14 0 -19 1q-22 4 -22 22q0 16 27 22q3 1 47.5 5.5t57.5 23.5q10 14 10 67v417v13q0 14 -1.5 24t-6.5 17q-10 12 -30.5 15.5t-43.5 3.5l-53 -2q-18 0 -25.5 5.5t-7.5 15.5
q0 16 19 21q25 3 33 4q41 0 76.5 13.5t72.5 40.5q8 6 18.5 13.5t19.5 7.5q13 0 16 -11.5t3 -29.5v-572z" />
    <glyph glyph-name="two" unicode="2" 
d="M96 0q-23 0 -28 2q-13 5 -13 23q0 16 35 72q27 43 49 71l154 167q74 71 101 107q55 72 55 133q0 54 -39.5 90.5t-94.5 36.5q-59 0 -108 -35q-20 -16 -33 -35q-16 -24 -16 -46q0 -13 2.5 -20t11.5 -20l10.5 -17.5t4.5 -14.5q0 -18 -14.5 -28.5t-33.5 -10.5q-29 0 -46 23
t-17 54q0 38 19 74t52.5 65.5t78.5 44t96 14.5q43 0 79 -9.5t70 -34.5t53.5 -61t19.5 -80q0 -89 -87 -178q-30 -31 -92 -81q-76 -62 -118 -105q-61 -62 -94 -127h215q54 0 75 7t53 42q10 11 15 15q10 8 20 8q7 0 12 -5t5 -13q0 -6 -4.5 -18t-8.5 -21q-12 -25 -16 -48
q-7 -31 -16 -36t-45 -5h-362z" />
    <glyph glyph-name="three" unicode="3" 
d="M236 366q-16 0 -26.5 5.5t-10.5 20.5q0 19 27 22t33 3q42 0 71 9t57 36q20 20 30.5 50.5t10.5 62.5q0 57 -42 92t-101 35q-44 0 -74 -19q-36 -23 -36 -64q0 -10 2.5 -25t2.5 -17q0 -15 -12 -22.5t-28 -7.5q-23 0 -39 14t-16 38q0 27 16 53q13 22 37 42q33 27 78 41.5
t92 14.5q87 0 148 -47q67 -52 67 -137q0 -63 -48 -108q-42 -39 -108 -58q77 -15 130 -64q59 -55 59 -129q0 -50 -22 -93t-61 -73t-86 -43t-101 -13q-85 0 -151 34q-83 43 -83 119q0 22 12.5 36.5t34.5 14.5t30.5 -12t8.5 -34q0 -56 43 -86q39 -27 99 -27q37 0 69.5 9.5
t57.5 32.5t38.5 58.5t13.5 72.5q0 69 -41.5 114.5t-108.5 45.5z" />
    <glyph glyph-name="four" unicode="4" 
d="M442 116q0 -13 1 -26t5 -22.5t9 -12.5t23 -7.5t20 -5.5q10 -5 10 -20q0 -13 -9.5 -17.5t-23.5 -4.5h-158q-15 0 -24 4t-9 17q0 9 7 14t16 7q33 6 38 16t5 48v89h-269h-14q-19 0 -30 5t-11 23q0 30 30 102q24 59 48 101q32 57 73 114t85 104l87 81q17 14 24 18q12 7 29 7
q25 0 33 -19q5 -12 5 -41v-438h93q22 0 31.5 -5t9.5 -25q0 -17 -8.5 -22t-27.5 -5h-98v-79zM352 656q-175 -172 -256 -405h256v405z" />
    <glyph glyph-name="five" unicode="5" 
d="M159 415q72 43 154 43q107 0 173 -56q71 -60 71 -165q0 -54 -22 -102.5t-61.5 -82.5t-93.5 -50.5t-109 -16.5q-43 0 -79.5 8.5t-69 28t-51.5 46.5q-22 31 -22 64q0 47 48 47q13 0 22 -4q20 -9 20 -30l-3 -27q0 -44 44 -67q36 -19 84 -19q92 0 144 53t52 146q0 79 -38 127
q-42 52 -120 52q-52 0 -94 -22q-45 -26 -89 -51q-10 0 -15.5 5.5t-5.5 24.5v10l23 373l157 -13l153 8l40 5q22 0 22 -18q0 -16 -20 -30t-59 -24t-87 -14.5t-94 -4.5h-58z" />
    <glyph glyph-name="six" unicode="6" 
d="M350 447q93 0 150 -59t57 -152q0 -108 -69.5 -179.5t-178.5 -71.5q-62 0 -114.5 23.5t-88.5 71.5q-32 43 -44.5 98t-12.5 120q0 95 30.5 177t95.5 148q52 55 129.5 91t152.5 36q19 0 25 -5t6 -16q0 -10 -13 -16.5t-37 -6.5q-131 -17 -212 -115.5t-81 -229.5
q44 40 96.5 63t108.5 23zM168 139q18 -47 56 -76.5t88 -29.5q49 0 86.5 31.5t51.5 79.5q4 15 8 44t4 36q0 73 -34 119q-39 53 -110 53q-50 0 -97 -27q-40 -23 -77 -66q0 -68 5.5 -99.5t18.5 -64.5z" />
    <glyph glyph-name="seven" unicode="7" 
d="M216 659q-64 0 -81 -14t-20.5 -41t-8.5 -32.5t-16 -5.5q-14 0 -17 10t-3 29l2 43v39q2 29 6.5 34.5t11.5 8t18 2.5h14h382q10 1 15 1q20 0 20 -17q0 -8 -8.5 -27.5t-9.5 -23.5l-222 -599q-11 -32 -22 -63q-16 -32 -50 -32q-18 0 -34 8t-16 24q0 5 2 12t5 14l275 630h-243
z" />
    <glyph glyph-name="eight" unicode="8" 
d="M559 200q0 -46 -22.5 -88t-61.5 -71t-86.5 -42.5t-99.5 -13.5q-94 0 -162 43q-79 50 -79 139q0 70 59 126q46 44 124 75q-69 32 -103 69q-44 48 -44 113q0 43 20 80.5t55 64.5q70 55 164 55q79 0 142 -39q74 -46 74 -121q0 -47 -30 -87q-36 -48 -129 -96q80 -31 124 -76
q55 -56 55 -131zM121 166q0 -30 15.5 -57.5t42.5 -46.5q22 -15 51.5 -21.5t61.5 -6.5q70 0 124 34q64 40 64 106q0 67 -75 113q-10 6 -134 61q-66 -28 -104 -69q-46 -49 -46 -113zM466 576q0 58 -45 92.5t-105 34.5q-62 0 -108 -34q-52 -38 -52 -97q0 -58 64 -98
q30 -19 116 -49q72 39 104 80q26 33 26 71z" />
    <glyph glyph-name="nine" unicode="9" 
d="M258 289q-95 0 -151 59t-56 153q0 108 71.5 178.5t180.5 70.5q122 0 196 -92q31 -41 46 -105q12 -52 12 -114q0 -94 -29.5 -175.5t-93.5 -148.5q-55 -58 -131 -94t-153 -36q-15 0 -25.5 4t-10.5 17q0 9 6 12.5t17 5.5q147 18 229 109q79 87 94 237q-49 -40 -96.5 -60.5
t-105.5 -20.5zM461 450q0 41 -5.5 84.5t-18.5 71.5q-19 41 -57 68.5t-83 27.5q-72 0 -117 -64q-19 -25 -26.5 -54t-7.5 -66q0 -75 33 -124q39 -58 111 -58q51 0 93 24t78 67v23z" />
    <glyph glyph-name="colon" unicode=":" horiz-adv-x="300" 
d="M96 47q0 23 15.5 37.5t37.5 14.5q23 0 38.5 -15.5t15.5 -39.5q0 -22 -16 -37t-38 -15q-23 0 -38 16t-15 39zM96 340q0 23 15.5 37.5t37.5 14.5q23 0 38.5 -15.5t15.5 -39.5q0 -22 -16 -37t-38 -15q-23 0 -38 16t-15 39z" />
    <glyph glyph-name="semicolon" unicode=";" horiz-adv-x="300" 
d="M94 340q0 22 16 37t38 15q23 0 38 -16t15 -39q0 -22 -16 -37t-38 -15q-23 0 -38 16t-15 39zM107 2q-18 18 -18 43q0 23 16 37t39 14q34 0 53 -29q16 -25 16 -62q0 -44 -21 -88.5t-55 -74.5q-1 -1 -8 -7t-10 -6q-5 0 -9 4t-4 10q26 29 46.5 59.5t20.5 58.5q0 18 -4.5 24.5
t-20.5 6.5h-11q-19 0 -30 10z" />
    <glyph glyph-name="less" unicode="&#x3c;" horiz-adv-x="660" 
d="M610 -23l-554 253v58l554 255v-65l-482 -220l482 -217v-64z" />
    <glyph glyph-name="equal" unicode="=" horiz-adv-x="660" 
d="M590 368v-63h-520v63h520zM590 215v-63h-520v63h520z" />
    <glyph glyph-name="greater" unicode="&#x3e;" horiz-adv-x="660" 
d="M532 258l-482 220v65l554 -255v-58l-554 -253v64z" />
    <glyph glyph-name="question" unicode="?" horiz-adv-x="460" 
d="M135 47q0 22 16 37t38 15q23 0 38 -16t15 -39q0 -22 -16 -37t-38 -15q-23 0 -38 16t-15 39zM158 325q0 25 5 30.5t34 18.5q40 19 56 29q27 17 49 42q47 55 47 126q0 64 -33 103q-36 42 -99 42q-21 0 -38 -4.5t-34 -15.5q-28 -19 -28 -50q1 -8 1 -13q1 -13 1 -19
q0 -11 -5 -19q-12 -16 -35 -16q-41 0 -41 43q0 26 12.5 49t34.5 40q30 23 67.5 34.5t78.5 11.5q88 0 142.5 -50.5t54.5 -138.5q0 -45 -16.5 -89t-45.5 -77q-25 -27 -65 -50q-23 -13 -74 -36q-6 -3 -11.5 -6.5t-8 -10t-4.5 -32t-2 -38.5q0 -14 -1 -20q-4 -24 -22 -24
q-9 0 -15 7.5t-6 26.5q1 14 1 19v87z" />
    <glyph glyph-name="at" unicode="@" horiz-adv-x="820" 
d="M517 270q-6 -17 -11 -33q-8 -24 -8 -33q0 -13 10.5 -19.5t23.5 -6.5q38 0 76 27q31 22 59 58.5t37 75t9 94.5q0 127 -98 204q-84 66 -184 66q-143 0 -235.5 -96.5t-92.5 -246.5q0 -142 91.5 -236.5t226.5 -94.5q95 0 171.5 44t118.5 129h35q-47 -103 -132 -160t-194 -57
q-148 0 -254.5 110.5t-106.5 265.5q0 162 108 274t263 112q131 0 227 -87q100 -91 100 -226q0 -51 -18 -101t-51.5 -91.5t-77.5 -67.5q-51 -30 -100 -30q-64 0 -64 61q0 10 1 16q-30 -32 -64 -51.5t-73 -19.5q-54 0 -84 37t-30 94q0 110 66 204q73 104 174 104
q35 0 60.5 -14.5t40.5 -46.5l17 46h76zM453 305q20 41 36 87q20 58 20 91q0 31 -12 49q-15 22 -43 22q-75 0 -135 -114q-52 -100 -52 -186q0 -32 14.5 -51t44.5 -19q46 0 79 39q17 20 48 82z" />
    <glyph glyph-name="A" unicode="A" horiz-adv-x="720" 
d="M298 684q20 36 24 43q16 25 26 25t24 -18q11 -13 32 -50q60 -102 120 -242q55 -128 95 -254l39 -108q6 -15 12 -21t23 -15q13 -6 15 -9.5t2 -12.5q0 -15 -11 -18.5t-29 -3.5h-124q-17 0 -26.5 4t-9.5 19t25.5 25.5t25.5 26.5q0 14 -22 78q-11 33 -31 84l-7 19h-325
q-1 -2 -27 -80q-19 -56 -19 -77q0 -35 26.5 -50.5t26.5 -26.5q0 -14 -9.5 -18.5t-27.5 -4.5q-17 1 -23 1h-58q-12 -1 -20 -1q-20 0 -32.5 5t-12.5 19q0 13 16 24q22 14 31 38l36 103zM485 308l-11 25l-138 301l-144 -326h293z" />
    <glyph glyph-name="B" unicode="B" horiz-adv-x="680" 
d="M65 0q-16 0 -25.5 4t-9.5 19q0 11 6.5 15.5t18.5 8.5q27 8 32 17.5t5 41.5v556q0 10 -11 15q-1 1 -22 7l-16 4q-13 5 -13 21q0 11 8 17t29 6h325q42 0 75.5 -5.5t64 -25t50.5 -52t20 -71.5q0 -61 -53 -111q-43 -40 -109 -66q87 -13 146 -63q68 -57 68 -140q0 -46 -24 -85
t-63.5 -65t-87 -37t-101.5 -11h-313zM182 379q97 21 129 31q80 24 121 53q29 21 48 49.5t19 60.5q0 72 -65 95q-37 13 -126 13h-55q-36 -2 -53 -12q-11 -7 -14.5 -19.5t-3.5 -30.5v-21v-219zM182 129v-19q0 -19 4 -30.5t17 -18.5t44 -9t53 -2q52 0 92.5 6t77 24t59 49
t22.5 71q0 71 -61 117q-50 38 -128 52l-180 -46v-194z" />
    <glyph glyph-name="C" unicode="C" horiz-adv-x="720" 
d="M685 549q0 -14 -5.5 -24t-19.5 -10q-11 0 -19 14q-8 18 -11 24q-19 39 -31 56q-18 26 -47 47q-56 40 -129 40q-65 0 -114 -25.5t-92 -78.5q-79 -97 -79 -224q0 -57 16 -118t46 -104q38 -53 94 -78.5t123 -25.5q63 0 112.5 24t98.5 73q8 8 16 17q11 10 22 10q22 0 22 -24
q0 -22 -40 -59q-31 -29 -60 -46q-41 -26 -88.5 -39t-98.5 -13q-152 0 -257 99q-108 102 -108 254q0 164 113.5 286.5t277.5 122.5q100 0 191 -47q22 -12 29 -17q20 -13 26 -21q12 -17 12 -41v-72z" />
    <glyph glyph-name="D" unicode="D" horiz-adv-x="740" 
d="M271 732q128 0 188 -18t110 -55q71 -53 105 -128t34 -167q0 -75 -26.5 -143t-80.5 -122t-126 -78q-64 -21 -151 -21h-259q-17 0 -26.5 4t-9.5 19q0 11 6.5 15.5t18.5 8.5q27 9 31 17t4 42v556q0 9 -11 15q-3 1 -19.5 7t-20.5 8q-8 6 -8 17q0 14 9.5 18.5t25.5 4.5h206z
M179 176q0 -84 12 -101q17 -24 98 -24q147 0 232 82t85 230q0 71 -20 130q-23 66 -67 109.5t-107.5 61t-134.5 17.5q-66 0 -82 -19t-16 -84v-402z" />
    <glyph glyph-name="E" unicode="E" 
d="M178 172q0 -68 14 -91q18 -29 74 -29h150q36 0 64.5 14t56.5 41q16 14 17 15q13 10 20 10q16 0 16 -17q0 -10 -5 -36t-5 -29q-7 -40 -12 -45t-38 -5h-466q-16 0 -25.5 4t-9.5 19q0 10 6.5 15t17.5 9q27 9 31 17t4 42v528q0 22 -6 35t-26 16q-15 4 -19 7q-8 6 -8 18
q0 11 7 16.5t29 5.5h443q17 -4 25 -16.5t11 -31.5l8 -61q-2 -16 -17 -16q-11 0 -17 8q-22 28 -50 45q-33 20 -64 20h-161q-37 0 -51 -17t-14 -61v-182h192q29 0 42 5t25 15q4 4 9 8.5t13 4.5q12 0 16.5 -13.5t4.5 -32.5q-1 -21 -1 -26q0 -26 -1 -29q-4 -15 -23 -15
q-9 0 -22.5 13t-24 15.5t-33.5 2.5h-197v-196z" />
    <glyph glyph-name="F" unicode="F" horiz-adv-x="560" 
d="M179 401h207q26 0 35 2.5t26 16.5q5 4 10 9q5 3 13 3q13 0 18 -12.5t5 -29.5q0 -8 -1 -19.5t-1 -12.5q0 -17 -3 -29t-16 -12q-12 0 -25.5 12.5t-25.5 16t-35 3.5h-208l1 -278q0 -8 5.5 -12.5t25.5 -10.5q8 -2 18.5 -5.5t10.5 -19.5q0 -11 -8 -17t-29 -6h-136
q-17 0 -26.5 4t-9.5 19q0 10 6.5 15t17.5 9q27 9 31 17t4 42v556q0 9 -11 15l-19.5 6.5t-20.5 8.5q-9 6 -9 18q0 11 7 16.5t29 5.5h443q17 -3 28 -13t16 -33l12 -62q-4 -16 -15 -16q-7 0 -16.5 9t-12.5 12q-21 22 -48 35q-33 16 -71 16h-164q-31 0 -44.5 -7t-13.5 -20v-252z
" />
    <glyph glyph-name="G" unicode="G" horiz-adv-x="760" 
d="M623 367q28 0 49.5 -1.5t34.5 -4.5t16.5 -7.5t3.5 -14.5l-2 -22l-9 -113q0 -30 1 -45t7 -41l2 -17q0 -17 -23.5 -36t-75.5 -40t-96 -30.5t-98 -9.5q-80 0 -150.5 22t-127.5 71.5t-87.5 122.5t-30.5 153q0 166 114.5 279.5t281.5 113.5q53 0 111 -12.5t101 -36.5
q31 -18 39 -35t8 -53v-24q1 -12 1 -19q0 -15 -3.5 -23.5t-15.5 -8.5q-8 0 -12.5 5.5t-10.5 16.5q-20 46 -38 68q-12 15 -36 31q-30 19 -69 29.5t-77 10.5q-133 0 -216 -109q-76 -100 -76 -237q0 -64 18.5 -118t59 -99.5t98.5 -71t121 -25.5q41 0 82.5 10t69.5 32t38 66
q7 31 7 81q0 61 -16 77t-76 16q-18 0 -30 1t-25 5.5t-13 21.5q0 13 13 18q5 1 22 1.5t33 1.5h14h68z" />
    <glyph glyph-name="H" unicode="H" horiz-adv-x="800" 
d="M180 71q0 -9 11 -15q15 -6 21 -8q15 -6 19 -8q8 -6 8 -17t-7.5 -17t-28.5 -6h-138q-17 0 -26.5 4t-9.5 19q0 12 9 17t17 7q27 8 31 16.5t4 42.5v555q0 8 -5 12t-27 11q-8 2 -15 5q-14 6 -14 21q0 11 7.5 16.5t29.5 5.5h138q16 0 25.5 -4t9.5 -18q0 -11 -7 -17
q-3 -3 -21.5 -9.5t-24.5 -14.5t-6 -29v-14v-202h433v238q0 9 -9.5 14t-23.5 8q-15 5 -19 8q-9 6 -9 18q0 11 7 16.5t28 5.5h142q16 0 25.5 -4t9.5 -18q0 -11 -6 -16t-25 -10.5t-24.5 -13.5t-5.5 -31v-13v-546q0 -19 19 -27l11 -5l9 -5q9 -5 18 -9q4 -4 4 -11q0 -11 -7.5 -17
t-27.5 -6h-141q-17 0 -26.5 4t-9.5 19q0 11 6.5 15.5t18.5 8.5q26 7 31 17t5 42v266h-433v-301z" />
    <glyph glyph-name="I" unicode="I" horiz-adv-x="260" 
d="M86 662q0 9 -11 15l-19.5 6.5t-20.5 8.5q-9 6 -9 18q0 11 7.5 16.5t28.5 5.5h138q16 0 25.5 -4t9.5 -18q0 -11 -7 -17q-3 -3 -22 -9.5t-24.5 -14t-5.5 -29.5v-14v-555q0 -9 11 -15q15 -6 21 -8q15 -6 19 -8q8 -6 8 -17t-7.5 -17t-28.5 -6h-138q-17 0 -26.5 4t-9.5 19
q0 12 9 17t17 7q27 8 31 16.5t4 42.5v556z" />
    <glyph glyph-name="J" unicode="J" horiz-adv-x="480" 
d="M306 662q0 9 -9 14t-25 8q-16 5 -20 7q-9 6 -9 19q0 11 7 16.5t29 5.5h140q17 0 26.5 -4t9.5 -18q0 -11 -6 -16t-24 -10.5t-23.5 -13t-5.5 -28.5v-16v-396q0 -54 -6 -88q-9 -50 -32 -82q-27 -37 -72.5 -56t-95.5 -19q-77 0 -130 39q-59 43 -59 117q0 48 29 85.5t76 37.5
q17 0 30.5 -10.5t13.5 -28.5q0 -16 -10.5 -23.5t-25 -11.5t-24 -7t-17.5 -12q-15 -17 -15 -40q0 -43 39 -70q35 -24 81 -24q31 0 57 11.5t43.5 34.5t22.5 54t5 71v454z" />
    <glyph glyph-name="K" unicode="K" horiz-adv-x="700" 
d="M181 71q0 -9 11 -15q15 -6 21 -8q15 -6 18 -8q8 -6 8 -17q0 -10 -8 -16.5t-28 -6.5h-138q-17 0 -26.5 4t-9.5 19q0 12 9 17t17 7q26 7 31 17t5 42v556q0 9 -9 14t-20 7.5t-19 5.5q-13 6 -13 21q0 11 7 16.5t28 5.5h137q17 0 26.5 -4t9.5 -18q0 -8 -4 -12.5t-20 -12.5
q-24 -10 -28.5 -16.5t-4.5 -28.5v-14v-291l170 161l91 94q26 30 27 31q18 23 18 37q0 19 -26.5 28.5t-26.5 26.5q0 12 9 15.5t23 3.5h147q20 0 29 -2.5t9 -16.5q0 -10 -5.5 -15.5t-17.5 -10.5q-29 -14 -47 -30q-12 -11 -39 -43l-165 -176l25 -26q68 -74 119 -141
q63 -84 98 -158l15 -30q14 -23 40 -33q17 -7 20 -9q9 -7 9 -20q0 -12 -11 -16.5t-24 -4.5h-130q-22 0 -29 2q-18 5 -18 21q0 11 12 18q28 16 28 30q0 39 -89 158q-77 103 -128 151l-133 -121v-188z" />
    <glyph glyph-name="L" unicode="L" 
d="M182 116q-1 -13 -1 -20q0 -10 2 -18t9 -13q12 -9 36.5 -11.5t51.5 -2.5h54l110 6q38 6 55.5 12.5t46.5 28.5q10 8 20.5 15t16.5 7q17 0 17 -20q0 -6 -7 -40t-10 -40q-6 -14 -17.5 -17t-33.5 -3h-462q-16 0 -25.5 4t-9.5 19q0 11 5 15t18 9q22 9 28 16.5t6 26.5v16v556
q0 9 -9 14t-20.5 7.5t-19.5 4.5q-13 5 -13 22q0 11 7 16.5t29 5.5h136q17 0 26.5 -4t9.5 -18q0 -8 -4 -13t-23 -12t-24 -14t-5 -25v-19v-511z" />
    <glyph glyph-name="M" unicode="M" horiz-adv-x="860" 
d="M533 460l97 230q8 22 12 28q9 14 25 14h129q15 0 21.5 -4t6.5 -21q0 -9 -7.5 -14t-24.5 -9.5t-23 -8.5q-13 -9 -13 -42v-562q0 -8 5.5 -12t28.5 -10t24 -7q9 -5 9 -19q0 -11 -7.5 -17t-28.5 -6h-135q-16 0 -25.5 4t-9.5 19q0 11 5 15t18 9q19 8 24 13t5 18q-1 16 -1 28
v524l-144 -336l-75 -155q-10 -20 -14 -26q-12 -18 -23 -18t-19 10q-3 3 -11 20l-107 229l-98 242l-20 50v-571q2 -12 13.5 -17.5t27.5 -11t18 -6.5q10 -6 10 -20q0 -10 -8 -15t-19 -5h-120q-20 0 -28 3t-8 19q0 13 10 19q3 2 14 6q22 9 26.5 16.5t4.5 33.5v552
q0 32 -32.5 39t-32.5 22q0 11 7.5 16.5t19.5 5.5h133q16 0 27 -19q10 -25 14 -34l188 -449z" />
    <glyph glyph-name="N" unicode="N" horiz-adv-x="740" 
d="M592 609v26q0 19 -2 27.5t-7.5 12.5t-18 7.5t-23.5 7.5q-10 6 -10 20q0 12 8 17t19 5h123q11 0 20 -3.5t9 -19.5q0 -9 -7 -14t-18 -9q-18 -8 -19 -8q-10 -5 -12 -11.5t-2.5 -17.5t-0.5 -17v-17v-577v-16q0 -22 -5.5 -29.5t-17.5 -7.5q-7 0 -13.5 6.5t-14.5 22.5
q-22 43 -64 106q-35 51 -70 103q-47 71 -93 143q-57 86 -98 140q-51 67 -111 131v-539q0 -23 5 -32.5t25 -15.5q18 -4 25 -8t7 -19q0 -23 -26 -23h-136q-26 0 -26 23q0 11 6 16t26 9t27.5 12.5t7.5 28.5v30v491q0 38 -5 51q-9 23 -33 28t-26 6q-11 5 -11 18q0 9 6 14t23 5
h115q22 0 128 -132q50 -62 77 -98l51 -68q36 -48 81 -117q34 -52 81 -129v421z" />
    <glyph glyph-name="O" unicode="O" horiz-adv-x="800" 
d="M135 91q-50 53 -74 122.5t-24 148.5q0 163 98.5 274t259.5 111q75 0 143 -28.5t119 -81.5t76 -123.5t25 -150.5q0 -163 -103.5 -270.5t-266.5 -107.5q-74 0 -138 26.5t-115 79.5zM594 143q31 43 46.5 100t15.5 115q0 64 -15 125t-49 107.5t-86.5 75t-110.5 28.5
q-61 0 -113 -31.5t-86 -85.5q-30 -46 -43.5 -99.5t-13.5 -114.5q0 -62 14.5 -118t47.5 -104t83 -76t109 -28q61 0 112 27.5t89 78.5z" />
    <glyph glyph-name="P" unicode="P" horiz-adv-x="620" 
d="M179 70q0 -9 10 -14t25 -8q17 -5 21 -7q9 -6 9 -18q0 -10 -8 -16.5t-28 -6.5h-140q-17 0 -26.5 4t-9.5 19q0 11 5.5 15t18.5 9q22 8 27.5 15.5t5.5 27.5v16v556q0 9 -11 15q-3 1 -19.5 6t-20.5 8q-9 6 -9 18q0 11 7.5 17t27.5 6h260q74 0 110.5 -8t70.5 -26
q99 -50 99 -158q0 -68 -46 -126q-40 -51 -108 -84q-57 -28 -126 -39t-145 -11v-210zM179 332q121 0 208 40q115 53 115 158q0 36 -17.5 67.5t-47 50.5t-66 25.5t-76.5 6.5q-26 0 -50 -2.5t-41 -11t-21 -23t-4 -40.5v-271z" />
    <glyph glyph-name="Q" unicode="Q" horiz-adv-x="800" 
d="M387 -15q-71 0 -136.5 29t-114.5 82.5t-74.5 123t-25.5 144.5q0 157 102.5 270t257.5 113q158 0 260 -107t102 -266q0 -128 -70.5 -231.5t-191.5 -141.5q35 -32 74.5 -50.5t83.5 -18.5q11 0 34 3t34 3q14 0 22 -10t8 -24q0 -18 -16 -29q-21 -15 -58 -15q-68 0 -133 37
q-59 33 -106 91zM385 143q0 17 4 28t19 11q13 0 18 -14q2 -6 6 -33t10 -48t21 -46q95 31 147 129q46 86 46 195q0 127 -62 222q-71 109 -192 109q-126 0 -199 -109q-65 -97 -65 -228q0 -130 69 -223q77 -104 204 -104q-11 28 -18.5 56.5t-7.5 54.5z" />
    <glyph glyph-name="R" unicode="R" horiz-adv-x="680" 
d="M181 70q0 -10 10 -15q15 -5 22.5 -8t16.5 -7q8 -6 8 -18q0 -11 -7.5 -16.5t-29.5 -5.5h-134q-17 0 -26.5 4t-9.5 18q0 12 5 15.5t20 9.5q27 8 31 16.5t4 42.5v555q0 10 -11 16q-1 1 -22 7l-16 4q-13 5 -13 21q0 11 7.5 17t28.5 6h311q47 0 82.5 -7t68.5 -28.5t53 -56.5
t20 -76q0 -69 -51 -122q-40 -42 -113 -75q47 -54 88 -126q30 -53 69 -138q13 -28 19 -36q10 -13 31 -22t24.5 -12.5t3.5 -12.5q0 -13 -9.5 -16.5t-24.5 -3.5h-148q-18 0 -25 2q-15 5 -15 19t25.5 26t25.5 31q0 39 -61 136q-54 86 -96 129l-162 -29v-244zM181 366
q145 23 198 44q119 47 119 142q0 75 -72 106q-51 22 -137 22q-35 0 -56 -2t-34.5 -11.5t-15.5 -27.5t-2 -34v-239z" />
    <glyph glyph-name="S" unicode="S" 
d="M360 423q47 -11 75 -21q41 -15 69 -36q71 -57 71 -150q0 -50 -21.5 -93t-61.5 -75.5t-91 -47.5t-108 -15q-54 0 -100.5 12t-82 37.5t-58.5 56.5q-30 40 -30 72q0 14 7 23t20 9q11 0 19 -7t15 -20q24 -42 40 -59.5t37 -31.5q30 -20 68.5 -30t76.5 -10q77 0 131 38
q62 44 62 118q0 86 -116 123q-108 29 -216 59q-116 48 -116 161q0 45 19.5 84t55.5 69.5t81 44t98 13.5q47 0 96.5 -12.5t87.5 -36.5q17 -11 22 -25q1 -5 1.5 -24t1.5 -34q0 -17 -2 -26t-14 -9q-39 45 -89 78q-57 38 -129 38q-56 0 -99.5 -34t-43.5 -89q0 -56 40 -88
q32 -26 93 -41z" />
    <glyph glyph-name="T" unicode="T" horiz-adv-x="640" 
d="M364 71q0 -9 9 -14t24 -9.5t21 -8.5t6 -16q0 -11 -7.5 -17t-28.5 -6h-139q-17 0 -26.5 4t-9.5 19q0 12 9 17t17 7q27 8 31 16.5t4 42.5v513v17q0 25 -6 33q-9 12 -38 12q-18 0 -39 -2.5t-47.5 -8t-45.5 -17.5q-10 -6 -41 -32q-7 -7 -15.5 -14t-16.5 -7q-20 0 -20 23l3 23
l6 48q8 38 23 38h555q15 -2 19 -6t9.5 -25.5t9.5 -50.5l4 -26q0 -21 -18 -21q-10 0 -20 8.5t-13 11.5q-26 21 -36 27q-18 12 -40 18.5t-44.5 9.5t-44.5 3q-39 0 -46.5 -13t-7.5 -55v-542z" />
    <glyph glyph-name="U" unicode="U" horiz-adv-x="760" 
d="M173 323q0 -69 5 -104q9 -59 36 -98.5t78 -62.5q45 -20 91 -20q59 0 107 21q55 24 83 68.5t36 108.5q5 38 5 115v278q0 20 -12.5 34.5t-30 21t-19.5 8.5q-10 7 -10 18q0 12 8 16.5t21 4.5h133q26 0 26 -23q0 -10 -8 -16q-1 -1 -19.5 -8.5t-24.5 -17t-6 -34.5v-291
q0 -86 -9 -133q-13 -71 -54 -121.5t-108.5 -76.5t-139.5 -26q-56 0 -111 21q-64 24 -102.5 69.5t-53.5 114.5q-11 52 -11 129v332q0 16 -7 23q-3 3 -19 9.5t-20 9.5q-8 6 -8 17t7 16.5t29 5.5h131q17 0 26.5 -4t9.5 -18q0 -12 -5.5 -16t-24.5 -9.5t-24 -15t-5 -42.5v-304z
" />
    <glyph glyph-name="V" unicode="V" horiz-adv-x="700" 
d="M671 732q24 0 24 -20q0 -9 -6 -16q-1 -2 -12 -11q-16 -13 -23 -33l-32 -112q-35 -122 -94 -264q-71 -171 -134 -259q-14 -20 -20 -26q-16 -17 -29 -17q-12 0 -20.5 7.5t-17.5 20.5q-43 62 -85 147q-37 74 -68 155q-62 162 -101 331q-8 36 -39 56q-13 8 -13 21q0 8 7.5 14
t24.5 6h143q13 0 16 -1q15 -5 15 -21q0 -6 -5 -12t-16 -11q-22 -11 -24 -13q-14 -11 -14 -37q0 -44 32 -147q25 -79 52.5 -149t58 -132.5t69.5 -128.5q36 56 68 126q25 55 55.5 136.5t52.5 148.5q36 112 36 151q0 27 -32.5 42t-32.5 28q0 12 7.5 16t21.5 4h135z" />
    <glyph glyph-name="W" unicode="W" horiz-adv-x="940" 
d="M898 732q14 0 23.5 -3.5t9.5 -14.5q0 -8 -4.5 -13t-14.5 -13q-16 -12 -21 -25t-9 -39l-42 -204q-29 -133 -50 -204q-31 -103 -76 -199q-11 -24 -14 -28q-10 -15 -25 -15q-14 0 -33 30q-7 12 -22 41q-46 91 -89 205q-35 93 -71 212q-42 -156 -96 -312q-20 -60 -36 -92
q-9 -19 -30 -51q-12 -19 -14 -21q-10 -12 -22 -12q-10 0 -18 10q-8 13 -11 19q-51 100 -99 262q-41 138 -66 275l-17 92q-5 27 -9 35.5t-19.5 18t-18.5 14t-3 12.5q0 14 11.5 17t21.5 3h134q15 0 24 -4t9 -16q0 -11 -29.5 -25t-29.5 -47q0 -45 17 -127q9 -43 31 -129
q16 -63 41 -143q20 -64 47 -143q32 79 51 131q30 80 47.5 138t35.5 137q23 100 23 142q0 28 -35 46q-17 9 -17 23q0 17 24 17h131q14 0 21.5 -4t7.5 -15t-27 -27t-27 -48q0 -43 26 -141q17 -63 43 -143q32 -102 57 -161q17 -39 47 -91q39 101 69 209q22 81 39 163
q9 46 18.5 93t9.5 73q0 33 -32.5 46t-32.5 27q0 12 6 15.5t18 3.5h117z" />
    <glyph glyph-name="X" unicode="X" horiz-adv-x="700" 
d="M317 304q-69 -89 -110.5 -152.5t-41.5 -81.5q0 -15 22.5 -25t22.5 -26q0 -12 -9 -15.5t-23 -3.5h-128q-23 0 -27 1q-15 4 -15 18q0 13 13 20q5 3 25 9q21 8 37 27q7 9 26 39l68 97l110 148q-56 59 -112 138q-47 66 -96 150q-9 16 -17 24t-19 12.5t-19 7.5q-14 8 -14 23
q0 11 10 14.5t23 3.5h140q20 0 27.5 -3.5t7.5 -12.5q0 -10 -16 -19t-18 -11q-7 -7 -7 -19q0 -34 69 -122q35 -44 100 -116l93 115q31 40 42 55q29 42 29 61q0 21 -28.5 32t-28.5 26q0 9 7.5 11.5t18.5 2.5h145q16 0 24 -3t8 -14q0 -10 -5 -15t-17.5 -10t-19 -8.5t-14 -12
t-19.5 -26.5q-4 -6 -32 -49l-159 -207q67 -71 101 -111q53 -63 89 -122l32 -53q14 -22 26.5 -33.5t30 -17.5t24.5 -11.5t7 -17.5q0 -9 -7 -15t-25 -6h-154q-13 0 -23 4t-10 15q0 14 24 24t24 23q0 25 -85 127q-76 91 -115 125z" />
    <glyph glyph-name="Y" unicode="Y" horiz-adv-x="700" 
d="M659 732q18 0 29 -3t11 -15q0 -14 -17 -24t-23 -16t-15 -24q-19 -39 -52 -89q-26 -40 -60 -87q-29 -40 -49.5 -67t-87.5 -113v-223q0 -9 9 -14t24 -9t21 -8t6 -17q0 -11 -7.5 -17t-27.5 -6h-137q-17 0 -26.5 4t-9.5 19q0 10 6.5 15t17.5 9q22 8 28 16t6 27v16v190
q-27 39 -81 114q-50 70 -80 114q-46 69 -73 118q-9 16 -17.5 25.5t-24 16.5t-19.5 10q-10 8 -10 19t8.5 15t22.5 4h148q17 0 25 -3t8 -17q0 -12 -24 -23t-24 -24q0 -19 31 -69q22 -36 47 -68q32 -42 63.5 -87t62.5 -89q36 46 73 95q34 45 70 95q32 45 45.5 70.5t13.5 39.5
q0 24 -27.5 36t-27.5 27q0 11 9.5 14t22.5 3h112z" />
    <glyph glyph-name="Z" unicode="Z" horiz-adv-x="580" 
d="M488 732q24 0 35.5 -4.5t11.5 -24.5q0 -32 -61 -132q-66 -107 -172 -250l-113 -156q-16 -23 -32 -45q-24 -36 -24 -49t8 -15.5t25 -2.5h122q93 0 136 14.5t73 44.5q9 9 18 19q14 12 24 12q14 0 14 -15q0 -23 -4 -52.5t-8 -48.5t-13 -23t-25 -4h-420q-25 0 -39 5
q-22 8 -22 30q0 23 12 47q0 1 26 43l66 96l231 317q23 32 41 62q30 50 30 65q0 12 -12 14.5t-27 2.5h-90q-40 0 -57 -1.5t-46.5 -7.5t-43.5 -11q-30 -11 -55 -41q-6 -8 -12 -15q-6 -5 -12 -5q-17 0 -17 22q1 12 1 16q2 27 4 51.5t8 32.5t20 8.5t18 0.5h381z" />
    <glyph glyph-name="bracketleft" unicode="[" horiz-adv-x="240" 
d="M61 714q0 31 3.5 37t25.5 6h15h62q25 0 29 -1q17 -5 17 -22q0 -11 -8 -16t-22 -9q-37 -13 -45.5 -26.5t-8.5 -48.5v-21v-617v-23q0 -30 8.5 -44t40.5 -26l22 -8q13 -7 13 -19q0 -14 -8.5 -19t-37.5 -5h-62h-14q-22 0 -26 6t-4 37v819z" />
    <glyph glyph-name="backslash" unicode="\" 
d="M83 757h71l306 -757h-69z" />
    <glyph glyph-name="bracketright" unicode="]" horiz-adv-x="240" 
d="M69 -148q-22 0 -29 2q-17 5 -17 22q0 12 12 18q1 1 23 9q32 11 40.5 25t8.5 43v25v617v21q0 36 -8 48.5t-46 26.5q-17 5 -20 7q-10 6 -10 18q0 17 11.5 20t34.5 3h62q33 0 38.5 -4.5t5.5 -38.5v-819q0 -34 -4.5 -38.5t-39.5 -4.5h-62z" />
    <glyph glyph-name="asciicircum" unicode="^" horiz-adv-x="660" 
d="M94 280l206 452h58l208 -452h-64l-174 378l-171 -378h-63z" />
    <glyph glyph-name="underscore" unicode="_" horiz-adv-x="500" 
d="M500 -78v-49h-500v49h500z" />
    <glyph glyph-name="grave" unicode="`" horiz-adv-x="320" 
d="M128 689q8 0 24 -1t19.5 -3t8.5 -9.5t8 -15.5l50 -90q3 -6 6.5 -13.5t3.5 -13.5q0 -15 -17 -15q-7 0 -17 8.5t-13 11.5l-105 102q-9 8 -17 16q-6 8 -6 13q0 13 17 13z" />
    <glyph glyph-name="a" unicode="a" horiz-adv-x="500" 
d="M429 123q0 -16 0.5 -34.5t5.5 -27t11.5 -12t17.5 -7t15 -7.5t4 -13q0 -14 -11.5 -18t-28.5 -4h-44q-24 0 -30.5 8.5t-6.5 29.5v16v25q-60 -94 -167 -94q-71 0 -118 35q-52 39 -52 108q0 45 22 80t61.5 60.5t85.5 36t98 10.5l61 -3q0 53 -41.5 86.5t-97.5 33.5
q-29 0 -45.5 -5.5t-43.5 -21.5q-11 -7 -22 -13t-23 -6q-28 0 -28 25q0 13 14 26q8 7 26 17q28 13 58.5 19.5t63.5 6.5q41 0 80.5 -11.5t72.5 -37t47.5 -62.5t14.5 -85v-161zM309 270q-78 0 -133 -29q-71 -37 -71 -108q0 -41 26 -64q31 -28 72 -28q32 0 60.5 9.5t51.5 29
t31 44t8 62.5v81z" />
    <glyph glyph-name="b" unicode="b" horiz-adv-x="520" 
d="M62 646q0 18 -6 26t-32 18q-16 5 -16 15q0 8 6 13q1 1 15.5 9t43 19t41.5 11q15 0 19 -11.5t4 -30.5v-314q30 37 71.5 58t88.5 21q95 0 148 -70q48 -64 48 -162q0 -56 -14 -100.5t-47.5 -82.5t-82 -59t-99.5 -21q-48 0 -86.5 14t-63 45t-31.5 74t-7 93v435zM137 211
q0 -44 4 -72t21.5 -53.5t43.5 -39.5t59 -14q74 0 114 63q34 53 34 131q0 33 -8.5 69.5t-24 64.5t-40.5 47q-29 22 -59 22q-41 0 -80.5 -25t-63.5 -63v-130z" />
    <glyph glyph-name="c" unicode="c" horiz-adv-x="460" 
d="M251 431q-32 0 -59.5 -18t-45.5 -47.5t-27.5 -68.5t-9.5 -78q0 -72 41.5 -124t112.5 -52q35 0 68.5 14t55.5 41q9 12 13 15q9 8 19 8q17 0 17 -18q0 -13 -12.5 -30t-26.5 -30q-64 -58 -147 -58q-102 0 -161.5 66.5t-59.5 170.5q0 107 68.5 182.5t174.5 75.5q62 0 110 -33
q17 -11 28.5 -27t11.5 -34q0 -14 -10.5 -26.5t-23.5 -12.5q-16 0 -25 8q-11 14 -18 22q-23 29 -39 40q-21 14 -55 14z" />
    <glyph glyph-name="d" unicode="d" horiz-adv-x="520" 
d="M373 660q0 10 -6 16t-30 14q-4 1 -7 3q-9 5 -9 13t6 13q1 1 16 9t40 17q32 12 43 12q16 0 19 -9.5t3 -30.5v-638q0 -11 5 -18t13 -11l12 -6q11 -6 14 -10t3 -11q0 -17 -8.5 -20.5t-15.5 -3.5q-9 1 -14 1h-63q-15 0 -15 62q-60 -77 -152 -77q-96 0 -154.5 70t-58.5 168
q0 106 62 179q66 78 169 78q38 0 68 -11q22 -8 60 -32v223zM373 389q-51 28 -73.5 35t-49.5 7q-73 0 -117 -63q-39 -56 -39 -132q0 -83 34 -134q40 -60 119 -60q28 0 58 11.5t49 30.5q12 12 15.5 24t3.5 31v250z" />
    <glyph glyph-name="e" unicode="e" horiz-adv-x="500" 
d="M113 174q11 -61 57 -96.5t109 -35.5q54 0 96 26l76 58q7 0 13 -5t6 -13q0 -19 -23 -43q-18 -20 -40 -34q-33 -23 -68.5 -34.5t-75.5 -11.5q-100 0 -168 64t-68 164q0 111 77 189t188 78q61 0 102 -26q27 -17 44.5 -44t17.5 -57q0 -50 -37 -87q-30 -30 -83 -50
q-41 -16 -100 -26q-35 -6 -103 -14zM376 355q0 38 -25 57t-64 19q-87 0 -136 -65q-44 -59 -44 -149q109 10 166 30q103 35 103 108z" />
    <glyph glyph-name="f" unicode="f" horiz-adv-x="300" 
d="M173 124q-1 -18 -1 -29q0 -24 6 -36q3 -5 11.5 -9t15.5 -7t12 -7t5 -13q0 -14 -9 -18.5t-24 -4.5h-114q-16 0 -21 3.5t-5 19.5q0 13 17 20l15 7q10 5 13.5 20t3.5 36v18v301h-24h-19q-22 0 -28 6t-6 19q0 15 8 19.5t23 4.5q14 -1 20 -1h26q0 79 2 114.5t15 79.5t41 73
q34 36 79 36q24 0 42.5 -14.5t18.5 -37.5q0 -15 -10.5 -26.5t-25.5 -11.5q-5 0 -17 8q-5 4 -14.5 9.5t-15.5 5.5q-19 0 -29.5 -23.5t-10.5 -81.5v-18v-113h59h16q13 0 20 -5t7 -20t-11 -19t-30 -4h-61v-301z" />
    <glyph glyph-name="g" unicode="g" horiz-adv-x="520" 
d="M388 421q72 -72 72 -171q0 -54 -23 -100.5t-66 -80.5q48 -17 76 -46q34 -35 34 -80q0 -64 -56 -101q-70 -46 -202 -46q-64 0 -113 13q-78 21 -78 66q0 22 17 46.5t37 24.5q13 0 13 -15l-2 -25q0 -31 57 -45q38 -9 83 -9q66 0 104 14q59 22 59 75q0 36 -27 60
q-18 16 -60 35q-39 -14 -77 -14q-98 0 -156 62t-58 162q0 104 64 169t168 65q48 -4 88.5 -5.5t95.5 -1.5q33 0 43 -6t10 -21t-13 -20.5t-33 -5.5q-19 1 -26 1h-31zM380 256q0 74 -31 121q-37 56 -107 56q-68 0 -107 -61q-33 -52 -33 -124q0 -69 30 -116q36 -56 101 -56
q75 0 113 54q34 48 34 126z" />
    <glyph glyph-name="h" unicode="h" horiz-adv-x="560" 
d="M485 123q0 -16 0.5 -34.5t6.5 -29.5q2 -4 8 -8t16 -7.5t15 -7.5t5 -13q0 -10 -7.5 -16.5t-18.5 -6.5h-109q-11 -1 -16 -1q-10 0 -15.5 4.5t-5.5 19.5q0 11 16 20l10 5l12 9q4 6 6 22t2 28v16v197q0 47 -30 76t-84 29q-45 0 -76.5 -15t-67.5 -49v-238q0 -16 0.5 -34.5
t6.5 -29.5q2 -4 8 -7.5t18 -8t16 -8.5t4 -12q0 -11 -7 -17t-19 -6h-117q-11 -1 -16 -1q-10 0 -16 5t-6 19q0 8 4 12t14.5 7.5t16 6t10 8t6.5 22.5t2 29v15v526q0 20 -11 29q-5 4 -25 12q-16 5 -16 15q0 8 6 13q1 1 15.5 9t43 19t40.5 11q13 0 17.5 -9t4.5 -22v-10v-301
q68 65 163 65q79 0 129 -54q24 -27 34 -65q7 -28 7 -74v-164z" />
    <glyph glyph-name="i" unicode="i" horiz-adv-x="240" 
d="M57 612q0 24 16 39t40 15q23 0 38.5 -14.5t15.5 -37.5q0 -26 -15.5 -41.5t-42.5 -15.5q-23 0 -37.5 15.5t-14.5 39.5zM69 0q-16 0 -25 4t-9 18q0 16 20 21.5t27 19.5t7 45v211v19q0 29 -7 42t-35 19q-10 2 -16 5.5t-6 12.5t6 14.5t28 16t30 14t23 11t21 7.5q13 0 18 -7.5
t10 -38.5q2 -12 3 -27t1 -29t-0.5 -27.5t-0.5 -27.5v-200q-1 -17 -1 -28q0 -24 6 -36q2 -4 8 -7.5t17 -7.5t16 -8t5 -14q0 -13 -8.5 -17.5t-24.5 -4.5h-113z" />
    <glyph glyph-name="j" unicode="j" horiz-adv-x="220" 
d="M56 612q0 24 16 39t40 15q23 0 38.5 -14.5t15.5 -37.5q0 -26 -15.5 -41.5t-42.5 -15.5q-24 0 -38 16t-14 39zM165 93q0 -61 -5 -106.5t-21.5 -85t-47.5 -69.5q-37 -37 -74 -37q-17 0 -31.5 10.5t-14.5 26.5q0 18 12 29t30 11q9 0 22 -4t18 -4q24 0 32 28q5 18 5 66v371
q0 20 -1.5 33t-7 20.5t-15 11t-19.5 5.5t-15.5 6t-5.5 13q0 8 5.5 13t39.5 21q18 10 23 12q17 9 26 12.5t15 3.5q12 0 17.5 -6.5t8.5 -28.5t3.5 -56t0.5 -66v-230z" />
    <glyph glyph-name="k" unicode="k" horiz-adv-x="500" 
d="M303 303l-13 -13q47 -44 91 -101q41 -53 77 -114q11 -21 29 -30t18 -23q0 -15 -5 -18.5t-20 -3.5h-114q-13 0 -20.5 4t-7.5 16q0 11 22 25q11 7 11 16q0 28 -53 96q-44 56 -80 88l-86 -70v-51q0 -16 0.5 -34.5t6.5 -29.5q2 -4 8 -8t16 -7q8 -5 13 -9t5 -13q0 -11 -7 -17
t-19 -6h-115q-21 0 -27.5 5.5t-6.5 17.5q0 8 4.5 13t12.5 7.5t15.5 5t11.5 9t5.5 16.5t1.5 26v24v488v20q0 24 -6 37t-26 20.5t-20 16.5t9 14.5t12 6.5q16 9 41 18q31 12 43 12q16 0 19 -9.5t3 -30.5v-484q63 48 103 85q75 68 75 97q0 12 -14.5 23t-14.5 20q0 11 10 13t14 2
h117q13 0 19.5 -2.5t6.5 -13.5q0 -10 -5.5 -15.5t-17.5 -10.5q-30 -13 -50 -32q-26 -28 -42 -45z" />
    <glyph glyph-name="l" unicode="l" horiz-adv-x="220" 
d="M74 650q0 17 -8.5 25.5t-25.5 14t-17 15.5q0 7 8 13t12 8q22 11 42 19q30 12 43 12q15 0 18 -10t3 -30v-594q0 -14 0.5 -28.5t4 -27.5t14.5 -18l11 -6q12 -6 13 -7q5 -5 5 -14q0 -14 -5 -18t-22 -4h-116q-15 0 -21 4t-6 18q0 12 17 21l18 9q7 5 10 18t3 26q-1 21 -1 27
v527z" />
    <glyph glyph-name="m" unicode="m" horiz-adv-x="840" 
d="M770 72q0 -14 18 -22l11 -6q12 -6 13 -7q5 -5 5 -14q0 -14 -5.5 -18.5t-21.5 -4.5h-108q-20 0 -27.5 4t-7.5 19q0 11 17 20l20 8q11 7 11 21v219q0 33 -1.5 50t-11.5 36q-24 48 -83 48q-50 0 -90 -27q-47 -31 -47 -82v-244q0 -14 8 -19q13 -5 23 -10t11 -6q5 -5 5 -14
q0 -15 -5 -19t-23 -4h-109q-19 0 -26 3.5t-7 19.5q0 11 16 20q11 5 23 11q9 8 9 18v209q0 86 -28 117q-24 27 -72 27q-46 0 -86 -27q-47 -32 -47 -82v-244q0 -14 11 -20q15 -6 24 -9.5t12.5 -8t3.5 -11.5q0 -14 -8 -18.5t-24 -4.5h-103q-20 0 -29 4.5t-9 18.5q0 12 16.5 19
t19.5 9q11 7 11 21v246v16q0 29 -4 40q-7 20 -29 26q-6 1 -11 3q-12 5 -12 14q0 11 15 24q11 8 14 11q17 13 23 17q17 11 27 11q23 0 34 -50q2 -11 6 -38q30 41 71.5 64.5t90.5 23.5t83.5 -22t61.5 -66q28 40 71.5 64t92.5 24q75 0 120 -52q21 -24 29 -61t8 -79v-216z" />
    <glyph glyph-name="n" unicode="n" horiz-adv-x="560" 
d="M487 72q0 -11 7 -17q19 -9 24 -11q12 -6 13 -7q5 -5 5 -14q0 -8 -4 -13q-7 -10 -21 -10h-110q-11 -1 -17 -1q-10 0 -15.5 4.5t-5.5 19.5q0 13 17 20q9 3 20.5 8.5t11.5 20.5v259q0 42 -23 65q-29 29 -93 29q-32 0 -59.5 -11t-49 -30.5t-27.5 -40.5t-6 -55v-216
q0 -14 12 -21q3 -1 16 -6t18 -9t5 -13q0 -11 -7 -17t-19 -6h-111q-11 -1 -17 -1q-11 0 -17 4.5t-6 19.5q0 13 18 20q9 3 19 7q14 8 14 22v258v11q0 25 -4 35q-7 16 -25.5 22t-22 9t-3.5 10q0 10 8 19q2 2 15.5 12.5t25.5 19.5q17 12 27 12q21 0 32 -34q3 -8 10 -53
q36 45 78 66t100 21q39 0 73 -12t57 -37.5t30 -62.5t7 -83v-213z" />
    <glyph glyph-name="o" unicode="o" horiz-adv-x="560" 
d="M529 236q0 -107 -73 -179t-180 -72q-102 0 -173.5 72.5t-71.5 174.5t74 175t176 73t175 -71t73 -173zM407 99q21 27 31.5 63t10.5 75q0 82 -43 136q-47 58 -127 58q-81 0 -127 -63q-41 -56 -41 -140q0 -82 41 -135q45 -59 125 -59q81 0 130 65z" />
    <glyph glyph-name="p" unicode="p" horiz-adv-x="580" 
d="M170 -74q0 -16 0.5 -34.5t5.5 -27.5t25 -18q12 -5 15.5 -9.5t3.5 -11.5q0 -21 -25 -21h-120q-17 0 -22.5 3t-5.5 18q0 12 16 21q20 0 26 18.5t6 51.5v406v13q0 32 -6 46q-9 22 -36 25q-19 4 -21 5q-7 4 -7 12q0 18 34 37.5t53 19.5q27 0 41 -31q5 -11 16 -55q38 43 72 62
q42 24 94 24q93 0 156 -71q30 -34 43.5 -77t13.5 -92q0 -53 -13 -96.5t-44.5 -80t-78.5 -57.5t-97 -21q-46 0 -85 18q-30 14 -30 34q0 8 5.5 15.5t12.5 7.5q9 0 21 -7q36 -17 82 -17q32 0 61 15.5t48 42.5t28.5 64t9.5 74q0 80 -32 130q-39 60 -115 60q-62 0 -106 -39
q-26 -23 -35.5 -50t-9.5 -65v-342z" />
    <glyph glyph-name="q" unicode="q" horiz-adv-x="520" 
d="M460 -74q0 -16 0.5 -34.5t5.5 -27.5t25 -18q12 -5 15.5 -9.5t3.5 -11.5q0 -15 -4 -18t-18 -3h-122q-15 0 -21 3.5t-6 17.5q0 11 15 20q23 0 27 20.5t4 40.5v158q-28 -36 -70 -57.5t-88 -21.5q-96 0 -156 72q-56 68 -56 166q0 106 66.5 181.5t171.5 75.5q37 0 70.5 -10
t62.5 -32q17 16 27 25q19 17 32 17q10 0 12.5 -10t2.5 -16v-13v-515zM385 296q0 34 -7 57.5t-28 43.5q-37 35 -92 35q-83 0 -126 -64q-37 -55 -37 -143q0 -76 37 -126q42 -57 115 -57q31 0 58.5 10t51.5 31q18 17 23 34.5t5 49.5v129z" />
    <glyph glyph-name="r" unicode="r" horiz-adv-x="360" 
d="M166 82q0 -19 11 -28q6 -5 19 -9q12 -6 13 -7q5 -5 5 -14q0 -15 -8.5 -19.5t-24.5 -4.5h-107q-21 0 -27.5 5.5t-6.5 18.5q0 12 17 20q16 5 20 8q14 10 14 30v240q0 28 -12.5 46.5t-30.5 26.5q-6 2 -11 4q-12 6 -12 17q0 9 8 18t18 16q14 10 27 18q20 12 29 12
q25 0 40 -52q7 -24 14 -74q18 44 53 81q42 45 81 45q29 0 43 -16t14 -45q0 -14 -4 -23q-7 -14 -19 -14q-8 0 -30 10.5t-31 10.5q-19 0 -42 -22q-18 -17 -32.5 -41.5t-21 -47.5t-6.5 -57v-153z" />
    <glyph glyph-name="s" unicode="s" horiz-adv-x="400" 
d="M241 277q29 -8 49 -16q29 -12 46.5 -27t29.5 -39t12 -49q0 -73 -55.5 -117t-129.5 -44q-62 0 -116 33q-20 12 -35 30q-19 22 -19 42q0 10 7.5 19.5t17.5 9.5t21 -10q4 -4 17 -18q8 -10 16 -19q12 -13 31.5 -21.5t36.5 -13t34 -4.5q40 0 70 21q34 24 34 62
q0 51 -66.5 71.5t-130.5 39.5q-70 33 -70 110q0 31 14 59.5t38 47.5t53 27.5t63 8.5q69 0 124 -32q13 -8 16.5 -17t3.5 -28v-15q0 -13 -2.5 -21.5t-10.5 -8.5q-34 30 -65 51q-34 24 -77 24q-37 0 -65.5 -18.5t-28.5 -53.5q0 -30 27 -48q18 -12 55 -22z" />
    <glyph glyph-name="t" unicode="t" horiz-adv-x="300" 
d="M162 126q0 -43 9 -57q13 -20 53 -20q17 1 27 1q17 0 27 -5t10 -20q0 -12 -9 -18.5t-22 -6.5h-135q-23 0 -29 11t-6 37v377h-34q-26 0 -36 5t-10 24q0 10 10 14.5t23 4.5q20 0 31.5 4t18 19.5t14.5 51t8 52.5q3 29 5 35q7 23 24 23q13 0 17 -11t4 -27v-147h77h17
q15 0 22.5 -4t7.5 -19q0 -17 -11 -21t-32 -4h-81v-299z" />
    <glyph glyph-name="u" unicode="u" horiz-adv-x="520" 
d="M63 336v15q0 16 -1 27.5t-4.5 20.5t-8.5 14t-15.5 10.5t-12.5 7.5q-6 6 -6 14q0 13 33.5 24t53.5 11q22 0 29 -15.5t7 -39.5v-254q0 -32 1.5 -50t11.5 -37.5t33 -31.5t49 -12q34 0 69 14.5t57 38.5q13 14 17.5 29t4.5 33v25v167v23q0 22 -4 33.5t-21 20.5q-9 5 -10 6
q-6 5 -6 12t3.5 11.5t17 10.5t33.5 11t34 5q18 0 23 -14t5 -37v-12v-295q0 -16 0.5 -34.5t6.5 -28.5t22.5 -15.5t20.5 -9.5t4 -12q0 -14 -6 -18t-20 -4h-70q-12 0 -20 19t-8 49q-36 -38 -79 -60.5t-91 -22.5q-35 0 -66.5 14t-52 41t-27.5 60t-7 76v160z" />
    <glyph glyph-name="v" unicode="v" horiz-adv-x="460" 
d="M143 473q21 0 21 -22q0 -10 -22.5 -24.5t-22.5 -45.5q0 -50 46 -154.5t84 -151.5q44 60 76 136q16 43 30 87q20 64 20 86q0 29 -22 45q-11 9 -12 10q-4 5 -4 15q0 12 8 15.5t20 3.5h75q17 0 23 -3t6 -17q0 -6 -5.5 -14t-7.5 -11q-12 -15 -14.5 -21t-9.5 -34l-17 -62
q-16 -59 -41 -116.5t-59 -115.5q-21 -39 -44 -66.5t-36 -27.5q-12 0 -27 16q-7 7 -21 27q-60 86 -95 174q-27 69 -55 190q-5 24 -20.5 36.5t-15.5 22.5t8 16t17 6h117z" />
    <glyph glyph-name="w" unicode="w" horiz-adv-x="720" 
d="M424 473q20 0 20 -19q0 -13 -18.5 -24t-18.5 -34q0 -63 38 -165q34 -91 75 -157q36 48 73 151.5t37 161.5q0 28 -26 46q-13 9 -13 20q0 13 7 16.5t20 3.5h75q13 0 20.5 -3t7.5 -14q0 -6 -5 -14q-11 -17 -15.5 -29t-12.5 -40l-14 -53q-21 -76 -39 -125q-24 -67 -53 -119
q-22 -40 -52 -79q-11 -12 -24 -12q-24 0 -63 73q-45 84 -83 196q-27 -74 -66 -151q-60 -118 -92 -118q-19 0 -50 53q-12 20 -35 69q-29 64 -50 136t-33 148q-3 21 -13 33q-19 24 -19 29q0 10 5 15t21 5h97q15 0 20 -4t5 -19q0 -11 -19 -21t-19 -32q0 -33 13 -86
q8 -33 24 -84.5t28 -79.5q16 -37 40 -73q47 60 82.5 153.5t35.5 167.5q0 22 -23 40q-12 9 -12 20t10.5 14.5t21.5 3.5h92z" />
    <glyph glyph-name="x" unicode="x" horiz-adv-x="500" 
d="M88 366q-24 34 -26 37q-15 17 -35 28q-11 6 -13 9q-5 6 -5 17q0 10 6 13t18 3h117q13 0 18 -2.5t5 -14.5q0 -9 -12 -19t-12 -19q0 -18 41 -67q5 -6 58 -64q28 29 54 63q38 49 38 68q0 9 -15.5 18t-15.5 21q0 8 5 12t21 4h92q14 0 19.5 -3t5.5 -14q0 -12 -17 -21.5
t-23 -14.5t-17 -21l-116 -145l113 -133q21 -28 31.5 -40t17.5 -18.5t17.5 -11.5t20 -9.5t11.5 -8t2 -12.5q0 -13 -7.5 -17t-20.5 -4h-120q-25 0 -25 19q0 9 12.5 20.5t12.5 19.5q0 14 -43 63q-10 11 -56 60l-17 18q-30 -32 -56 -64q-40 -50 -40 -70q0 -15 18.5 -25.5
t18.5 -22.5q0 -11 -7 -14.5t-20 -3.5h-113q-21 0 -21 21q0 8 4.5 13t13.5 8q20 10 26 15t21 26l124 151z" />
    <glyph glyph-name="y" unicode="y" horiz-adv-x="480" 
d="M40 379q-4 27 -5 31q-5 15 -18 24q-6 4 -11.5 9t-5.5 12q0 13 8.5 15.5t17.5 2.5h106q10 0 16.5 -3.5t6.5 -12.5q0 -10 -12 -20q-27 -22 -27 -59q0 -28 13.5 -91t25.5 -96q9 -23 22 -46t28 -39q10 -12 27 -23.5t31 -11.5q30 0 53 36q14 21 27 63q14 39 28.5 98.5
t14.5 96.5q0 54 -32 71q-16 8 -16 22q0 15 22 15h88q22 0 22 -14l-3 -14q-8 -16 -12.5 -26.5t-6.5 -25.5l-14 -85q-12 -74 -43 -158.5t-70 -155.5q-43 -77 -98 -130q-72 -69 -143 -69q-22 0 -38.5 10t-16.5 31q0 14 10 25t25 11q8 0 26 -4t28 -4q45 0 100 60q51 55 66 105
q-17 -6 -25 -8t-21 -2q-40 0 -77 35q-30 28 -51 69.5t-37 98t-23 109.5z" />
    <glyph glyph-name="z" unicode="z" horiz-adv-x="420" 
d="M83 0q-27 0 -39 4q-22 7 -22 29q0 30 78 128q45 54 55 67l119 145q12 15 14 18q8 12 8 21q0 11 -20 11h-13h-82q-32 0 -42 -2q-30 -6 -53 -39q-5 -7 -11.5 -15t-13.5 -8q-12 0 -12 19q0 4 1 12t1 9q4 20 8.5 41t8.5 26.5t17 6t18 0.5h240h18q19 0 30 -5t11 -21
q0 -22 -26 -61q-11 -17 -42 -55l-123 -151l-65 -83q-6 -6 -10.5 -15.5t-4.5 -17.5q0 -14 30 -14h133q20 0 38 21q17 24 23.5 32t11.5 13q10 9 18 9q11 0 11 -13q0 -17 -5 -49t-10.5 -44.5t-16.5 -15.5t-30 -3h-251z" />
    <glyph glyph-name="braceleft" unicode="{" horiz-adv-x="300" 
d="M187 -9q0 -49 17 -76t62 -41q-41 0 -64 4t-46 23q-23 17 -30.5 44t-7.5 66v194v11q0 23 -3.5 36t-17.5 31q-22 26 -60 36q27 3 52 23q20 16 26 40q3 13 3 50v172q0 88 30 120.5t118 32.5q-44 -12 -61.5 -39.5t-17.5 -76.5v-182q0 -63 -15 -92q-19 -37 -74 -48
q52 -13 72 -46q17 -28 17 -86v-196z" />
    <glyph glyph-name="bar" unicode="|" horiz-adv-x="660" 
d="M302 757h63v-757h-63v757z" />
    <glyph glyph-name="braceright" unicode="}" horiz-adv-x="300" 
d="M117 641q0 47 -18 75.5t-61 40.5q87 0 117.5 -32.5t30.5 -120.5v-172q0 -36 4.5 -55t24.5 -35q25 -20 52 -23q-19 -5 -33.5 -13t-28 -24.5t-16.5 -31t-3 -45.5v-194q0 -51 -9.5 -73.5t-28.5 -36.5q-23 -18 -48.5 -22.5t-61.5 -4.5q46 15 62.5 41t16.5 76v196
q0 57 18.5 88t70.5 44q-53 11 -73 48q-16 30 -16 92v182z" />
    <glyph glyph-name="asciitilde" unicode="~" horiz-adv-x="660" 
d="M609 303q-47 -66 -79 -85.5t-70 -19.5q-26 0 -51 7q-11 3 -50 18l-55 20q-35 13 -46 17q-29 10 -49 10q-37 0 -66 -25q-19 -16 -45 -57l-47 31q36 55 64 78q41 33 95 33q42 0 131.5 -35.5t116.5 -35.5q34 0 61 23q18 15 42 51z" />
    <glyph glyph-name="c128" horiz-adv-x="880" 
d="M579 39q70 0 106 57q32 50 32 134q0 71 -39 125q-47 65 -131 65q-51 0 -101 -20q-38 -15 -82 -45v-284q0 -16 18.5 -22t25 -10.5t6.5 -15.5t-7.5 -17t-28.5 -6h-129q-17 0 -26.5 4t-9.5 19q0 12 9 17t17 7q27 8 31 16.5t4 42.5v513q0 39 -7 50.5t-37 11.5q-18 0 -39 -2.5
t-47.5 -8t-45.5 -17.5q-10 -6 -41 -32q-7 -7 -15.5 -14t-16.5 -7q-20 0 -20 23l3 23l6 48q8 38 23 38h555q15 -2 19 -6t9.5 -25.5t9.5 -50.5l4 -26q0 -21 -18 -21q-10 0 -20 8.5t-13 11.5q-26 21 -36 27q-18 12 -40 18.5t-44.5 9.5t-44.5 3q-38 0 -45 -13q-3 -5 -9 -55v-201
q47 30 94 47q57 21 110 21q107 0 179.5 -71.5t72.5 -178.5q0 -101 -71 -173t-170 -72q-22 0 -47 5.5t-43 17t-30 25.5q-16 19 -16 37q0 14 9.5 23.5t23.5 9.5q16 0 40 -32t63 -32z" />
    <glyph glyph-name="c128" unicode="&#x402;" horiz-adv-x="880" 
d="M579 39q70 0 106 57q32 50 32 134q0 71 -39 125q-47 65 -131 65q-51 0 -101 -20q-38 -15 -82 -45v-284q0 -16 18.5 -22t25 -10.5t6.5 -15.5t-7.5 -17t-28.5 -6h-129q-17 0 -26.5 4t-9.5 19q0 12 9 17t17 7q27 8 31 16.5t4 42.5v513q0 39 -7 50.5t-37 11.5q-18 0 -39 -2.5
t-47.5 -8t-45.5 -17.5q-10 -6 -41 -32q-7 -7 -15.5 -14t-16.5 -7q-20 0 -20 23l3 23l6 48q8 38 23 38h555q15 -2 19 -6t9.5 -25.5t9.5 -50.5l4 -26q0 -21 -18 -21q-10 0 -20 8.5t-13 11.5q-26 21 -36 27q-18 12 -40 18.5t-44.5 9.5t-44.5 3q-38 0 -45 -13q-3 -5 -9 -55v-201
q47 30 94 47q57 21 110 21q107 0 179.5 -71.5t72.5 -178.5q0 -101 -71 -173t-170 -72q-22 0 -47 5.5t-43 17t-30 25.5q-16 19 -16 37q0 14 9.5 23.5t23.5 9.5q16 0 40 -32t63 -32z" />
    <glyph glyph-name="c129" horiz-adv-x="560" 
d="M179 71q0 -12 10 -17q15 -4 22 -6t17.5 -5.5t10.5 -19.5q0 -11 -8 -17t-29 -6h-136q-17 0 -26.5 4t-9.5 19q0 10 6.5 15t17.5 9q27 9 31 17t4 42v556q0 9 -11 15l-19.5 6.5t-20.5 8.5q-9 6 -9 18q0 11 7 16.5t29 5.5h443q17 -3 28 -13t16 -33l12 -62q-4 -16 -15 -16
q-7 0 -16.5 9t-12.5 12q-21 22 -48 35q-33 16 -71 16h-164q-31 0 -44.5 -7t-13.5 -20v-582zM261 807q-9 -8 -16.5 -14t-13.5 -6q-17 0 -17 15q0 7 4 15l6 12l50 90q3 8 7.5 15t8 9t18.5 3.5t26 1.5l38 3q17 0 17 -13q0 -7 -10 -16.5t-13 -12.5z" />
    <glyph glyph-name="c129" unicode="&#x403;" horiz-adv-x="560" 
d="M179 71q0 -12 10 -17q15 -4 22 -6t17.5 -5.5t10.5 -19.5q0 -11 -8 -17t-29 -6h-136q-17 0 -26.5 4t-9.5 19q0 10 6.5 15t17.5 9q27 9 31 17t4 42v556q0 9 -11 15l-19.5 6.5t-20.5 8.5q-9 6 -9 18q0 11 7 16.5t29 5.5h443q17 -3 28 -13t16 -33l12 -62q-4 -16 -15 -16
q-7 0 -16.5 9t-12.5 12q-21 22 -48 35q-33 16 -71 16h-164q-31 0 -44.5 -7t-13.5 -20v-582zM261 807q-9 -8 -16.5 -14t-13.5 -6q-17 0 -17 15q0 7 4 15l6 12l50 90q3 8 7.5 15t8 9t18.5 3.5t26 1.5l38 3q17 0 17 -13q0 -7 -10 -16.5t-13 -12.5z" />
    <glyph glyph-name="c141" horiz-adv-x="700" 
d="M181 71q0 -9 11 -15q15 -6 21 -8q15 -6 18 -8q8 -6 8 -17q0 -10 -8 -16.5t-28 -6.5h-138q-17 0 -26.5 4t-9.5 19q0 12 9 17t17 7q26 7 31 17t5 42v556q0 9 -9 14t-20 7.5t-19 5.5q-13 6 -13 21q0 11 7 16.5t28 5.5h137q17 0 26.5 -4t9.5 -18q0 -8 -4 -12.5t-20 -12.5
q-24 -10 -28.5 -16.5t-4.5 -28.5v-14v-291l170 161l91 94q26 30 27 31q18 23 18 37q0 19 -26.5 28.5t-26.5 26.5q0 12 9 15.5t23 3.5h147q20 0 29 -2.5t9 -16.5q0 -10 -5.5 -15.5t-17.5 -10.5q-29 -14 -47 -30q-12 -11 -39 -43l-165 -176l25 -26q68 -74 119 -141
q63 -84 98 -158l15 -30q14 -23 40 -33q17 -7 20 -9q9 -7 9 -20q0 -12 -11 -16.5t-24 -4.5h-130q-22 0 -29 2q-18 5 -18 21q0 11 12 18q28 16 28 30q0 39 -89 158q-77 103 -128 151l-133 -121v-188zM310 807q-9 -8 -16.5 -14t-13.5 -6q-17 0 -17 15q0 7 4 15l6 12l50 90
q3 8 7.5 15t8 9t18.5 3.5t26 1.5l38 3q17 0 17 -13q0 -7 -10 -16.5t-13 -12.5z" />
    <glyph glyph-name="c141" unicode="&#x40c;" horiz-adv-x="700" 
d="M181 71q0 -9 11 -15q15 -6 21 -8q15 -6 18 -8q8 -6 8 -17q0 -10 -8 -16.5t-28 -6.5h-138q-17 0 -26.5 4t-9.5 19q0 12 9 17t17 7q26 7 31 17t5 42v556q0 9 -9 14t-20 7.5t-19 5.5q-13 6 -13 21q0 11 7 16.5t28 5.5h137q17 0 26.5 -4t9.5 -18q0 -8 -4 -12.5t-20 -12.5
q-24 -10 -28.5 -16.5t-4.5 -28.5v-14v-291l170 161l91 94q26 30 27 31q18 23 18 37q0 19 -26.5 28.5t-26.5 26.5q0 12 9 15.5t23 3.5h147q20 0 29 -2.5t9 -16.5q0 -10 -5.5 -15.5t-17.5 -10.5q-29 -14 -47 -30q-12 -11 -39 -43l-165 -176l25 -26q68 -74 119 -141
q63 -84 98 -158l15 -30q14 -23 40 -33q17 -7 20 -9q9 -7 9 -20q0 -12 -11 -16.5t-24 -4.5h-130q-22 0 -29 2q-18 5 -18 21q0 11 12 18q28 16 28 30q0 39 -89 158q-77 103 -128 151l-133 -121v-188zM310 807q-9 -8 -16.5 -14t-13.5 -6q-17 0 -17 15q0 7 4 15l6 12l50 90
q3 8 7.5 15t8 9t18.5 3.5t26 1.5l38 3q17 0 17 -13q0 -7 -10 -16.5t-13 -12.5z" />
    <glyph glyph-name="c142" horiz-adv-x="880" 
d="M364 343v-272q1 -9 10.5 -14t23.5 -9.5t20 -8.5t6 -16q0 -11 -7.5 -17t-28.5 -6h-139q-17 0 -26.5 4t-9.5 19q0 12 9 17t17 7q27 8 31 16.5t4 42.5v513q0 39 -7 50.5t-37 11.5q-18 0 -39 -2.5t-47.5 -8t-45.5 -17.5q-10 -6 -41 -32q-7 -7 -15.5 -14t-16.5 -7
q-20 0 -20 23l3 23l6 48q8 38 23 38h555q15 -2 19 -6t9.5 -25.5t9.5 -50.5l4 -26q0 -21 -18 -21q-10 0 -20 8.5t-13 11.5q-26 21 -36 27q-18 12 -40 18.5t-44.5 9.5t-44.5 3q-38 0 -45 -13q-3 -5 -9 -55v-213q44 28 84 43q66 25 135 25q96 0 160 -50.5t64 -139.5v-207
q0 -7 10 -13t19.5 -9.5t17.5 -5.5q14 -6 14 -21q0 -11 -7.5 -16.5t-29.5 -5.5h-138q-16 0 -25.5 4t-9.5 18q0 11 5 15.5t19 9.5q25 8 30 18t5 41v172q0 59 -46.5 94.5t-123.5 35.5q-59 0 -111 -22q-35 -15 -72 -43z" />
    <glyph glyph-name="c142" unicode="&#x40b;" horiz-adv-x="880" 
d="M364 343v-272q1 -9 10.5 -14t23.5 -9.5t20 -8.5t6 -16q0 -11 -7.5 -17t-28.5 -6h-139q-17 0 -26.5 4t-9.5 19q0 12 9 17t17 7q27 8 31 16.5t4 42.5v513q0 39 -7 50.5t-37 11.5q-18 0 -39 -2.5t-47.5 -8t-45.5 -17.5q-10 -6 -41 -32q-7 -7 -15.5 -14t-16.5 -7
q-20 0 -20 23l3 23l6 48q8 38 23 38h555q15 -2 19 -6t9.5 -25.5t9.5 -50.5l4 -26q0 -21 -18 -21q-10 0 -20 8.5t-13 11.5q-26 21 -36 27q-18 12 -40 18.5t-44.5 9.5t-44.5 3q-38 0 -45 -13q-3 -5 -9 -55v-213q44 28 84 43q66 25 135 25q96 0 160 -50.5t64 -139.5v-207
q0 -7 10 -13t19.5 -9.5t17.5 -5.5q14 -6 14 -21q0 -11 -7.5 -16.5t-29.5 -5.5h-138q-16 0 -25.5 4t-9.5 18q0 11 5 15.5t19 9.5q25 8 30 18t5 41v172q0 59 -46.5 94.5t-123.5 35.5q-59 0 -111 -22q-35 -15 -72 -43z" />
    <glyph glyph-name="c143" horiz-adv-x="800" 
d="M504 0q-42 0 -63 -20q-14 -14 -20 -36t-25 -22q-21 0 -26 21t-21 36q-23 21 -61 21h-222q-17 0 -26.5 4t-9.5 19q0 12 9 17t17 7q27 8 31 16.5t4 42.5v555q0 8 -5 12t-27 11q-8 2 -15 5q-14 6 -14 21q0 11 7.5 16.5t29.5 5.5h138q16 0 25.5 -4t9.5 -18q0 -11 -7 -17
q-3 -3 -21.5 -9.5t-24.5 -14.5t-6 -29v-14v-554q0 -20 24 -20h378q14 0 22.5 15.5t8.5 38.5v556q0 10 -11 16t-22 6q-15 5 -19 8q-9 6 -9 18q0 11 7 16.5t28 5.5h142q16 0 25.5 -4t9.5 -18q0 -11 -6 -16t-25 -10.5t-24.5 -13.5t-5.5 -31v-13v-520v-33q3 -17 35 -26l14 -4
q12 -6 12 -20q0 -10 -8 -16.5t-28 -6.5h-225z" />
    <glyph glyph-name="c143" unicode="&#x40f;" horiz-adv-x="800" 
d="M504 0q-42 0 -63 -20q-14 -14 -20 -36t-25 -22q-21 0 -26 21t-21 36q-23 21 -61 21h-222q-17 0 -26.5 4t-9.5 19q0 12 9 17t17 7q27 8 31 16.5t4 42.5v555q0 8 -5 12t-27 11q-8 2 -15 5q-14 6 -14 21q0 11 7.5 16.5t29.5 5.5h138q16 0 25.5 -4t9.5 -18q0 -11 -7 -17
q-3 -3 -21.5 -9.5t-24.5 -14.5t-6 -29v-14v-554q0 -20 24 -20h378q14 0 22.5 15.5t8.5 38.5v556q0 10 -11 16t-22 6q-15 5 -19 8q-9 6 -9 18q0 11 7 16.5t28 5.5h142q16 0 25.5 -4t9.5 -18q0 -11 -6 -16t-25 -10.5t-24.5 -13.5t-5.5 -31v-13v-520v-33q3 -17 35 -26l14 -4
q12 -6 12 -20q0 -10 -8 -16.5t-28 -6.5h-225z" />
    <glyph glyph-name="c144" horiz-adv-x="560" 
d="M291 425q-39 0 -72.5 -16t-66.5 -48v-238q0 -16 0.5 -34.5t6.5 -29.5q2 -4 8 -7.5t18 -8t16 -8.5t4 -12q0 -11 -7 -17t-19 -6h-117q-11 -1 -16 -1q-10 0 -16 5t-6 19q0 8 4 12t14.5 7.5t16 6t10 8t6.5 22.5t2 29v15v423h-46q-19 0 -26.5 5.5t-7.5 23.5q0 10 10 14.5
t23 4.5h47v55q0 20 -11 29q-5 4 -25 12q-16 5 -16 15q0 8 6 13q1 1 15.5 9t43 19t40.5 11q13 0 17.5 -9t4.5 -22v-10v-122h158h17q15 0 22.5 -4t7.5 -19q0 -17 -11 -21t-32 -4h-162v-131q35 30 76.5 47.5t81.5 17.5q91 0 140.5 -68t49.5 -189t-84 -243q-80 -117 -200 -184
q-4 -2 -10 -2q-16 0 -16 16q0 8 6.5 13.5t9.5 7.5q106 74 165 185q55 103 55 207q0 95 -31 146q-34 56 -104 56z" />
    <glyph glyph-name="c144" unicode="&#x452;" horiz-adv-x="560" 
d="M291 425q-39 0 -72.5 -16t-66.5 -48v-238q0 -16 0.5 -34.5t6.5 -29.5q2 -4 8 -7.5t18 -8t16 -8.5t4 -12q0 -11 -7 -17t-19 -6h-117q-11 -1 -16 -1q-10 0 -16 5t-6 19q0 8 4 12t14.5 7.5t16 6t10 8t6.5 22.5t2 29v15v423h-46q-19 0 -26.5 5.5t-7.5 23.5q0 10 10 14.5
t23 4.5h47v55q0 20 -11 29q-5 4 -25 12q-16 5 -16 15q0 8 6 13q1 1 15.5 9t43 19t40.5 11q13 0 17.5 -9t4.5 -22v-10v-122h158h17q15 0 22.5 -4t7.5 -19q0 -17 -11 -21t-32 -4h-162v-131q35 30 76.5 47.5t81.5 17.5q91 0 140.5 -68t49.5 -189t-84 -243q-80 -117 -200 -184
q-4 -2 -10 -2q-16 0 -16 16q0 8 6.5 13.5t9.5 7.5q106 74 165 185q55 103 55 207q0 95 -31 146q-34 56 -104 56z" />
    <glyph glyph-name="c157" horiz-adv-x="500" 
d="M152 233q63 48 103 85q75 68 75 97q0 12 -14.5 23t-14.5 20q0 11 10 13t14 2h117q13 0 19.5 -2.5t6.5 -13.5q0 -10 -5.5 -15.5t-17.5 -10.5q-30 -13 -50 -32q-26 -28 -42 -45l-50 -51l-13 -13q47 -44 91 -101q41 -53 77 -114q11 -21 29 -30t18 -23q0 -15 -5 -18.5
t-20 -3.5h-114q-13 0 -20.5 4t-7.5 16q0 11 22 25q11 7 11 16q0 28 -53 96q-44 56 -80 88l-86 -70v-51q0 -16 0.5 -34.5t7.5 -31.5t23 -13q8 -5 13 -9t5 -13q0 -11 -7 -17t-19 -6h-115q-21 0 -27.5 5.5t-6.5 17.5q0 8 4.5 13t13.5 8q17 0 26 14q4 6 5.5 16t1.5 26v24v225v26
q0 16 -1.5 25t-5.5 15q-11 14 -26 14q-10 4 -14 8t-4 13q0 14 9 18.5t25 4.5h115q26 0 26 -23q0 -7 -3 -11t-15 -11q-16 0 -24 -15q-4 -8 -5.5 -19t-1.5 -29v-16v-116zM221 548q-9 -8 -16.5 -14t-13.5 -6q-17 0 -17 15q0 7 4 15l6 12l50 90q3 8 7.5 15t8 9t18.5 3.5t26 1.5
l38 3q17 0 17 -13q0 -7 -10 -16.5t-13 -12.5z" />
    <glyph glyph-name="c157" unicode="&#x45c;" horiz-adv-x="500" 
d="M152 233q63 48 103 85q75 68 75 97q0 12 -14.5 23t-14.5 20q0 11 10 13t14 2h117q13 0 19.5 -2.5t6.5 -13.5q0 -10 -5.5 -15.5t-17.5 -10.5q-30 -13 -50 -32q-26 -28 -42 -45l-50 -51l-13 -13q47 -44 91 -101q41 -53 77 -114q11 -21 29 -30t18 -23q0 -15 -5 -18.5
t-20 -3.5h-114q-13 0 -20.5 4t-7.5 16q0 11 22 25q11 7 11 16q0 28 -53 96q-44 56 -80 88l-86 -70v-51q0 -16 0.5 -34.5t7.5 -31.5t23 -13q8 -5 13 -9t5 -13q0 -11 -7 -17t-19 -6h-115q-21 0 -27.5 5.5t-6.5 17.5q0 8 4.5 13t13.5 8q17 0 26 14q4 6 5.5 16t1.5 26v24v225v26
q0 16 -1.5 25t-5.5 15q-11 14 -26 14q-10 4 -14 8t-4 13q0 14 9 18.5t25 4.5h115q26 0 26 -23q0 -7 -3 -11t-15 -11q-16 0 -24 -15q-4 -8 -5.5 -19t-1.5 -29v-16v-116zM221 548q-9 -8 -16.5 -14t-13.5 -6q-17 0 -17 15q0 7 4 15l6 12l50 90q3 8 7.5 15t8 9t18.5 3.5t26 1.5
l38 3q17 0 17 -13q0 -7 -10 -16.5t-13 -12.5z" />
    <glyph glyph-name="c158" horiz-adv-x="560" 
d="M152 546v-131q68 65 163 65q79 0 129 -54q24 -27 34 -65q7 -28 7 -74v-164q0 -16 0.5 -34.5t6.5 -29.5q2 -4 8 -8t16 -7.5t15 -7.5t5 -13q0 -10 -7.5 -16.5t-18.5 -6.5h-109q-11 -1 -16 -1q-10 0 -15.5 4.5t-5.5 19.5q0 11 16 20l10 5l12 9q4 6 6 22t2 28v16v197
q0 47 -30 76t-84 29q-45 0 -76.5 -15t-67.5 -49v-238q0 -16 0.5 -34.5t6.5 -29.5q2 -4 8 -7.5t18 -8t16 -8.5t4 -12q0 -11 -7 -17t-19 -6h-117q-11 -1 -16 -1q-10 0 -16 5t-6 19q0 8 4 12t14.5 7.5t16 6t10 8t6.5 22.5t2 29v15v423h-46q-19 0 -26.5 5.5t-7.5 23.5
q0 10 10 14.5t23 4.5h47v55q0 20 -11 29q-5 4 -25 12q-16 5 -16 15q0 8 6 13q1 1 15.5 9t43 19t40.5 11q13 0 17.5 -9t4.5 -22v-10v-122h158h17q15 0 22.5 -4t7.5 -19q0 -17 -11 -21t-32 -4h-162z" />
    <glyph glyph-name="c158" unicode="&#x45b;" horiz-adv-x="560" 
d="M152 546v-131q68 65 163 65q79 0 129 -54q24 -27 34 -65q7 -28 7 -74v-164q0 -16 0.5 -34.5t6.5 -29.5q2 -4 8 -8t16 -7.5t15 -7.5t5 -13q0 -10 -7.5 -16.5t-18.5 -6.5h-109q-11 -1 -16 -1q-10 0 -15.5 4.5t-5.5 19.5q0 11 16 20l10 5l12 9q4 6 6 22t2 28v16v197
q0 47 -30 76t-84 29q-45 0 -76.5 -15t-67.5 -49v-238q0 -16 0.5 -34.5t6.5 -29.5q2 -4 8 -7.5t18 -8t16 -8.5t4 -12q0 -11 -7 -17t-19 -6h-117q-11 -1 -16 -1q-10 0 -16 5t-6 19q0 8 4 12t14.5 7.5t16 6t10 8t6.5 22.5t2 29v15v423h-46q-19 0 -26.5 5.5t-7.5 23.5
q0 10 10 14.5t23 4.5h47v55q0 20 -11 29q-5 4 -25 12q-16 5 -16 15q0 8 6 13q1 1 15.5 9t43 19t40.5 11q13 0 17.5 -9t4.5 -22v-10v-122h158h17q15 0 22.5 -4t7.5 -19q0 -17 -11 -21t-32 -4h-162z" />
    <glyph glyph-name="nonbreakingspace" unicode="&#xa0;" horiz-adv-x="250" 
 />
    <glyph glyph-name="exclamdown" unicode="&#xa1;" horiz-adv-x="700" 
d="M71 627q-5 23 -13 37t-26 24q-13 9 -14 10q-7 6 -8 13q0 21 32 21h141q14 0 23 -4t9 -15q0 -9 -23 -26t-23 -49q1 -8 1 -13q4 -34 27 -101t43 -106q25 -49 69 -89q48 -44 86 -44q33 0 62 36q20 25 43 74q29 62 46 108q26 70 26 108q0 60 -35 78q-17 9 -17 25
q0 11 7.5 14.5t22.5 3.5h115q15 0 22.5 -2.5t7.5 -13.5q0 -9 -4 -16q-10 -12 -19.5 -23.5t-15.5 -33.5q-31 -108 -80 -223.5t-110 -220.5q-57 -98 -115 -150q-79 -71 -174 -71q-30 0 -51 11t-21 35q2 16 16.5 28t33.5 12q13 0 25 -2q40 -7 46 -7q55 0 116 65q43 46 79 112
q-18 -6 -39 -6q-50 0 -106.5 32t-93.5 87q-31 46 -62 124t-49 158zM501 868q0 -16 -6.5 -31.5t-18.5 -29.5q-41 -52 -112 -52q-29 0 -55 8.5t-46 25t-35 38t-15 41.5q0 9 6 16t15 7q5 0 38.5 -42.5t92.5 -42.5q24 0 49 14t39 35q11 19 12 20q9 11 20 11q16 0 16 -18z" />
    <glyph glyph-name="exclamdown" unicode="&#x40e;" horiz-adv-x="700" 
d="M71 627q-5 23 -13 37t-26 24q-13 9 -14 10q-7 6 -8 13q0 21 32 21h141q14 0 23 -4t9 -15q0 -9 -23 -26t-23 -49q1 -8 1 -13q4 -34 27 -101t43 -106q25 -49 69 -89q48 -44 86 -44q33 0 62 36q20 25 43 74q29 62 46 108q26 70 26 108q0 60 -35 78q-17 9 -17 25
q0 11 7.5 14.5t22.5 3.5h115q15 0 22.5 -2.5t7.5 -13.5q0 -9 -4 -16q-10 -12 -19.5 -23.5t-15.5 -33.5q-31 -108 -80 -223.5t-110 -220.5q-57 -98 -115 -150q-79 -71 -174 -71q-30 0 -51 11t-21 35q2 16 16.5 28t33.5 12q13 0 25 -2q40 -7 46 -7q55 0 116 65q43 46 79 112
q-18 -6 -39 -6q-50 0 -106.5 32t-93.5 87q-31 46 -62 124t-49 158zM501 868q0 -16 -6.5 -31.5t-18.5 -29.5q-41 -52 -112 -52q-29 0 -55 8.5t-46 25t-35 38t-15 41.5q0 9 6 16t15 7q5 0 38.5 -42.5t92.5 -42.5q24 0 49 14t39 35q11 19 12 20q9 11 20 11q16 0 16 -18z" />
    <glyph glyph-name="cent" unicode="&#xa2;" horiz-adv-x="480" 
d="M49 379q-4 27 -5 31q-5 15 -18 24q-6 4 -11.5 9t-5.5 12q0 13 8.5 15.5t17.5 2.5h106q10 0 16.5 -3.5t6.5 -12.5q0 -10 -12 -20q-27 -22 -27 -59q0 -28 13.5 -91t25.5 -96q9 -23 22 -46t28 -39q10 -12 27 -23.5t31 -11.5q30 0 53 36q14 21 27 63q14 39 28.5 98.5
t14.5 96.5q0 54 -32 71q-16 8 -16 22q0 15 22 15h88q22 0 22 -14l-3 -14q-8 -16 -12.5 -26.5t-6.5 -25.5l-14 -85q-12 -74 -43 -158.5t-70 -155.5q-43 -77 -98 -130q-72 -69 -143 -69q-22 0 -38.5 10t-16.5 31q0 14 10 25t25 11q8 0 26 -4t28 -4q45 0 100 60q51 55 66 105
q-17 -6 -25 -8t-21 -2q-40 0 -77 35q-30 28 -51 69.5t-37 98t-23 109.5zM389 646q0 -16 -6.5 -31.5t-18.5 -29.5q-41 -52 -112 -52q-29 0 -55 8.5t-46 25t-35 38t-15 41.5q0 9 6 16t15 7q5 0 38.5 -42.5t92.5 -42.5q24 0 49 14t39 35q11 19 12 20q9 11 20 11q16 0 16 -18z
" />
    <glyph glyph-name="cent" unicode="&#x45e;" horiz-adv-x="480" 
d="M49 379q-4 27 -5 31q-5 15 -18 24q-6 4 -11.5 9t-5.5 12q0 13 8.5 15.5t17.5 2.5h106q10 0 16.5 -3.5t6.5 -12.5q0 -10 -12 -20q-27 -22 -27 -59q0 -28 13.5 -91t25.5 -96q9 -23 22 -46t28 -39q10 -12 27 -23.5t31 -11.5q30 0 53 36q14 21 27 63q14 39 28.5 98.5
t14.5 96.5q0 54 -32 71q-16 8 -16 22q0 15 22 15h88q22 0 22 -14l-3 -14q-8 -16 -12.5 -26.5t-6.5 -25.5l-14 -85q-12 -74 -43 -158.5t-70 -155.5q-43 -77 -98 -130q-72 -69 -143 -69q-22 0 -38.5 10t-16.5 31q0 14 10 25t25 11q8 0 26 -4t28 -4q45 0 100 60q51 55 66 105
q-17 -6 -25 -8t-21 -2q-40 0 -77 35q-30 28 -51 69.5t-37 98t-23 109.5zM389 646q0 -16 -6.5 -31.5t-18.5 -29.5q-41 -52 -112 -52q-29 0 -55 8.5t-46 25t-35 38t-15 41.5q0 9 6 16t15 7q5 0 38.5 -42.5t92.5 -42.5q24 0 49 14t39 35q11 19 12 20q9 11 20 11q16 0 16 -18z
" />
    <glyph glyph-name="sterling" unicode="&#xa3;" horiz-adv-x="480" 
d="M306 662q0 9 -9 14t-25 8q-16 5 -20 7q-9 6 -9 19q0 11 7 16.5t29 5.5h140q17 0 26.5 -4t9.5 -18q0 -11 -6 -16t-24 -10.5t-23.5 -13t-5.5 -28.5v-16v-396q0 -54 -6 -88q-9 -50 -32 -82q-27 -37 -72.5 -56t-95.5 -19q-77 0 -130 39q-59 43 -59 117q0 48 29 85.5t76 37.5
q17 0 30.5 -10.5t13.5 -28.5q0 -16 -10.5 -23.5t-25 -11.5t-24 -7t-17.5 -12q-15 -17 -15 -40q0 -43 39 -70q35 -24 81 -24q31 0 57 11.5t43.5 34.5t22.5 54t5 71v454z" />
    <glyph glyph-name="sterling" unicode="&#x408;" horiz-adv-x="480" 
d="M306 662q0 9 -9 14t-25 8q-16 5 -20 7q-9 6 -9 19q0 11 7 16.5t29 5.5h140q17 0 26.5 -4t9.5 -18q0 -11 -6 -16t-24 -10.5t-23.5 -13t-5.5 -28.5v-16v-396q0 -54 -6 -88q-9 -50 -32 -82q-27 -37 -72.5 -56t-95.5 -19q-77 0 -130 39q-59 43 -59 117q0 48 29 85.5t76 37.5
q17 0 30.5 -10.5t13.5 -28.5q0 -16 -10.5 -23.5t-25 -11.5t-24 -7t-17.5 -12q-15 -17 -15 -40q0 -43 39 -70q35 -24 81 -24q31 0 57 11.5t43.5 34.5t22.5 54t5 71v454z" />
    <glyph glyph-name="currency" unicode="&#xa4;" 
d="M507 625q7 7 15 14t17 7q10 0 20 -10t10 -21t-12 -21l-57 -58q34 -48 48 -84.5t14 -90.5q0 -89 -53 -154l49 -49q13 -12 16.5 -17t3.5 -13q0 -11 -11.5 -22.5t-21.5 -11.5q-8 0 -15 5.5t-16 15.5l-49 48q-35 -27 -78 -42.5t-86 -15.5t-85 15t-77 41l-53 -53
q-16 -15 -17 -15q-7 -5 -14 -5q-11 0 -20.5 9.5t-9.5 20.5q0 9 6 17l14 14l53 53q-30 36 -45.5 81t-15.5 94q0 41 13.5 81t39.5 70l-49 49q-7 6 -13.5 13.5t-6.5 17.5q0 11 9.5 20.5t21.5 9.5q11 0 29 -18q24 -26 49 -51q32 31 75 46.5t90 15.5q90 0 164 -55zM295 556
q-77 0 -131 -56t-54 -134q0 -79 56 -133t134 -54q77 0 132 56t55 133q0 80 -56 134t-136 54z" />
    <glyph glyph-name="yen" unicode="&#xa5;" horiz-adv-x="560" 
d="M395 732q71 0 95 40q3 5 6 11q7 10 16 10q18 0 21 -16l31 -153q4 -16 -15 -16q-7 0 -16.5 9t-12.5 12q-21 22 -48 35q-33 16 -71 16h-164q-31 0 -44.5 -7t-13.5 -20v-582q0 -12 10 -17q15 -4 22 -6t17.5 -5.5t10.5 -19.5q0 -11 -8 -17t-29 -6h-136q-17 0 -26.5 4t-9.5 19
q0 10 6.5 15t17.5 9q27 9 31 17t4 42v556q0 9 -11 15l-19.5 6.5t-20.5 8.5q-9 6 -9 18q0 11 7 16.5t29 5.5h330z" />
    <glyph glyph-name="yen" unicode="&#x490;" horiz-adv-x="560" 
d="M395 732q71 0 95 40q3 5 6 11q7 10 16 10q18 0 21 -16l31 -153q4 -16 -15 -16q-7 0 -16.5 9t-12.5 12q-21 22 -48 35q-33 16 -71 16h-164q-31 0 -44.5 -7t-13.5 -20v-582q0 -12 10 -17q15 -4 22 -6t17.5 -5.5t10.5 -19.5q0 -11 -8 -17t-29 -6h-136q-17 0 -26.5 4t-9.5 19
q0 10 6.5 15t17.5 9q27 9 31 17t4 42v556q0 9 -11 15l-19.5 6.5t-20.5 8.5q-9 6 -9 18q0 11 7 16.5t29 5.5h330z" />
    <glyph glyph-name="brokenbar" unicode="&#xa6;" horiz-adv-x="660" 
d="M302 284h63v-284h-63v284zM302 757h63v-284h-63v284z" />
    <glyph glyph-name="section" unicode="&#xa7;" horiz-adv-x="520" 
d="M182 135q-37 10 -59 20q-34 15 -53 34q-22 22 -35 50.5t-13 59.5q0 42 26 82q21 32 60 66q-50 58 -50 117q0 81 68 134q63 49 146 49q44 0 77 -9.5t76 -31.5q23 -13 27 -21.5t10 -42.5l8 -47q2 -12 2 -20q0 -14 -5.5 -18.5t-15.5 -4.5q-7 0 -11.5 4.5t-8.5 13.5
q-26 58 -59 89q-42 39 -99 39q-53 0 -95 -28q-49 -32 -49 -83q0 -46 45 -78q31 -22 88 -39l65 -19q81 -25 117 -51q56 -41 56 -109q0 -45 -22 -87q-14 -28 -52 -76q26 -32 37.5 -57t11.5 -60q0 -44 -18.5 -83t-53.5 -70q-31 -27 -74 -42.5t-87 -15.5q-36 0 -69 9t-66 26
q-18 9 -23 13q-8 7 -13 23q-8 23 -19 67t-11 59q0 23 22 23q5 0 49 -83.5t131 -83.5q60 0 106 35q50 38 50 97q0 49 -45 84q-33 26 -89 42zM294 192q31 -9 53 -16.5t42 -20.5q12 23 25 48.5t13 49.5q0 20 -8 39.5t-22 33t-36 23.5q-14 6 -40 14l-105 29q-30 8 -40.5 12
t-31.5 17q-23 -26 -32 -44q-12 -23 -12 -53q0 -47 39 -76q28 -21 83 -36z" />
    <glyph glyph-name="dieresis" unicode="&#xa8;" 
d="M143 853q0 25 15.5 41.5t39.5 16.5t39 -16t15 -39q0 -21 -16 -38t-38 -17t-38.5 15.5t-16.5 36.5zM348 853q0 25 15.5 41.5t39.5 16.5t39 -16t15 -39q0 -21 -16 -38t-38 -17t-38.5 15.5t-16.5 36.5zM178 172q0 -68 14 -91q18 -29 74 -29h150q36 0 64.5 14t56.5 41
q16 14 17 15q13 10 20 10q16 0 16 -17q0 -10 -5 -36t-5 -29q-7 -40 -12 -45t-38 -5h-466q-16 0 -25.5 4t-9.5 19q0 10 6.5 15t17.5 9q27 9 31 17t4 42v528q0 22 -6 35t-26 16q-15 4 -19 7q-8 6 -8 18q0 11 7 16.5t29 5.5h443q17 -4 25 -16.5t11 -31.5l8 -61q-2 -16 -17 -16
q-11 0 -17 8q-22 28 -50 45q-33 20 -64 20h-161q-37 0 -51 -17t-14 -61v-182h192q29 0 42 5t25 15q4 4 9 8.5t13 4.5q12 0 16.5 -13.5t4.5 -32.5q-1 -21 -1 -26q0 -26 -1 -29q-4 -15 -23 -15q-9 0 -22.5 13t-24 15.5t-33.5 2.5h-197v-196z" />
    <glyph glyph-name="dieresis" unicode="&#x401;" 
d="M143 853q0 25 15.5 41.5t39.5 16.5t39 -16t15 -39q0 -21 -16 -38t-38 -17t-38.5 15.5t-16.5 36.5zM348 853q0 25 15.5 41.5t39.5 16.5t39 -16t15 -39q0 -21 -16 -38t-38 -17t-38.5 15.5t-16.5 36.5zM178 172q0 -68 14 -91q18 -29 74 -29h150q36 0 64.5 14t56.5 41
q16 14 17 15q13 10 20 10q16 0 16 -17q0 -10 -5 -36t-5 -29q-7 -40 -12 -45t-38 -5h-466q-16 0 -25.5 4t-9.5 19q0 10 6.5 15t17.5 9q27 9 31 17t4 42v528q0 22 -6 35t-26 16q-15 4 -19 7q-8 6 -8 18q0 11 7 16.5t29 5.5h443q17 -4 25 -16.5t11 -31.5l8 -61q-2 -16 -17 -16
q-11 0 -17 8q-22 28 -50 45q-33 20 -64 20h-161q-37 0 -51 -17t-14 -61v-182h192q29 0 42 5t25 15q4 4 9 8.5t13 4.5q12 0 16.5 -13.5t4.5 -32.5q-1 -21 -1 -26q0 -26 -1 -29q-4 -15 -23 -15q-9 0 -22.5 13t-24 15.5t-33.5 2.5h-197v-196z" />
    <glyph glyph-name="copyright" unicode="&#xa9;" horiz-adv-x="840" 
d="M419 747q153 0 260 -111t107 -270q0 -158 -107.5 -269.5t-259.5 -111.5t-259 111t-107 270q0 157 107 269t259 112zM419 703q-132 0 -227 -99t-95 -238t94 -238t228 -99q133 0 228 99t95 238q0 140 -94.5 238.5t-228.5 98.5zM578 267q10 0 18 -8.5t8 -19.5
q0 -12 -7.5 -26t-17.5 -25q-27 -33 -66 -49.5t-83 -16.5q-98 0 -158 75q-56 70 -56 174q0 98 56 170q60 77 152 77q38 0 77.5 -11.5t66.5 -34.5q11 -9 13.5 -25.5t2.5 -39.5q1 -6 1 -20q0 -15 -5 -22.5t-20 -7.5q-11 0 -41 53t-96 53q-67 0 -100 -66q-26 -52 -26 -129
t32 -127q38 -60 108 -60q38 0 62 13.5t46 46.5q9 14 13 18q8 8 20 8z" />
    <glyph glyph-name="ordfeminine" unicode="&#xaa;" horiz-adv-x="720" 
d="M688 142q0 -22 -40 -59q-31 -29 -60 -46q-41 -26 -88.5 -39t-98.5 -13q-152 0 -257 99q-108 102 -108 254q0 164 113.5 286.5t277.5 122.5q100 0 191 -47q22 -12 29 -17q20 -13 26 -21q12 -17 12 -41v-72q0 -14 -5.5 -24t-19.5 -10q-11 0 -19 14q-8 18 -11 24
q-19 39 -31 56q-18 26 -47 47q-56 40 -129 40q-65 0 -114 -25.5t-92 -78.5q-67 -81 -77 -181h360q15 0 23 -8t8 -20q0 -27 -31 -27h-362q0 -54 16.5 -111t45.5 -99q38 -53 94 -78.5t123 -25.5q63 0 112.5 24t98.5 73q8 8 16 17q11 10 22 10q22 0 22 -24z" />
    <glyph glyph-name="ordfeminine" unicode="&#x404;" horiz-adv-x="720" 
d="M688 142q0 -22 -40 -59q-31 -29 -60 -46q-41 -26 -88.5 -39t-98.5 -13q-152 0 -257 99q-108 102 -108 254q0 164 113.5 286.5t277.5 122.5q100 0 191 -47q22 -12 29 -17q20 -13 26 -21q12 -17 12 -41v-72q0 -14 -5.5 -24t-19.5 -10q-11 0 -19 14q-8 18 -11 24
q-19 39 -31 56q-18 26 -47 47q-56 40 -129 40q-65 0 -114 -25.5t-92 -78.5q-67 -81 -77 -181h360q15 0 23 -8t8 -20q0 -27 -31 -27h-362q0 -54 16.5 -111t45.5 -99q38 -53 94 -78.5t123 -25.5q63 0 112.5 24t98.5 73q8 8 16 17q11 10 22 10q22 0 22 -24z" />
    <glyph glyph-name="guillemotleft" unicode="&#xab;" horiz-adv-x="340" 
d="M106 300q-3 -9 -3 -18q0 -10 3 -18l41 -95q4 -10 7.5 -19.5t3.5 -11.5q0 -6 -4.5 -11.5t-10.5 -5.5q-11 0 -24 17l-10 15l-66 97q-4 6 -11 17.5t-7 17.5q0 5 7 15.5t9 14.5l68 105q6 9 14 19.5t19 10.5q16 0 16 -15q0 -6 -5 -18t-6 -16zM254 300q-3 -9 -3 -18
q0 -10 3 -18l41 -95q4 -10 7.5 -19.5t3.5 -11.5q0 -6 -4.5 -11.5t-10.5 -5.5q-11 0 -24 17l-10 15l-66 97q-4 6 -11 17.5t-7 17.5q0 5 7 15.5t9 14.5l68 105q6 9 14 19.5t19 10.5q16 0 16 -15q0 -6 -5 -18t-6 -16z" />
    <glyph glyph-name="logicalnot" unicode="&#xac;" horiz-adv-x="660" 
d="M528 305h-458v63h520v-316h-62v253z" />
    <glyph glyph-name="minus" unicode="&#xad;" horiz-adv-x="380" 
d="M111 587h-16q-10 0 -16 3.5t-6 15.5q0 17 4.5 21.5t19.5 4.5h14h159h15q10 0 16 -3.5t6 -15.5q0 -17 -4.5 -21.5t-19.5 -4.5h-13h-159z" />
    <glyph glyph-name="registered" unicode="&#xae;" horiz-adv-x="800" 
d="M406 747q152 0 259 -111t107 -270q0 -157 -107 -269t-259 -112t-259 111t-107 270q0 157 107 269t259 112zM406 29q134 0 228 99t94 238t-94 238t-228 99t-228 -99t-94 -238t94 -238t228 -99zM321 219q-1 -12 -1 -17q0 -13 16.5 -17.5t21 -10t4.5 -16.5q0 -16 -10.5 -20
t-29.5 -4h-67q-23 0 -28 2q-13 5 -13 24q0 18 17.5 22.5t17.5 47.5v303q0 18 -12 22t-17.5 8t-5.5 16q0 19 9.5 22.5t31.5 3.5h180q33 0 56 -5t44 -21q45 -33 45 -87q0 -40 -28 -75q-24 -30 -64 -50q30 -38 47 -67q21 -35 35 -75q5 -13 10.5 -24.5t15 -17.5t16.5 -10
q5 -5 5 -15q0 -16 -10.5 -20t-28.5 -4h-66h-20q-20 3 -20 24q0 14 21 23q10 4 10 12q0 29 -31 81q-27 45 -53 72l-98 -21v-106zM321 381q72 11 114 29q72 30 72 79q0 43 -43 58q-27 9 -79 9q-7 0 -15 1t-12 1q-21 0 -29 -8t-8 -27v-142z" />
    <glyph glyph-name="macron" unicode="&#xaf;" horiz-adv-x="260" 
d="M86 662q0 9 -11 15l-19.5 6.5t-20.5 8.5q-9 6 -9 18q0 11 7.5 16.5t28.5 5.5h138q16 0 25.5 -4t9.5 -18q0 -11 -7 -17q-3 -3 -22 -9.5t-24.5 -14t-5.5 -29.5v-14v-555q0 -9 11 -15q15 -6 21 -8q15 -6 19 -8q8 -6 8 -17t-7.5 -17t-28.5 -6h-138q-17 0 -26.5 4t-9.5 19
q0 12 9 17t17 7q27 8 31 16.5t4 42.5v556zM-27 853q0 25 15.5 41.5t39.5 16.5t39 -16t15 -39q0 -21 -16 -38t-38 -17t-38.5 15.5t-16.5 36.5zM178 853q0 25 15.5 41.5t39.5 16.5t39 -16t15 -39q0 -21 -16 -38t-38 -17t-38.5 15.5t-16.5 36.5z" />
    <glyph glyph-name="macron" unicode="&#x407;" horiz-adv-x="260" 
d="M86 662q0 9 -11 15l-19.5 6.5t-20.5 8.5q-9 6 -9 18q0 11 7.5 16.5t28.5 5.5h138q16 0 25.5 -4t9.5 -18q0 -11 -7 -17q-3 -3 -22 -9.5t-24.5 -14t-5.5 -29.5v-14v-555q0 -9 11 -15q15 -6 21 -8q15 -6 19 -8q8 -6 8 -17t-7.5 -17t-28.5 -6h-138q-17 0 -26.5 4t-9.5 19
q0 12 9 17t17 7q27 8 31 16.5t4 42.5v556zM-27 853q0 25 15.5 41.5t39.5 16.5t39 -16t15 -39q0 -21 -16 -38t-38 -17t-38.5 15.5t-16.5 36.5zM178 853q0 25 15.5 41.5t39.5 16.5t39 -16t15 -39q0 -21 -16 -38t-38 -17t-38.5 15.5t-16.5 36.5z" />
    <glyph glyph-name="degree" unicode="&#xb0;" horiz-adv-x="400" 
d="M200 450q-62 0 -106 44t-44 106t44 106t106 44t106 -44t44 -106t-44 -106t-106 -44zM200 497q42 0 72.5 29.5t30.5 73.5q0 42 -30.5 72.5t-73.5 30.5q-42 0 -72 -30t-30 -73t30 -73t73 -30z" />
    <glyph glyph-name="plusminus" unicode="&#xb1;" horiz-adv-x="660" 
d="M299 355v165h63v-165h228v-63h-228v-166h-63v166h-229v63h229zM590 63v-63h-520v63h520z" />
    <glyph glyph-name="twosuperior" unicode="&#xb2;" horiz-adv-x="260" 
d="M86 662q0 9 -11 15l-19.5 6.5t-20.5 8.5q-9 6 -9 18q0 11 7.5 16.5t28.5 5.5h138q16 0 25.5 -4t9.5 -18q0 -11 -7 -17q-3 -3 -22 -9.5t-24.5 -14t-5.5 -29.5v-14v-555q0 -9 11 -15q15 -6 21 -8q15 -6 19 -8q8 -6 8 -17t-7.5 -17t-28.5 -6h-138q-17 0 -26.5 4t-9.5 19
q0 12 9 17t17 7q27 8 31 16.5t4 42.5v556z" />
    <glyph glyph-name="twosuperior" unicode="&#x406;" horiz-adv-x="260" 
d="M86 662q0 9 -11 15l-19.5 6.5t-20.5 8.5q-9 6 -9 18q0 11 7.5 16.5t28.5 5.5h138q16 0 25.5 -4t9.5 -18q0 -11 -7 -17q-3 -3 -22 -9.5t-24.5 -14t-5.5 -29.5v-14v-555q0 -9 11 -15q15 -6 21 -8q15 -6 19 -8q8 -6 8 -17t-7.5 -17t-28.5 -6h-138q-17 0 -26.5 4t-9.5 19
q0 12 9 17t17 7q27 8 31 16.5t4 42.5v556z" />
    <glyph glyph-name="threesuperior" unicode="&#xb3;" horiz-adv-x="240" 
d="M57 612q0 24 16 39t40 15q23 0 38.5 -14.5t15.5 -37.5q0 -26 -15.5 -41.5t-42.5 -15.5q-23 0 -37.5 15.5t-14.5 39.5zM69 0q-16 0 -25 4t-9 18q0 16 20 21.5t27 19.5t7 45v211v19q0 29 -7 42t-35 19q-10 2 -16 5.5t-6 12.5t6 14.5t28 16t30 14t23 11t21 7.5q13 0 18 -7.5
t10 -38.5q2 -12 3 -27t1 -29t-0.5 -27.5t-0.5 -27.5v-200q-1 -17 -1 -28q0 -24 6 -36q2 -4 8 -7.5t17 -7.5t16 -8t5 -14q0 -13 -8.5 -17.5t-24.5 -4.5h-113z" />
    <glyph glyph-name="threesuperior" unicode="&#x456;" horiz-adv-x="240" 
d="M57 612q0 24 16 39t40 15q23 0 38.5 -14.5t15.5 -37.5q0 -26 -15.5 -41.5t-42.5 -15.5q-23 0 -37.5 15.5t-14.5 39.5zM69 0q-16 0 -25 4t-9 18q0 16 20 21.5t27 19.5t7 45v211v19q0 29 -7 42t-35 19q-10 2 -16 5.5t-6 12.5t6 14.5t28 16t30 14t23 11t21 7.5q13 0 18 -7.5
t10 -38.5q2 -12 3 -27t1 -29t-0.5 -27.5t-0.5 -27.5v-200q-1 -17 -1 -28q0 -24 6 -36q2 -4 8 -7.5t17 -7.5t16 -8t5 -14q0 -13 -8.5 -17.5t-24.5 -4.5h-113z" />
    <glyph glyph-name="acute" unicode="&#xb4;" horiz-adv-x="399" 
d="M291 473q17 0 28 11q5 5 18 25q9 14 24 14q20 0 23 -20q7 -30 10 -45q11 -50 11 -60q0 -7 -5.5 -13.5t-13.5 -6.5t-12 2q-9 9 -14 12q-15 12 -24 17t-27.5 10t-49 6.5t-75.5 1.5q-14 0 -22 -7t-8 -29v-318q0 -13 10 -21q5 -4 16 -7t18 -7.5t7 -16.5t-9.5 -16.5
t-21.5 -4.5h-117q-13 0 -21 2t-8 19q0 10 7 16t17 7q10 0 18.5 8.5t8.5 20.5v322q0 31 -19 33.5t-25.5 8t-6.5 13.5q0 23 20 23h243z" />
    <glyph glyph-name="acute" unicode="&#x491;" horiz-adv-x="399" 
d="M291 473q17 0 28 11q5 5 18 25q9 14 24 14q20 0 23 -20q7 -30 10 -45q11 -50 11 -60q0 -7 -5.5 -13.5t-13.5 -6.5t-12 2q-9 9 -14 12q-15 12 -24 17t-27.5 10t-49 6.5t-75.5 1.5q-14 0 -22 -7t-8 -29v-318q0 -13 10 -21q5 -4 16 -7t18 -7.5t7 -16.5t-9.5 -16.5
t-21.5 -4.5h-117q-13 0 -21 2t-8 19q0 10 7 16t17 7q10 0 18.5 8.5t8.5 20.5v322q0 31 -19 33.5t-25.5 8t-6.5 13.5q0 23 20 23h243z" />
    <glyph glyph-name="mu" unicode="&#xb5;" horiz-adv-x="520" 
d="M390 347v23q0 22 -4 33.5t-21 20.5q-9 5 -10 6q-6 5 -6 12q0 17 32.5 27.5t55.5 10.5q18 0 23 -14t5 -37v-12v-295q0 -37 2 -53.5t31 -25.5q13 -5 17 -9t4 -12q0 -14 -6 -18t-20 -4h-70q-12 0 -20 19t-8 49q-36 -38 -79 -60.5t-91 -22.5q-42 0 -78 21v-159q0 -25 -9 -34
t-29 -9t-28.5 8.5t-8.5 34.5v489v18q0 32 -4.5 45t-25.5 25q-10 5 -12 7q-6 6 -6 14q0 13 33.5 24t53.5 11q22 0 29 -15.5t7 -39.5v-254q0 -32 1.5 -50t11.5 -37.5t33 -31.5t49 -12q34 0 69 14.5t57 38.5q13 14 17.5 29t4.5 33v25v167z" />
    <glyph glyph-name="paragraph" unicode="&#xb6;" horiz-adv-x="720" 
d="M581 -112v-19q0 -26 -5 -36q-8 -17 -31 -17q-26 0 -31.5 13t-5.5 44v801h-66v-788v-23q0 -23 -5 -32q-8 -15 -30 -15q-25 0 -31.5 17.5t-6.5 47.5v372q-137 13 -231 71q-118 73 -118 198q0 54 20.5 96t63.5 71q32 21 74 32t124 11h349q16 0 27 -11t11 -27
q0 -18 -14 -27.5t-33 -9.5q-12 0 -33.5 3.5t-27.5 4.5v-777zM339 679q-99 0 -153 -29q-71 -38 -71 -129q0 -59 30 -103q27 -40 82 -70q37 -20 73 -32.5t69 -12.5v376h-30z" />
    <glyph glyph-name="periodcentered" unicode="&#xb7;" horiz-adv-x="300" 
d="M96 262q0 23 15.5 37.5t37.5 14.5q23 0 38.5 -15.5t15.5 -39.5q0 -22 -16 -37t-38 -15q-23 0 -38 16t-15 39z" />
    <glyph glyph-name="periodcentered" unicode="&#x2219;" horiz-adv-x="300" 
d="M96 262q0 23 15.5 37.5t37.5 14.5q23 0 38.5 -15.5t15.5 -39.5q0 -22 -16 -37t-38 -15q-23 0 -38 16t-15 39z" />
    <glyph glyph-name="cedilla" unicode="&#xb8;" horiz-adv-x="500" 
d="M93 594q0 25 15.5 41.5t39.5 16.5t39 -16t15 -39q0 -21 -16 -38t-38 -17t-38.5 15.5t-16.5 36.5zM298 594q0 25 15.5 41.5t39.5 16.5t39 -16t15 -39q0 -21 -16 -38t-38 -17t-38.5 15.5t-16.5 36.5zM113 174q11 -61 57 -96.5t109 -35.5q54 0 96 26l76 58q7 0 13 -5t6 -13
q0 -19 -23 -43q-18 -20 -40 -34q-33 -23 -68.5 -34.5t-75.5 -11.5q-100 0 -168 64t-68 164q0 111 77 189t188 78q61 0 102 -26q27 -17 44.5 -44t17.5 -57q0 -50 -37 -87q-30 -30 -83 -50q-41 -16 -100 -26q-35 -6 -103 -14zM376 355q0 38 -25 57t-64 19q-87 0 -136 -65
q-44 -59 -44 -149q109 10 166 30q103 35 103 108z" />
    <glyph glyph-name="cedilla" unicode="&#x451;" horiz-adv-x="500" 
d="M93 594q0 25 15.5 41.5t39.5 16.5t39 -16t15 -39q0 -21 -16 -38t-38 -17t-38.5 15.5t-16.5 36.5zM298 594q0 25 15.5 41.5t39.5 16.5t39 -16t15 -39q0 -21 -16 -38t-38 -17t-38.5 15.5t-16.5 36.5zM113 174q11 -61 57 -96.5t109 -35.5q54 0 96 26l76 58q7 0 13 -5t6 -13
q0 -19 -23 -43q-18 -20 -40 -34q-33 -23 -68.5 -34.5t-75.5 -11.5q-100 0 -168 64t-68 164q0 111 77 189t188 78q61 0 102 -26q27 -17 44.5 -44t17.5 -57q0 -50 -37 -87q-30 -30 -83 -50q-41 -16 -100 -26q-35 -6 -103 -14zM376 355q0 38 -25 57t-64 19q-87 0 -136 -65
q-44 -59 -44 -149q109 10 166 30q103 35 103 108z" />
    <glyph glyph-name="onesuperior" unicode="&#xb9;" horiz-adv-x="1100" 
d="M752 589q0 61 48.5 104.5t110.5 43.5q64 0 110.5 -42.5t46.5 -106.5q0 -65 -47.5 -107.5t-113.5 -42.5q-64 0 -109.5 43.5t-45.5 107.5zM1010 589q0 48 -27 80t-74 32q-48 0 -74 -33t-26 -83q0 -48 26 -79.5t73 -31.5q48 0 75 33t27 82zM1025 362h13q19 0 24.5 -4.5
t5.5 -14.5q0 -8 -6 -12.5t-23 -4.5h-12h-229h-15q-16 0 -24 3t-8 14t9 15t24 4h14h227zM592 609v26q0 19 -2 27.5t-7.5 12.5t-18 7.5t-23.5 7.5q-10 6 -10 20q0 12 8 17t19 5h123q11 0 20 -3.5t9 -19.5q0 -9 -7 -14t-18 -9q-18 -8 -19 -8q-10 -5 -12 -11.5t-2.5 -17.5
t-0.5 -17v-17v-577v-16q0 -22 -5.5 -29.5t-17.5 -7.5q-7 0 -13.5 6.5t-14.5 22.5q-22 43 -64 106q-35 51 -70 103q-47 71 -93 143q-57 86 -98 140q-51 67 -111 131v-539q0 -23 5 -32.5t25 -15.5q18 -4 25 -8t7 -19q0 -23 -26 -23h-136q-26 0 -26 23q0 11 6 16t26 9
t27.5 12.5t7.5 28.5v30v491q0 38 -5 51q-9 23 -33 28t-26 6q-11 5 -11 18q0 9 6 14t23 5h115q22 0 128 -132q50 -62 77 -98l51 -68q36 -48 81 -117q34 -52 81 -129v421z" />
    <glyph glyph-name="onesuperior" unicode="&#x2116;" horiz-adv-x="1100" 
d="M752 589q0 61 48.5 104.5t110.5 43.5q64 0 110.5 -42.5t46.5 -106.5q0 -65 -47.5 -107.5t-113.5 -42.5q-64 0 -109.5 43.5t-45.5 107.5zM1010 589q0 48 -27 80t-74 32q-48 0 -74 -33t-26 -83q0 -48 26 -79.5t73 -31.5q48 0 75 33t27 82zM1025 362h13q19 0 24.5 -4.5
t5.5 -14.5q0 -8 -6 -12.5t-23 -4.5h-12h-229h-15q-16 0 -24 3t-8 14t9 15t24 4h14h227zM592 609v26q0 19 -2 27.5t-7.5 12.5t-18 7.5t-23.5 7.5q-10 6 -10 20q0 12 8 17t19 5h123q11 0 20 -3.5t9 -19.5q0 -9 -7 -14t-18 -9q-18 -8 -19 -8q-10 -5 -12 -11.5t-2.5 -17.5
t-0.5 -17v-17v-577v-16q0 -22 -5.5 -29.5t-17.5 -7.5q-7 0 -13.5 6.5t-14.5 22.5q-22 43 -64 106q-35 51 -70 103q-47 71 -93 143q-57 86 -98 140q-51 67 -111 131v-539q0 -23 5 -32.5t25 -15.5q18 -4 25 -8t7 -19q0 -23 -26 -23h-136q-26 0 -26 23q0 11 6 16t26 9
t27.5 12.5t7.5 28.5v30v491q0 38 -5 51q-9 23 -33 28t-26 6q-11 5 -11 18q0 9 6 14t23 5h115q22 0 128 -132q50 -62 77 -98l51 -68q36 -48 81 -117q34 -52 81 -129v421z" />
    <glyph glyph-name="ordmasculine" unicode="&#xba;" horiz-adv-x="460" 
d="M436 103q0 -13 -12.5 -30t-26.5 -30q-64 -58 -147 -58q-102 0 -161.5 66.5t-59.5 170.5q0 107 68.5 182.5t174.5 75.5q62 0 110 -33q17 -11 28.5 -27t11.5 -34q0 -14 -10.5 -26.5t-23.5 -12.5q-16 0 -25 8q-11 14 -18 22q-23 29 -39 40q-21 14 -55 14q-32 0 -59.5 -18
t-45.5 -48q-13 -21 -23.5 -48t-10.5 -41h191q11 0 17.5 -6.5t6.5 -17.5q0 -22 -24 -22h-194q0 -83 41.5 -135t112.5 -52q35 0 68.5 14t55.5 41q9 12 13 15q9 8 19 8q17 0 17 -18z" />
    <glyph glyph-name="ordmasculine" unicode="&#x454;" horiz-adv-x="460" 
d="M436 103q0 -13 -12.5 -30t-26.5 -30q-64 -58 -147 -58q-102 0 -161.5 66.5t-59.5 170.5q0 107 68.5 182.5t174.5 75.5q62 0 110 -33q17 -11 28.5 -27t11.5 -34q0 -14 -10.5 -26.5t-23.5 -12.5q-16 0 -25 8q-11 14 -18 22q-23 29 -39 40q-21 14 -55 14q-32 0 -59.5 -18
t-45.5 -48q-13 -21 -23.5 -48t-10.5 -41h191q11 0 17.5 -6.5t6.5 -17.5q0 -22 -24 -22h-194q0 -83 41.5 -135t112.5 -52q35 0 68.5 14t55.5 41q9 12 13 15q9 8 19 8q17 0 17 -18z" />
    <glyph glyph-name="guillemotright" unicode="&#xbb;" horiz-adv-x="340" 
d="M229 271q3 8 3 18q0 9 -3 18l-41 95q-4 10 -7.5 19.5t-3.5 11.5q0 6 4.5 11.5t10.5 5.5q9 0 20 -12l14 -20l66 -97q4 -6 11 -17.5t7 -17.5q0 -5 -7 -15.5t-9 -14.5l-68 -105q-7 -10 -14.5 -20t-18.5 -10q-16 0 -16 15q0 6 5 18t6 16zM81 271q3 8 3 18q0 9 -3 18l-41 95
q-4 10 -7.5 19.5t-3.5 11.5q0 6 4.5 11.5t10.5 5.5q9 0 20 -12l14 -20l66 -97q4 -6 11 -17.5t7 -17.5q0 -5 -7 -15.5t-9 -14.5l-68 -105q-7 -10 -14.5 -20t-18.5 -10q-16 0 -16 15q0 6 5 18t6 16z" />
    <glyph glyph-name="onequarter" unicode="&#xbc;" horiz-adv-x="220" 
d="M56 612q0 24 16 39t40 15q23 0 38.5 -14.5t15.5 -37.5q0 -26 -15.5 -41.5t-42.5 -15.5q-24 0 -38 16t-14 39zM165 93q0 -61 -5 -106.5t-21.5 -85t-47.5 -69.5q-37 -37 -74 -37q-17 0 -31.5 10.5t-14.5 26.5q0 18 12 29t30 11q9 0 22 -4t18 -4q24 0 32 28q5 18 5 66v371
q0 20 -1.5 33t-7 20.5t-15 11t-19.5 5.5t-15.5 6t-5.5 13q0 8 5.5 13t39.5 21q18 10 23 12q17 9 26 12.5t15 3.5q12 0 17.5 -6.5t8.5 -28.5t3.5 -56t0.5 -66v-230z" />
    <glyph glyph-name="onequarter" unicode="&#x458;" horiz-adv-x="220" 
d="M56 612q0 24 16 39t40 15q23 0 38.5 -14.5t15.5 -37.5q0 -26 -15.5 -41.5t-42.5 -15.5q-24 0 -38 16t-14 39zM165 93q0 -61 -5 -106.5t-21.5 -85t-47.5 -69.5q-37 -37 -74 -37q-17 0 -31.5 10.5t-14.5 26.5q0 18 12 29t30 11q9 0 22 -4t18 -4q24 0 32 28q5 18 5 66v371
q0 20 -1.5 33t-7 20.5t-15 11t-19.5 5.5t-15.5 6t-5.5 13q0 8 5.5 13t39.5 21q18 10 23 12q17 9 26 12.5t15 3.5q12 0 17.5 -6.5t8.5 -28.5t3.5 -56t0.5 -66v-230z" />
    <glyph glyph-name="onehalf" unicode="&#xbd;" 
d="M360 423q47 -11 75 -21q41 -15 69 -36q71 -57 71 -150q0 -50 -21.5 -93t-61.5 -75.5t-91 -47.5t-108 -15q-54 0 -100.5 12t-82 37.5t-58.5 56.5q-30 40 -30 72q0 14 7 23t20 9q11 0 19 -7t15 -20q24 -42 40 -59.5t37 -31.5q30 -20 68.5 -30t76.5 -10q77 0 131 38
q62 44 62 118q0 86 -116 123q-108 29 -216 59q-116 48 -116 161q0 45 19.5 84t55.5 69.5t81 44t98 13.5q47 0 96.5 -12.5t87.5 -36.5q17 -11 22 -25q1 -5 1.5 -24t1.5 -34q0 -17 -2 -26t-14 -9q-39 45 -89 78q-57 38 -129 38q-56 0 -99.5 -34t-43.5 -89q0 -56 40 -88
q32 -26 93 -41z" />
    <glyph glyph-name="onehalf" unicode="&#x405;" 
d="M360 423q47 -11 75 -21q41 -15 69 -36q71 -57 71 -150q0 -50 -21.5 -93t-61.5 -75.5t-91 -47.5t-108 -15q-54 0 -100.5 12t-82 37.5t-58.5 56.5q-30 40 -30 72q0 14 7 23t20 9q11 0 19 -7t15 -20q24 -42 40 -59.5t37 -31.5q30 -20 68.5 -30t76.5 -10q77 0 131 38
q62 44 62 118q0 86 -116 123q-108 29 -216 59q-116 48 -116 161q0 45 19.5 84t55.5 69.5t81 44t98 13.5q47 0 96.5 -12.5t87.5 -36.5q17 -11 22 -25q1 -5 1.5 -24t1.5 -34q0 -17 -2 -26t-14 -9q-39 45 -89 78q-57 38 -129 38q-56 0 -99.5 -34t-43.5 -89q0 -56 40 -88
q32 -26 93 -41z" />
    <glyph glyph-name="threequarters" unicode="&#xbe;" horiz-adv-x="400" 
d="M241 277q29 -8 49 -16q29 -12 46.5 -27t29.5 -39t12 -49q0 -73 -55.5 -117t-129.5 -44q-62 0 -116 33q-20 12 -35 30q-19 22 -19 42q0 10 7.5 19.5t17.5 9.5t21 -10q4 -4 17 -18q8 -10 16 -19q12 -13 31.5 -21.5t36.5 -13t34 -4.5q40 0 70 21q34 24 34 62
q0 51 -66.5 71.5t-130.5 39.5q-70 33 -70 110q0 31 14 59.5t38 47.5t53 27.5t63 8.5q69 0 124 -32q13 -8 16.5 -17t3.5 -28v-15q0 -13 -2.5 -21.5t-10.5 -8.5q-34 30 -65 51q-34 24 -77 24q-37 0 -65.5 -18.5t-28.5 -53.5q0 -30 27 -48q18 -12 55 -22z" />
    <glyph glyph-name="threequarters" unicode="&#x455;" horiz-adv-x="400" 
d="M241 277q29 -8 49 -16q29 -12 46.5 -27t29.5 -39t12 -49q0 -73 -55.5 -117t-129.5 -44q-62 0 -116 33q-20 12 -35 30q-19 22 -19 42q0 10 7.5 19.5t17.5 9.5t21 -10q4 -4 17 -18q8 -10 16 -19q12 -13 31.5 -21.5t36.5 -13t34 -4.5q40 0 70 21q34 24 34 62
q0 51 -66.5 71.5t-130.5 39.5q-70 33 -70 110q0 31 14 59.5t38 47.5t53 27.5t63 8.5q69 0 124 -32q13 -8 16.5 -17t3.5 -28v-15q0 -13 -2.5 -21.5t-10.5 -8.5q-34 30 -65 51q-34 24 -77 24q-37 0 -65.5 -18.5t-28.5 -53.5q0 -30 27 -48q18 -12 55 -22z" />
    <glyph glyph-name="questiondown" unicode="&#xbf;" horiz-adv-x="240" 
d="M69 0q-16 0 -25 4t-9 18q0 16 20 21.5t27 19.5t7 45v211v19q0 29 -7 42t-35 19q-10 2 -16 5.5t-6 12.5t6 14.5t28 16t30 14t23 11t21 7.5q13 0 18 -7.5t10 -38.5q2 -12 3 -27t1 -29t-0.5 -27.5t-0.5 -27.5v-200q-1 -17 -1 -28q0 -24 6 -36q2 -4 8 -7.5t17 -7.5t16 -8
t5 -14q0 -13 -8.5 -17.5t-24.5 -4.5h-113zM-37 594q0 25 15.5 41.5t39.5 16.5t39 -16t15 -39q0 -21 -16 -38t-38 -17t-38.5 15.5t-16.5 36.5zM168 594q0 25 15.5 41.5t39.5 16.5t39 -16t15 -39q0 -21 -16 -38t-38 -17t-38.5 15.5t-16.5 36.5z" />
    <glyph glyph-name="questiondown" unicode="&#x457;" horiz-adv-x="240" 
d="M69 0q-16 0 -25 4t-9 18q0 16 20 21.5t27 19.5t7 45v211v19q0 29 -7 42t-35 19q-10 2 -16 5.5t-6 12.5t6 14.5t28 16t30 14t23 11t21 7.5q13 0 18 -7.5t10 -38.5q2 -12 3 -27t1 -29t-0.5 -27.5t-0.5 -27.5v-200q-1 -17 -1 -28q0 -24 6 -36q2 -4 8 -7.5t17 -7.5t16 -8
t5 -14q0 -13 -8.5 -17.5t-24.5 -4.5h-113zM-37 594q0 25 15.5 41.5t39.5 16.5t39 -16t15 -39q0 -21 -16 -38t-38 -17t-38.5 15.5t-16.5 36.5zM168 594q0 25 15.5 41.5t39.5 16.5t39 -16t15 -39q0 -21 -16 -38t-38 -17t-38.5 15.5t-16.5 36.5z" />
    <glyph glyph-name="Agrave" unicode="&#xc0;" horiz-adv-x="720" 
d="M298 684q20 36 24 43q16 25 26 25t24 -18q11 -13 32 -50q60 -102 120 -242q55 -128 95 -254l39 -108q6 -15 12 -21t23 -15q13 -6 15 -9.5t2 -12.5q0 -15 -11 -18.5t-29 -3.5h-124q-17 0 -26.5 4t-9.5 19t25.5 25.5t25.5 26.5q0 10 -25.5 87.5t-34.5 93.5h-325l-28 -80
q-18 -55 -18 -77q0 -35 26.5 -50.5t26.5 -26.5q0 -14 -9.5 -18.5t-27.5 -4.5q-17 1 -23 1h-58q-12 -1 -20 -1q-20 0 -32.5 5t-12.5 19q0 13 16 24t21 16.5t10 21.5l36 103q46 131 98 253q59 137 117 243zM485 308q-33 89 -65 160q-39 87 -84 166q-43 -78 -81 -164
q-34 -79 -63 -162h293z" />
    <glyph glyph-name="Agrave" unicode="&#x410;" horiz-adv-x="720" 
d="M298 684q20 36 24 43q16 25 26 25t24 -18q11 -13 32 -50q60 -102 120 -242q55 -128 95 -254l39 -108q6 -15 12 -21t23 -15q13 -6 15 -9.5t2 -12.5q0 -15 -11 -18.5t-29 -3.5h-124q-17 0 -26.5 4t-9.5 19t25.5 25.5t25.5 26.5q0 10 -25.5 87.5t-34.5 93.5h-325l-28 -80
q-18 -55 -18 -77q0 -35 26.5 -50.5t26.5 -26.5q0 -14 -9.5 -18.5t-27.5 -4.5q-17 1 -23 1h-58q-12 -1 -20 -1q-20 0 -32.5 5t-12.5 19q0 13 16 24t21 16.5t10 21.5l36 103q46 131 98 253q59 137 117 243zM485 308q-33 89 -65 160q-39 87 -84 166q-43 -78 -81 -164
q-34 -79 -63 -162h293z" />
    <glyph glyph-name="Aacute" unicode="&#xc1;" horiz-adv-x="680" 
d="M538 732q12 0 27 -17t17 -29l12 -62q0 -16 -15 -16q-7 0 -16.5 9t-12.5 12q-21 22 -48 35q-33 16 -71 16h-217q-16 0 -25.5 -9.5t-9.5 -23.5v-195q105 0 182.5 -10.5t136.5 -39.5q67 -33 107 -83q47 -58 47 -127q0 -53 -25.5 -93.5t-73.5 -64.5q-38 -20 -81.5 -27
t-99.5 -7h-308q-16 0 -25.5 4t-9.5 19q0 13 5.5 16.5t19 7.5t24.5 7q11 5 11 16v556v17q0 20 -5 27t-24.5 14t-20.5 8q-7 5 -7 17q0 11 7.5 17t28.5 6h470zM179 129q0 -31 3.5 -45.5t22.5 -23.5q8 -5 34.5 -7t54.5 -2h26.5t22.5 1q45 0 77.5 6t63 25.5t48.5 51t18 67.5
q0 106 -120 157q-97 41 -251 41v-271z" />
    <glyph glyph-name="Aacute" unicode="&#x411;" horiz-adv-x="680" 
d="M538 732q12 0 27 -17t17 -29l12 -62q0 -16 -15 -16q-7 0 -16.5 9t-12.5 12q-21 22 -48 35q-33 16 -71 16h-217q-16 0 -25.5 -9.5t-9.5 -23.5v-195q105 0 182.5 -10.5t136.5 -39.5q67 -33 107 -83q47 -58 47 -127q0 -53 -25.5 -93.5t-73.5 -64.5q-38 -20 -81.5 -27
t-99.5 -7h-308q-16 0 -25.5 4t-9.5 19q0 13 5.5 16.5t19 7.5t24.5 7q11 5 11 16v556v17q0 20 -5 27t-24.5 14t-20.5 8q-7 5 -7 17q0 11 7.5 17t28.5 6h470zM179 129q0 -31 3.5 -45.5t22.5 -23.5q8 -5 34.5 -7t54.5 -2h26.5t22.5 1q45 0 77.5 6t63 25.5t48.5 51t18 67.5
q0 106 -120 157q-97 41 -251 41v-271z" />
    <glyph glyph-name="Acircumflex" unicode="&#xc2;" horiz-adv-x="680" 
d="M65 0q-16 0 -25.5 4t-9.5 19q0 11 6.5 15.5t18.5 8.5q27 8 32 17.5t5 41.5v556q0 10 -11 15q-1 1 -22 7l-16 4q-13 5 -13 21q0 11 8 17t29 6h325q42 0 75.5 -5.5t64 -25t50.5 -52t20 -71.5q0 -61 -53 -111q-43 -40 -109 -66q87 -13 146 -63q68 -57 68 -140q0 -46 -24 -85
t-63.5 -65t-87 -37t-101.5 -11h-313zM182 379q97 21 129 31q80 24 121 53q29 21 48 49.5t19 60.5q0 72 -65 95q-37 13 -126 13h-55q-36 -2 -53 -12q-11 -7 -14.5 -19.5t-3.5 -30.5v-21v-219zM182 129v-19q0 -19 4 -30.5t17 -18.5t44 -9t53 -2q52 0 92.5 6t77 24t59 49
t22.5 71q0 71 -61 117q-50 38 -128 52l-180 -46v-194z" />
    <glyph glyph-name="Acircumflex" unicode="&#x412;" horiz-adv-x="680" 
d="M65 0q-16 0 -25.5 4t-9.5 19q0 11 6.5 15.5t18.5 8.5q27 8 32 17.5t5 41.5v556q0 10 -11 15q-1 1 -22 7l-16 4q-13 5 -13 21q0 11 8 17t29 6h325q42 0 75.5 -5.5t64 -25t50.5 -52t20 -71.5q0 -61 -53 -111q-43 -40 -109 -66q87 -13 146 -63q68 -57 68 -140q0 -46 -24 -85
t-63.5 -65t-87 -37t-101.5 -11h-313zM182 379q97 21 129 31q80 24 121 53q29 21 48 49.5t19 60.5q0 72 -65 95q-37 13 -126 13h-55q-36 -2 -53 -12q-11 -7 -14.5 -19.5t-3.5 -30.5v-21v-219zM182 129v-19q0 -19 4 -30.5t17 -18.5t44 -9t53 -2q52 0 92.5 6t77 24t59 49
t22.5 71q0 71 -61 117q-50 38 -128 52l-180 -46v-194z" />
    <glyph glyph-name="Atilde" unicode="&#xc3;" horiz-adv-x="560" 
d="M179 71q0 -12 10 -17q15 -4 22 -6t17.5 -5.5t10.5 -19.5q0 -11 -8 -17t-29 -6h-136q-17 0 -26.5 4t-9.5 19q0 10 6.5 15t17.5 9q27 9 31 17t4 42v556q0 9 -11 15l-19.5 6.5t-20.5 8.5q-9 6 -9 18q0 11 7 16.5t29 5.5h443q17 -3 28 -13t16 -33l12 -62q-4 -16 -15 -16
q-7 0 -16.5 9t-12.5 12q-21 22 -48 35q-33 16 -71 16h-164q-31 0 -44.5 -7t-13.5 -20v-582z" />
    <glyph glyph-name="Atilde" unicode="&#x413;" horiz-adv-x="560" 
d="M179 71q0 -12 10 -17q15 -4 22 -6t17.5 -5.5t10.5 -19.5q0 -11 -8 -17t-29 -6h-136q-17 0 -26.5 4t-9.5 19q0 10 6.5 15t17.5 9q27 9 31 17t4 42v556q0 9 -11 15l-19.5 6.5t-20.5 8.5q-9 6 -9 18q0 11 7 16.5t29 5.5h443q17 -3 28 -13t16 -33l12 -62q-4 -16 -15 -16
q-7 0 -16.5 9t-12.5 12q-21 22 -48 35q-33 16 -71 16h-164q-31 0 -44.5 -7t-13.5 -20v-582z" />
    <glyph glyph-name="Adieresis" unicode="&#xc4;" horiz-adv-x="720" 
d="M653 51h11q13 0 19 -6.5t12.5 -34t6.5 -41.5l4 -26q0 -21 -18 -21q-10 0 -20 8.5t-13 11.5q-26 21 -36 27q-18 12 -40 18.5t-44.5 9.5t-44.5 3h-288q-18 0 -39 -2.5t-47.5 -8t-45.5 -17.5q-10 -6 -41 -32q-7 -6 -15.5 -13.5t-16.5 -7.5q-20 0 -20 23l3 23q0 38 8 62
t21 24h12q13 0 25.5 9.5t14.5 18.5l32 112q28 100 73 213q52 133 107 231q6 11 6 19q0 10 -8 17t-26 13q-8 2 -15 5q-14 6 -14 21q0 11 7.5 16.5t29.5 5.5h403q16 0 25.5 -4t9.5 -18q0 -11 -6 -16t-25 -10.5t-24.5 -13.5t-5.5 -31v-13v-546q0 -18 19 -27zM177 50h339
q15 6 19.5 14t4.5 27v15v551q0 10 -10.5 16.5t-22.5 6.5h-115q-23 0 -38 -26q-31 -61 -48 -97q-53 -110 -74 -166q-31 -84 -53 -151q-36 -112 -36 -151q0 -18 8 -28.5t26 -10.5z" />
    <glyph glyph-name="Adieresis" unicode="&#x414;" horiz-adv-x="720" 
d="M653 51h11q13 0 19 -6.5t12.5 -34t6.5 -41.5l4 -26q0 -21 -18 -21q-10 0 -20 8.5t-13 11.5q-26 21 -36 27q-18 12 -40 18.5t-44.5 9.5t-44.5 3h-288q-18 0 -39 -2.5t-47.5 -8t-45.5 -17.5q-10 -6 -41 -32q-7 -6 -15.5 -13.5t-16.5 -7.5q-20 0 -20 23l3 23q0 38 8 62
t21 24h12q13 0 25.5 9.5t14.5 18.5l32 112q28 100 73 213q52 133 107 231q6 11 6 19q0 10 -8 17t-26 13q-8 2 -15 5q-14 6 -14 21q0 11 7.5 16.5t29.5 5.5h403q16 0 25.5 -4t9.5 -18q0 -11 -6 -16t-25 -10.5t-24.5 -13.5t-5.5 -31v-13v-546q0 -18 19 -27zM177 50h339
q15 6 19.5 14t4.5 27v15v551q0 10 -10.5 16.5t-22.5 6.5h-115q-23 0 -38 -26q-31 -61 -48 -97q-53 -110 -74 -166q-31 -84 -53 -151q-36 -112 -36 -151q0 -18 8 -28.5t26 -10.5z" />
    <glyph glyph-name="Aring" unicode="&#xc5;" 
d="M178 172q0 -68 14 -91q18 -29 74 -29h150q36 0 64.5 14t56.5 41q16 14 17 15q13 10 20 10q16 0 16 -17q0 -10 -5 -36t-5 -29q-7 -40 -12 -45t-38 -5h-466q-16 0 -25.5 4t-9.5 19q0 10 6.5 15t17.5 9q27 9 31 17t4 42v528q0 22 -6 35t-26 16q-15 4 -19 7q-8 6 -8 18
q0 11 7 16.5t29 5.5h443q17 -4 25 -16.5t11 -31.5l8 -61q-2 -16 -17 -16q-11 0 -17 8q-22 28 -50 45q-33 20 -64 20h-161q-37 0 -51 -17t-14 -61v-182h192q29 0 42 5t25 15q4 4 9 8.5t13 4.5q12 0 16.5 -13.5t4.5 -32.5q-1 -21 -1 -26q0 -26 -1 -29q-4 -15 -23 -15
q-9 0 -22.5 13t-24 15.5t-33.5 2.5h-197v-196z" />
    <glyph glyph-name="Aring" unicode="&#x415;" 
d="M178 172q0 -68 14 -91q18 -29 74 -29h150q36 0 64.5 14t56.5 41q16 14 17 15q13 10 20 10q16 0 16 -17q0 -10 -5 -36t-5 -29q-7 -40 -12 -45t-38 -5h-466q-16 0 -25.5 4t-9.5 19q0 10 6.5 15t17.5 9q27 9 31 17t4 42v528q0 22 -6 35t-26 16q-15 4 -19 7q-8 6 -8 18
q0 11 7 16.5t29 5.5h443q17 -4 25 -16.5t11 -31.5l8 -61q-2 -16 -17 -16q-11 0 -17 8q-22 28 -50 45q-33 20 -64 20h-161q-37 0 -51 -17t-14 -61v-182h192q29 0 42 5t25 15q4 4 9 8.5t13 4.5q12 0 16.5 -13.5t4.5 -32.5q-1 -21 -1 -26q0 -26 -1 -29q-4 -15 -23 -15
q-9 0 -22.5 13t-24 15.5t-33.5 2.5h-197v-196z" />
    <glyph glyph-name="AE" unicode="&#xc6;" horiz-adv-x="1060" 
d="M463 0q-16 0 -26 4t-10 19q0 11 8 17q3 2 15.5 6.5t23.5 9t11 15.5v188l-106 115q-46 -43 -120 -147q-84 -118 -84 -156q0 -14 26 -29q14 -8 14 -19q0 -15 -13.5 -19t-33.5 -4h-130q-16 0 -25.5 4t-9.5 17q0 12 7 17.5t25.5 12.5t30.5 23q7 9 21 39q37 78 92 157
q52 74 115 142l25 26l-155 176q-26 31 -38 42q-19 17 -48 31q-11 5 -17 10t-6 16t7 15t31 4h147q16 0 24 -3t8 -16q0 -18 -21.5 -27.5t-21.5 -27.5q0 -15 11 -34t24 -34l221 -255v291v14q0 22 -4.5 28.5t-28.5 16.5q-16 8 -17 8q-7 5 -7 17q0 11 7.5 16.5t28.5 5.5h132
q17 0 26.5 -4t9.5 -18q0 -8 -4 -12.5t-20 -12.5q-24 -10 -28.5 -16.5t-4.5 -28.5v-14v-291l221 255q12 14 23.5 34t11.5 34q0 19 -21.5 28.5t-21.5 26.5q0 12 9 15.5t23 3.5h147q20 0 29 -2.5t9 -16.5q0 -10 -5.5 -15.5t-17.5 -10.5q-29 -14 -47 -30q-12 -11 -39 -43
l-155 -176l25 -26q61 -66 115.5 -143.5t91.5 -155.5l15 -30q14 -23 40 -33q10 -4 20 -7q9 -5 9 -18q0 -12 -11.5 -18.5t-23.5 -6.5h-130q-22 0 -29 2q-18 5 -18 21q0 11 12 18q28 16 28 30q0 39 -83 155q-74 104 -121 148l-106 -115v-188q0 -9 11 -15q15 -6 21 -8
q15 -6 18 -8q8 -6 8 -17t-7.5 -17t-28.5 -6h-134z" />
    <glyph glyph-name="AE" unicode="&#x416;" horiz-adv-x="1060" 
d="M463 0q-16 0 -26 4t-10 19q0 11 8 17q3 2 15.5 6.5t23.5 9t11 15.5v188l-106 115q-46 -43 -120 -147q-84 -118 -84 -156q0 -14 26 -29q14 -8 14 -19q0 -15 -13.5 -19t-33.5 -4h-130q-16 0 -25.5 4t-9.5 17q0 12 7 17.5t25.5 12.5t30.5 23q7 9 21 39q37 78 92 157
q52 74 115 142l25 26l-155 176q-26 31 -38 42q-19 17 -48 31q-11 5 -17 10t-6 16t7 15t31 4h147q16 0 24 -3t8 -16q0 -18 -21.5 -27.5t-21.5 -27.5q0 -15 11 -34t24 -34l221 -255v291v14q0 22 -4.5 28.5t-28.5 16.5q-16 8 -17 8q-7 5 -7 17q0 11 7.5 16.5t28.5 5.5h132
q17 0 26.5 -4t9.5 -18q0 -8 -4 -12.5t-20 -12.5q-24 -10 -28.5 -16.5t-4.5 -28.5v-14v-291l221 255q12 14 23.5 34t11.5 34q0 19 -21.5 28.5t-21.5 26.5q0 12 9 15.5t23 3.5h147q20 0 29 -2.5t9 -16.5q0 -10 -5.5 -15.5t-17.5 -10.5q-29 -14 -47 -30q-12 -11 -39 -43
l-155 -176l25 -26q61 -66 115.5 -143.5t91.5 -155.5l15 -30q14 -23 40 -33q10 -4 20 -7q9 -5 9 -18q0 -12 -11.5 -18.5t-23.5 -6.5h-130q-22 0 -29 2q-18 5 -18 21q0 11 12 18q28 16 28 30q0 39 -83 155q-74 104 -121 148l-106 -115v-188q0 -9 11 -15q15 -6 21 -8
q15 -6 18 -8q8 -6 8 -17t-7.5 -17t-28.5 -6h-134z" />
    <glyph glyph-name="Ccedilla" unicode="&#xc7;" horiz-adv-x="620" 
d="M236 366q-16 0 -26.5 5t-10.5 19q0 12 7.5 19.5t25.5 7.5l77 5q52 0 94 30q55 39 55 114q0 65 -41.5 99t-121.5 34q-55 0 -108 -37q-46 -41 -91 -81q-19 0 -21.5 15.5t-3.5 30.5q-2 8 -5.5 18.5t-3.5 15.5q0 8 18 25q33 27 101.5 45.5t126.5 18.5q101 0 170 -47
q75 -51 75 -137q0 -63 -52 -110q-44 -40 -113 -56q83 -14 135 -57q63 -53 63 -136q0 -112 -90 -170q-80 -52 -210 -52q-81 0 -149 34q-83 41 -109 119q-5 17 -5 27q0 26 8.5 27.5t12 1.5h4.5q15 0 24 -13q15 -26 28 -49q27 -47 74.5 -72t105.5 -25q96 0 152.5 43t56.5 125
q0 77 -56 121q-50 39 -124 39z" />
    <glyph glyph-name="Ccedilla" unicode="&#x417;" horiz-adv-x="620" 
d="M236 366q-16 0 -26.5 5t-10.5 19q0 12 7.5 19.5t25.5 7.5l77 5q52 0 94 30q55 39 55 114q0 65 -41.5 99t-121.5 34q-55 0 -108 -37q-46 -41 -91 -81q-19 0 -21.5 15.5t-3.5 30.5q-2 8 -5.5 18.5t-3.5 15.5q0 8 18 25q33 27 101.5 45.5t126.5 18.5q101 0 170 -47
q75 -51 75 -137q0 -63 -52 -110q-44 -40 -113 -56q83 -14 135 -57q63 -53 63 -136q0 -112 -90 -170q-80 -52 -210 -52q-81 0 -149 34q-83 41 -109 119q-5 17 -5 27q0 26 8.5 27.5t12 1.5h4.5q15 0 24 -13q15 -26 28 -49q27 -47 74.5 -72t105.5 -25q96 0 152.5 43t56.5 125
q0 77 -56 121q-50 39 -124 39z" />
    <glyph glyph-name="Egrave" unicode="&#xc8;" horiz-adv-x="800" 
d="M180 71q0 -9 11 -15q15 -6 21 -8q15 -6 19 -8q8 -6 8 -17t-7.5 -17t-28.5 -6h-138q-17 0 -26.5 4t-9.5 19q0 12 9 17t17 7q27 8 31 16.5t4 42.5v555q0 8 -5 12t-27 11q-8 2 -15 5q-14 6 -14 21q0 11 7.5 16.5t29.5 5.5h138q16 0 25.5 -4t9.5 -18q0 -11 -7 -17
q-3 -3 -21.5 -9.5t-24.5 -14.5t-6 -29v-14v-425l433 433v28q0 9 -9.5 14t-23.5 8q-15 5 -19 8q-9 6 -9 18q0 11 7 16.5t28 5.5h142q16 0 25.5 -4t9.5 -18q0 -11 -6 -16t-25 -10.5t-24.5 -13.5t-5.5 -31v-13v-546q0 -19 19 -27l11 -5l9 -5q9 -5 18 -9q4 -4 4 -11
q0 -11 -7.5 -17t-27.5 -6h-141q-17 0 -26.5 4t-9.5 19q0 11 6.5 15.5t18.5 8.5q26 7 31 17t5 42v454l-433 -433v-56z" />
    <glyph glyph-name="Egrave" unicode="&#x418;" horiz-adv-x="800" 
d="M180 71q0 -9 11 -15q15 -6 21 -8q15 -6 19 -8q8 -6 8 -17t-7.5 -17t-28.5 -6h-138q-17 0 -26.5 4t-9.5 19q0 12 9 17t17 7q27 8 31 16.5t4 42.5v555q0 8 -5 12t-27 11q-8 2 -15 5q-14 6 -14 21q0 11 7.5 16.5t29.5 5.5h138q16 0 25.5 -4t9.5 -18q0 -11 -7 -17
q-3 -3 -21.5 -9.5t-24.5 -14.5t-6 -29v-14v-425l433 433v28q0 9 -9.5 14t-23.5 8q-15 5 -19 8q-9 6 -9 18q0 11 7 16.5t28 5.5h142q16 0 25.5 -4t9.5 -18q0 -11 -6 -16t-25 -10.5t-24.5 -13.5t-5.5 -31v-13v-546q0 -19 19 -27l11 -5l9 -5q9 -5 18 -9q4 -4 4 -11
q0 -11 -7.5 -17t-27.5 -6h-141q-17 0 -26.5 4t-9.5 19q0 11 6.5 15.5t18.5 8.5q26 7 31 17t5 42v454l-433 -433v-56z" />
    <glyph glyph-name="Eacute" unicode="&#xc9;" horiz-adv-x="800" 
d="M537 868q0 -16 -6.5 -31.5t-18.5 -29.5q-41 -52 -112 -52q-29 0 -55 8.5t-46 25t-35 38t-15 41.5q0 9 6 16t15 7q5 0 38.5 -42.5t92.5 -42.5q24 0 49 14t39 35q11 19 12 20q9 11 20 11q16 0 16 -18zM180 71q0 -9 11 -15q15 -6 21 -8q15 -6 19 -8q8 -6 8 -17t-7.5 -17
t-28.5 -6h-138q-17 0 -26.5 4t-9.5 19q0 12 9 17t17 7q27 8 31 16.5t4 42.5v555q0 8 -5 12t-27 11q-8 2 -15 5q-14 6 -14 21q0 11 7.5 16.5t29.5 5.5h138q16 0 25.5 -4t9.5 -18q0 -11 -7 -17q-3 -3 -21.5 -9.5t-24.5 -14.5t-6 -29v-14v-425l433 433v28q0 9 -9.5 14t-23.5 8
q-15 5 -19 8q-9 6 -9 18q0 11 7 16.5t28 5.5h142q16 0 25.5 -4t9.5 -18q0 -11 -6 -16t-25 -10.5t-24.5 -13.5t-5.5 -31v-13v-546q0 -19 19 -27l11 -5l9 -5q9 -5 18 -9q4 -4 4 -11q0 -11 -7.5 -17t-27.5 -6h-141q-17 0 -26.5 4t-9.5 19q0 11 6.5 15.5t18.5 8.5q26 7 31 17
t5 42v454l-433 -433v-56z" />
    <glyph glyph-name="Eacute" unicode="&#x419;" horiz-adv-x="800" 
d="M537 868q0 -16 -6.5 -31.5t-18.5 -29.5q-41 -52 -112 -52q-29 0 -55 8.5t-46 25t-35 38t-15 41.5q0 9 6 16t15 7q5 0 38.5 -42.5t92.5 -42.5q24 0 49 14t39 35q11 19 12 20q9 11 20 11q16 0 16 -18zM180 71q0 -9 11 -15q15 -6 21 -8q15 -6 19 -8q8 -6 8 -17t-7.5 -17
t-28.5 -6h-138q-17 0 -26.5 4t-9.5 19q0 12 9 17t17 7q27 8 31 16.5t4 42.5v555q0 8 -5 12t-27 11q-8 2 -15 5q-14 6 -14 21q0 11 7.5 16.5t29.5 5.5h138q16 0 25.5 -4t9.5 -18q0 -11 -7 -17q-3 -3 -21.5 -9.5t-24.5 -14.5t-6 -29v-14v-425l433 433v28q0 9 -9.5 14t-23.5 8
q-15 5 -19 8q-9 6 -9 18q0 11 7 16.5t28 5.5h142q16 0 25.5 -4t9.5 -18q0 -11 -6 -16t-25 -10.5t-24.5 -13.5t-5.5 -31v-13v-546q0 -19 19 -27l11 -5l9 -5q9 -5 18 -9q4 -4 4 -11q0 -11 -7.5 -17t-27.5 -6h-141q-17 0 -26.5 4t-9.5 19q0 11 6.5 15.5t18.5 8.5q26 7 31 17
t5 42v454l-433 -433v-56z" />
    <glyph glyph-name="Ecircumflex" unicode="&#xca;" horiz-adv-x="700" 
d="M181 71q0 -9 11 -15q15 -6 21 -8q15 -6 18 -8q8 -6 8 -17q0 -10 -8 -16.5t-28 -6.5h-138q-17 0 -26.5 4t-9.5 19q0 12 9 17t17 7q26 7 31 17t5 42v556q0 9 -9 14t-20 7.5t-19 5.5q-13 6 -13 21q0 11 7 16.5t28 5.5h137q17 0 26.5 -4t9.5 -18q0 -8 -4 -12.5t-20 -12.5
q-24 -10 -28.5 -16.5t-4.5 -28.5v-14v-291l170 161l91 94q26 30 27 31q18 23 18 37q0 19 -26.5 28.5t-26.5 26.5q0 12 9 15.5t23 3.5h147q20 0 29 -2.5t9 -16.5q0 -10 -5.5 -15.5t-17.5 -10.5q-29 -14 -47 -30q-12 -11 -39 -43l-165 -176l25 -26q68 -74 119 -141
q63 -84 98 -158l15 -30q14 -23 40 -33q17 -7 20 -9q9 -7 9 -20q0 -12 -11 -16.5t-24 -4.5h-130q-22 0 -29 2q-18 5 -18 21q0 11 12 18q28 16 28 30q0 39 -89 158q-77 103 -128 151l-133 -121v-188z" />
    <glyph glyph-name="Ecircumflex" unicode="&#x41a;" horiz-adv-x="700" 
d="M181 71q0 -9 11 -15q15 -6 21 -8q15 -6 18 -8q8 -6 8 -17q0 -10 -8 -16.5t-28 -6.5h-138q-17 0 -26.5 4t-9.5 19q0 12 9 17t17 7q26 7 31 17t5 42v556q0 9 -9 14t-20 7.5t-19 5.5q-13 6 -13 21q0 11 7 16.5t28 5.5h137q17 0 26.5 -4t9.5 -18q0 -8 -4 -12.5t-20 -12.5
q-24 -10 -28.5 -16.5t-4.5 -28.5v-14v-291l170 161l91 94q26 30 27 31q18 23 18 37q0 19 -26.5 28.5t-26.5 26.5q0 12 9 15.5t23 3.5h147q20 0 29 -2.5t9 -16.5q0 -10 -5.5 -15.5t-17.5 -10.5q-29 -14 -47 -30q-12 -11 -39 -43l-165 -176l25 -26q68 -74 119 -141
q63 -84 98 -158l15 -30q14 -23 40 -33q17 -7 20 -9q9 -7 9 -20q0 -12 -11 -16.5t-24 -4.5h-130q-22 0 -29 2q-18 5 -18 21q0 11 12 18q28 16 28 30q0 39 -89 158q-77 103 -128 151l-133 -121v-188z" />
    <glyph glyph-name="Edieresis" unicode="&#xcb;" horiz-adv-x="700" 
d="M246 635q6 11 6 19q0 10 -8 17t-26 13q-8 2 -15 5q-14 6 -14 21q0 11 7.5 16.5t29.5 5.5h403q16 0 25.5 -4t9.5 -18q0 -11 -6 -16t-25 -10.5t-24.5 -13.5t-5.5 -31v-13v-546q0 -18 19 -27l20 -10q9 -5 18 -9q4 -4 4 -11q0 -11 -7.5 -17t-27.5 -6h-141q-17 0 -26.5 4
t-9.5 19q0 11 6.5 15.5t18.5 8.5q26 7 31 17t5 42v551q0 10 -10.5 16.5t-22.5 6.5h-115q-14 0 -21 -4.5t-17 -21.5q-31 -61 -48 -97q-53 -110 -74 -166q-31 -84 -53 -151q-36 -112 -36 -151q0 -27 32.5 -42t32.5 -28q0 -12 -7.5 -16t-21.5 -4h-135q-16 0 -20 3t-4 11
q0 9 5 17.5t13 15.5q16 13 23 33l32 112q28 100 73 213q52 133 107 231z" />
    <glyph glyph-name="Edieresis" unicode="&#x41b;" horiz-adv-x="700" 
d="M246 635q6 11 6 19q0 10 -8 17t-26 13q-8 2 -15 5q-14 6 -14 21q0 11 7.5 16.5t29.5 5.5h403q16 0 25.5 -4t9.5 -18q0 -11 -6 -16t-25 -10.5t-24.5 -13.5t-5.5 -31v-13v-546q0 -18 19 -27l20 -10q9 -5 18 -9q4 -4 4 -11q0 -11 -7.5 -17t-27.5 -6h-141q-17 0 -26.5 4
t-9.5 19q0 11 6.5 15.5t18.5 8.5q26 7 31 17t5 42v551q0 10 -10.5 16.5t-22.5 6.5h-115q-14 0 -21 -4.5t-17 -21.5q-31 -61 -48 -97q-53 -110 -74 -166q-31 -84 -53 -151q-36 -112 -36 -151q0 -27 32.5 -42t32.5 -28q0 -12 -7.5 -16t-21.5 -4h-135q-16 0 -20 3t-4 11
q0 9 5 17.5t13 15.5q16 13 23 33l32 112q28 100 73 213q52 133 107 231z" />
    <glyph glyph-name="Igrave" unicode="&#xcc;" horiz-adv-x="860" 
d="M533 460l97 230q8 22 12 28q9 14 25 14h129q15 0 21.5 -4t6.5 -21q0 -9 -7.5 -14t-24.5 -9.5t-23 -8.5q-13 -9 -13 -42v-562q0 -8 5.5 -12t28.5 -10t24 -7q9 -5 9 -19q0 -11 -7.5 -17t-28.5 -6h-135q-16 0 -25.5 4t-9.5 19q0 11 5 15t18 9q19 8 24 13t5 18q-1 16 -1 28
v524l-144 -336l-75 -155q-10 -20 -14 -26q-12 -18 -23 -18t-19 10q-3 3 -11 20l-107 229l-98 242l-20 50v-571q2 -12 13.5 -17.5t27.5 -11t18 -6.5q10 -6 10 -20q0 -10 -8 -15t-19 -5h-120q-20 0 -28 3t-8 19q0 13 10 19q3 2 14 6q22 9 26.5 16.5t4.5 33.5v552
q0 32 -32.5 39t-32.5 22q0 11 7.5 16.5t19.5 5.5h133q16 0 27 -19q10 -25 14 -34l188 -449z" />
    <glyph glyph-name="Igrave" unicode="&#x41c;" horiz-adv-x="860" 
d="M533 460l97 230q8 22 12 28q9 14 25 14h129q15 0 21.5 -4t6.5 -21q0 -9 -7.5 -14t-24.5 -9.5t-23 -8.5q-13 -9 -13 -42v-562q0 -8 5.5 -12t28.5 -10t24 -7q9 -5 9 -19q0 -11 -7.5 -17t-28.5 -6h-135q-16 0 -25.5 4t-9.5 19q0 11 5 15t18 9q19 8 24 13t5 18q-1 16 -1 28
v524l-144 -336l-75 -155q-10 -20 -14 -26q-12 -18 -23 -18t-19 10q-3 3 -11 20l-107 229l-98 242l-20 50v-571q2 -12 13.5 -17.5t27.5 -11t18 -6.5q10 -6 10 -20q0 -10 -8 -15t-19 -5h-120q-20 0 -28 3t-8 19q0 13 10 19q3 2 14 6q22 9 26.5 16.5t4.5 33.5v552
q0 32 -32.5 39t-32.5 22q0 11 7.5 16.5t19.5 5.5h133q16 0 27 -19q10 -25 14 -34l188 -449z" />
    <glyph glyph-name="Iacute" unicode="&#xcd;" horiz-adv-x="800" 
d="M180 71q0 -9 11 -15q15 -6 21 -8q15 -6 19 -8q8 -6 8 -17t-7.5 -17t-28.5 -6h-138q-17 0 -26.5 4t-9.5 19q0 12 9 17t17 7q27 8 31 16.5t4 42.5v555q0 8 -5 12t-27 11q-8 2 -15 5q-14 6 -14 21q0 11 7.5 16.5t29.5 5.5h138q16 0 25.5 -4t9.5 -18q0 -11 -7 -17
q-3 -3 -21.5 -9.5t-24.5 -14.5t-6 -29v-14v-202h433v238q0 9 -9.5 14t-23.5 8q-15 5 -19 8q-9 6 -9 18q0 11 7 16.5t28 5.5h142q16 0 25.5 -4t9.5 -18q0 -11 -6 -16t-25 -10.5t-24.5 -13.5t-5.5 -31v-13v-546q0 -19 19 -27l11 -5l9 -5q9 -5 18 -9q4 -4 4 -11q0 -11 -7.5 -17
t-27.5 -6h-141q-17 0 -26.5 4t-9.5 19q0 11 6.5 15.5t18.5 8.5q26 7 31 17t5 42v266h-433v-301z" />
    <glyph glyph-name="Iacute" unicode="&#x41d;" horiz-adv-x="800" 
d="M180 71q0 -9 11 -15q15 -6 21 -8q15 -6 19 -8q8 -6 8 -17t-7.5 -17t-28.5 -6h-138q-17 0 -26.5 4t-9.5 19q0 12 9 17t17 7q27 8 31 16.5t4 42.5v555q0 8 -5 12t-27 11q-8 2 -15 5q-14 6 -14 21q0 11 7.5 16.5t29.5 5.5h138q16 0 25.5 -4t9.5 -18q0 -11 -7 -17
q-3 -3 -21.5 -9.5t-24.5 -14.5t-6 -29v-14v-202h433v238q0 9 -9.5 14t-23.5 8q-15 5 -19 8q-9 6 -9 18q0 11 7 16.5t28 5.5h142q16 0 25.5 -4t9.5 -18q0 -11 -6 -16t-25 -10.5t-24.5 -13.5t-5.5 -31v-13v-546q0 -19 19 -27l11 -5l9 -5q9 -5 18 -9q4 -4 4 -11q0 -11 -7.5 -17
t-27.5 -6h-141q-17 0 -26.5 4t-9.5 19q0 11 6.5 15.5t18.5 8.5q26 7 31 17t5 42v266h-433v-301z" />
    <glyph glyph-name="Icircumflex" unicode="&#xce;" horiz-adv-x="800" 
d="M135 91q-50 53 -74 122.5t-24 148.5q0 163 98.5 274t259.5 111q75 0 143 -28.5t119 -81.5t76 -123.5t25 -150.5q0 -163 -103.5 -270.5t-266.5 -107.5q-74 0 -138 26.5t-115 79.5zM594 143q31 43 46.5 100t15.5 115q0 64 -15 125t-49 107.5t-86.5 75t-110.5 28.5
q-61 0 -113 -31.5t-86 -85.5q-30 -46 -43.5 -99.5t-13.5 -114.5q0 -62 14.5 -118t47.5 -104t83 -76t109 -28q61 0 112 27.5t89 78.5z" />
    <glyph glyph-name="Icircumflex" unicode="&#x41e;" horiz-adv-x="800" 
d="M135 91q-50 53 -74 122.5t-24 148.5q0 163 98.5 274t259.5 111q75 0 143 -28.5t119 -81.5t76 -123.5t25 -150.5q0 -163 -103.5 -270.5t-266.5 -107.5q-74 0 -138 26.5t-115 79.5zM594 143q31 43 46.5 100t15.5 115q0 64 -15 125t-49 107.5t-86.5 75t-110.5 28.5
q-61 0 -113 -31.5t-86 -85.5q-30 -46 -43.5 -99.5t-13.5 -114.5q0 -62 14.5 -118t47.5 -104t83 -76t109 -28q61 0 112 27.5t89 78.5z" />
    <glyph glyph-name="Idieresis" unicode="&#xcf;" horiz-adv-x="800" 
d="M215 680q-24 -8 -29.5 -14.5t-5.5 -26.5v-13v-555q0 -9 11 -15q15 -6 21 -8q15 -6 19 -8q8 -6 8 -17t-7.5 -17t-28.5 -6h-138q-17 0 -26.5 4t-9.5 19q0 12 9 17t17 7q27 8 31 16.5t4 42.5v555q0 8 -5 12t-27 11q-8 2 -15 5q-14 6 -14 21q0 11 7.5 16.5t29.5 5.5h663
q16 0 25.5 -4t9.5 -18q0 -11 -6 -16t-25 -10.5t-24.5 -13.5t-5.5 -31v-13v-546q0 -19 19 -27l11 -5l9 -5q9 -5 18 -9q4 -4 4 -11q0 -11 -7.5 -17t-27.5 -6h-141q-17 0 -26.5 4t-9.5 19q0 11 6.5 15.5t18.5 8.5q26 7 31 17t5 42v551q0 10 -10.5 16.5t-22.5 6.5h-365z" />
    <glyph glyph-name="Idieresis" unicode="&#x41f;" horiz-adv-x="800" 
d="M215 680q-24 -8 -29.5 -14.5t-5.5 -26.5v-13v-555q0 -9 11 -15q15 -6 21 -8q15 -6 19 -8q8 -6 8 -17t-7.5 -17t-28.5 -6h-138q-17 0 -26.5 4t-9.5 19q0 12 9 17t17 7q27 8 31 16.5t4 42.5v555q0 8 -5 12t-27 11q-8 2 -15 5q-14 6 -14 21q0 11 7.5 16.5t29.5 5.5h663
q16 0 25.5 -4t9.5 -18q0 -11 -6 -16t-25 -10.5t-24.5 -13.5t-5.5 -31v-13v-546q0 -19 19 -27l11 -5l9 -5q9 -5 18 -9q4 -4 4 -11q0 -11 -7.5 -17t-27.5 -6h-141q-17 0 -26.5 4t-9.5 19q0 11 6.5 15.5t18.5 8.5q26 7 31 17t5 42v551q0 10 -10.5 16.5t-22.5 6.5h-365z" />
    <glyph glyph-name="Eth" unicode="&#xd0;" horiz-adv-x="620" 
d="M179 70q0 -9 10 -14t25 -8q17 -5 21 -7q9 -6 9 -18q0 -10 -8 -16.5t-28 -6.5h-140q-17 0 -26.5 4t-9.5 19q0 11 5.5 15t18.5 9q22 8 27.5 15.5t5.5 27.5v16v556q0 9 -11 15q-3 1 -19.5 6t-20.5 8q-9 6 -9 18q0 11 7.5 17t27.5 6h260q74 0 110.5 -8t70.5 -26
q99 -50 99 -158q0 -68 -46 -126q-40 -51 -108 -84q-57 -28 -126 -39t-145 -11v-210zM179 332q121 0 208 40q115 53 115 158q0 36 -17.5 67.5t-47 50.5t-66 25.5t-76.5 6.5q-26 0 -50 -2.5t-41 -11t-21 -23t-4 -40.5v-271z" />
    <glyph glyph-name="Eth" unicode="&#x420;" horiz-adv-x="620" 
d="M179 70q0 -9 10 -14t25 -8q17 -5 21 -7q9 -6 9 -18q0 -10 -8 -16.5t-28 -6.5h-140q-17 0 -26.5 4t-9.5 19q0 11 5.5 15t18.5 9q22 8 27.5 15.5t5.5 27.5v16v556q0 9 -11 15q-3 1 -19.5 6t-20.5 8q-9 6 -9 18q0 11 7.5 17t27.5 6h260q74 0 110.5 -8t70.5 -26
q99 -50 99 -158q0 -68 -46 -126q-40 -51 -108 -84q-57 -28 -126 -39t-145 -11v-210zM179 332q121 0 208 40q115 53 115 158q0 36 -17.5 67.5t-47 50.5t-66 25.5t-76.5 6.5q-26 0 -50 -2.5t-41 -11t-21 -23t-4 -40.5v-271z" />
    <glyph glyph-name="Ntilde" unicode="&#xd1;" horiz-adv-x="720" 
d="M685 549q0 -14 -5.5 -24t-19.5 -10q-11 0 -19 14q-8 18 -11 24q-19 39 -31 56q-18 26 -47 47q-56 40 -129 40q-65 0 -114 -25.5t-92 -78.5q-79 -97 -79 -224q0 -57 16 -118t46 -104q38 -53 94 -78.5t123 -25.5q63 0 112.5 24t98.5 73q8 8 16 17q11 10 22 10q22 0 22 -24
q0 -22 -40 -59q-31 -29 -60 -46q-41 -26 -88.5 -39t-98.5 -13q-152 0 -257 99q-108 102 -108 254q0 164 113.5 286.5t277.5 122.5q100 0 191 -47q22 -12 29 -17q20 -13 26 -21q12 -17 12 -41v-72z" />
    <glyph glyph-name="Ntilde" unicode="&#x421;" horiz-adv-x="720" 
d="M685 549q0 -14 -5.5 -24t-19.5 -10q-11 0 -19 14q-8 18 -11 24q-19 39 -31 56q-18 26 -47 47q-56 40 -129 40q-65 0 -114 -25.5t-92 -78.5q-79 -97 -79 -224q0 -57 16 -118t46 -104q38 -53 94 -78.5t123 -25.5q63 0 112.5 24t98.5 73q8 8 16 17q11 10 22 10q22 0 22 -24
q0 -22 -40 -59q-31 -29 -60 -46q-41 -26 -88.5 -39t-98.5 -13q-152 0 -257 99q-108 102 -108 254q0 164 113.5 286.5t277.5 122.5q100 0 191 -47q22 -12 29 -17q20 -13 26 -21q12 -17 12 -41v-72z" />
    <glyph glyph-name="Ograve" unicode="&#xd2;" horiz-adv-x="640" 
d="M364 71q0 -9 9 -14t24 -9.5t21 -8.5t6 -16q0 -11 -7.5 -17t-28.5 -6h-139q-17 0 -26.5 4t-9.5 19q0 12 9 17t17 7q27 8 31 16.5t4 42.5v513q0 39 -7 50.5t-37 11.5q-18 0 -39 -2.5t-47.5 -8t-45.5 -17.5q-10 -6 -41 -32q-7 -7 -15.5 -14t-16.5 -7q-20 0 -20 23l3 23l6 48
q8 38 23 38h555q15 -2 19 -6t9.5 -25.5t9.5 -50.5l4 -26q0 -21 -18 -21q-10 0 -20 8.5t-13 11.5q-26 21 -36 27q-18 12 -40 18.5t-44.5 9.5t-44.5 3q-40 0 -47 -11t-7 -57v-542z" />
    <glyph glyph-name="Ograve" unicode="&#x422;" horiz-adv-x="640" 
d="M364 71q0 -9 9 -14t24 -9.5t21 -8.5t6 -16q0 -11 -7.5 -17t-28.5 -6h-139q-17 0 -26.5 4t-9.5 19q0 12 9 17t17 7q27 8 31 16.5t4 42.5v513q0 39 -7 50.5t-37 11.5q-18 0 -39 -2.5t-47.5 -8t-45.5 -17.5q-10 -6 -41 -32q-7 -7 -15.5 -14t-16.5 -7q-20 0 -20 23l3 23l6 48
q8 38 23 38h555q15 -2 19 -6t9.5 -25.5t9.5 -50.5l4 -26q0 -21 -18 -21q-10 0 -20 8.5t-13 11.5q-26 21 -36 27q-18 12 -40 18.5t-44.5 9.5t-44.5 3q-40 0 -47 -11t-7 -57v-542z" />
    <glyph glyph-name="Oacute" unicode="&#xd3;" horiz-adv-x="700" 
d="M71 627q-5 23 -13 37t-26 24q-13 9 -14 10q-7 6 -8 13q0 21 32 21h141q14 0 23 -4t9 -15q0 -9 -23 -26t-23 -49q1 -8 1 -13q4 -34 27 -101t43 -106q25 -49 69 -89q48 -44 86 -44q33 0 62 36q20 25 43 74q29 62 46 108q26 70 26 108q0 60 -35 78q-17 9 -17 25
q0 11 7.5 14.5t22.5 3.5h115q15 0 22.5 -2.5t7.5 -13.5q0 -9 -4 -16q-10 -12 -19.5 -23.5t-15.5 -33.5q-31 -108 -80 -223.5t-110 -220.5q-57 -98 -115 -150q-79 -71 -174 -71q-30 0 -51 11t-21 35q2 16 16.5 28t33.5 12q13 0 25 -2q40 -7 46 -7q55 0 116 65q43 46 79 112
q-18 -6 -39 -6q-50 0 -106.5 32t-93.5 87q-31 46 -62 124t-49 158z" />
    <glyph glyph-name="Oacute" unicode="&#x423;" horiz-adv-x="700" 
d="M71 627q-5 23 -13 37t-26 24q-13 9 -14 10q-7 6 -8 13q0 21 32 21h141q14 0 23 -4t9 -15q0 -9 -23 -26t-23 -49q1 -8 1 -13q4 -34 27 -101t43 -106q25 -49 69 -89q48 -44 86 -44q33 0 62 36q20 25 43 74q29 62 46 108q26 70 26 108q0 60 -35 78q-17 9 -17 25
q0 11 7.5 14.5t22.5 3.5h115q15 0 22.5 -2.5t7.5 -13.5q0 -9 -4 -16q-10 -12 -19.5 -23.5t-15.5 -33.5q-31 -108 -80 -223.5t-110 -220.5q-57 -98 -115 -150q-79 -71 -174 -71q-30 0 -51 11t-21 35q2 16 16.5 28t33.5 12q13 0 25 -2q40 -7 46 -7q55 0 116 65q43 46 79 112
q-18 -6 -39 -6q-50 0 -106.5 32t-93.5 87q-31 46 -62 124t-49 158z" />
    <glyph glyph-name="Ocircumflex" unicode="&#xd4;" horiz-adv-x="900" 
d="M382 0q-5 -5 -12 -5q-9 0 -16.5 8.5t-7.5 19.5t8 17q4 2 16.5 6.5t23.5 9t11 15.5v58h-11h-14h-17h-14q-9 2 -13 2q-130 15 -218 81q-98 73 -98 178q0 118 100 172q92 50 285 50v28q0 23 -4 30t-31 15q-13 5 -18.5 9t-5.5 16q0 11 6.5 16.5t28.5 5.5h138q17 0 26 -4
t9 -18q0 -11 -7 -17q-3 -3 -23.5 -9.5t-24.5 -13.5t-4 -30v-28q192 0 285 -50q100 -54 100 -172q0 -104 -98 -177q-89 -67 -218 -82q-14 -2 -33.5 -2h-35.5v-58q0 -9 11 -15q15 -6 21 -8q15 -6 19 -8q8 -6 8 -17t-7.5 -19.5t-16.5 -8.5q-7 0 -12 5h-136zM405 559
q-160 0 -228 -53q-55 -43 -55 -126q0 -82 95 -142q88 -56 188 -56v377zM495 182q101 0 188 55q95 60 95 143t-54 125q-69 54 -229 54v-377z" />
    <glyph glyph-name="Ocircumflex" unicode="&#x424;" horiz-adv-x="900" 
d="M382 0q-5 -5 -12 -5q-9 0 -16.5 8.5t-7.5 19.5t8 17q4 2 16.5 6.5t23.5 9t11 15.5v58h-11h-14h-17h-14q-9 2 -13 2q-130 15 -218 81q-98 73 -98 178q0 118 100 172q92 50 285 50v28q0 23 -4 30t-31 15q-13 5 -18.5 9t-5.5 16q0 11 6.5 16.5t28.5 5.5h138q17 0 26 -4
t9 -18q0 -11 -7 -17q-3 -3 -23.5 -9.5t-24.5 -13.5t-4 -30v-28q192 0 285 -50q100 -54 100 -172q0 -104 -98 -177q-89 -67 -218 -82q-14 -2 -33.5 -2h-35.5v-58q0 -9 11 -15q15 -6 21 -8q15 -6 19 -8q8 -6 8 -17t-7.5 -19.5t-16.5 -8.5q-7 0 -12 5h-136zM405 559
q-160 0 -228 -53q-55 -43 -55 -126q0 -82 95 -142q88 -56 188 -56v377zM495 182q101 0 188 55q95 60 95 143t-54 125q-69 54 -229 54v-377z" />
    <glyph glyph-name="Otilde" unicode="&#xd5;" horiz-adv-x="700" 
d="M317 304q-69 -89 -110.5 -152.5t-41.5 -81.5q0 -15 22.5 -25t22.5 -26q0 -12 -9 -15.5t-23 -3.5h-128q-23 0 -27 1q-15 4 -15 18q0 13 13 20q5 3 25 9q21 8 37 27q7 9 26 39l68 97l110 148q-56 59 -112 138q-47 66 -96 150q-9 16 -17 24t-19 12.5t-19 7.5q-14 8 -14 23
q0 11 10 14.5t23 3.5h140q20 0 27.5 -3.5t7.5 -12.5q0 -10 -16 -19t-18 -11q-7 -7 -7 -19q0 -34 69 -122q35 -44 100 -116l93 115q31 40 42 55q29 42 29 61q0 21 -28.5 32t-28.5 26q0 9 7.5 11.5t18.5 2.5h145q16 0 24 -3t8 -14q0 -10 -5 -15t-17.5 -10t-19 -8.5t-14 -12
t-19.5 -26.5q-4 -6 -32 -49l-159 -207q67 -71 101 -111q53 -63 89 -122l32 -53q14 -22 26.5 -33.5t30 -17.5t24.5 -11.5t7 -17.5q0 -9 -7 -15t-25 -6h-154q-13 0 -23 4t-10 15q0 14 24 24t24 23q0 25 -85 127q-76 91 -115 125z" />
    <glyph glyph-name="Otilde" unicode="&#x425;" horiz-adv-x="700" 
d="M317 304q-69 -89 -110.5 -152.5t-41.5 -81.5q0 -15 22.5 -25t22.5 -26q0 -12 -9 -15.5t-23 -3.5h-128q-23 0 -27 1q-15 4 -15 18q0 13 13 20q5 3 25 9q21 8 37 27q7 9 26 39l68 97l110 148q-56 59 -112 138q-47 66 -96 150q-9 16 -17 24t-19 12.5t-19 7.5q-14 8 -14 23
q0 11 10 14.5t23 3.5h140q20 0 27.5 -3.5t7.5 -12.5q0 -10 -16 -19t-18 -11q-7 -7 -7 -19q0 -34 69 -122q35 -44 100 -116l93 115q31 40 42 55q29 42 29 61q0 21 -28.5 32t-28.5 26q0 9 7.5 11.5t18.5 2.5h145q16 0 24 -3t8 -14q0 -10 -5 -15t-17.5 -10t-19 -8.5t-14 -12
t-19.5 -26.5q-4 -6 -32 -49l-159 -207q67 -71 101 -111q53 -63 89 -122l32 -53q14 -22 26.5 -33.5t30 -17.5t24.5 -11.5t7 -17.5q0 -9 -7 -15t-25 -6h-154q-13 0 -23 4t-10 15q0 14 24 24t24 23q0 25 -85 127q-76 91 -115 125z" />
    <glyph glyph-name="Odieresis" unicode="&#xd6;" horiz-adv-x="800" 
d="M66 0q-17 0 -26.5 4t-9.5 19q0 12 9 17t17 7q27 8 31 16.5t4 42.5v555q0 8 -5 12t-27 11q-8 2 -15 5q-14 6 -14 21q0 11 7.5 16.5t29.5 5.5h138q16 0 25.5 -4t9.5 -18q0 -11 -7 -17q-3 -3 -21.5 -9.5t-24.5 -14.5t-6 -29v-14v-554q0 -20 24 -20h378q14 0 22.5 15.5
t8.5 38.5v556q0 10 -11 16t-22 6q-15 5 -19 8q-9 6 -9 18q0 11 7 16.5t28 5.5h142q16 0 25.5 -4t9.5 -18q0 -11 -6 -16t-25 -10.5t-24.5 -13.5t-5.5 -31v-13v-546q0 -16 13 -24l6 -3l15 -2q13 0 19 -6.5t12.5 -34t6.5 -41.5l4 -26q0 -21 -18 -21q-10 0 -20 8.5t-13 11.5
q-26 21 -36 27q-18 12 -40 18.5t-44.5 9.5t-44.5 3h-498z" />
    <glyph glyph-name="Odieresis" unicode="&#x426;" horiz-adv-x="800" 
d="M66 0q-17 0 -26.5 4t-9.5 19q0 12 9 17t17 7q27 8 31 16.5t4 42.5v555q0 8 -5 12t-27 11q-8 2 -15 5q-14 6 -14 21q0 11 7.5 16.5t29.5 5.5h138q16 0 25.5 -4t9.5 -18q0 -11 -7 -17q-3 -3 -21.5 -9.5t-24.5 -14.5t-6 -29v-14v-554q0 -20 24 -20h378q14 0 22.5 15.5
t8.5 38.5v556q0 10 -11 16t-22 6q-15 5 -19 8q-9 6 -9 18q0 11 7 16.5t28 5.5h142q16 0 25.5 -4t9.5 -18q0 -11 -6 -16t-25 -10.5t-24.5 -13.5t-5.5 -31v-13v-546q0 -16 13 -24l6 -3l15 -2q13 0 19 -6.5t12.5 -34t6.5 -41.5l4 -26q0 -21 -18 -21q-10 0 -20 8.5t-13 11.5
q-26 21 -36 27q-18 12 -40 18.5t-44.5 9.5t-44.5 3h-498z" />
    <glyph glyph-name="multiply" unicode="&#xd7;" horiz-adv-x="720" 
d="M80 454q0 48 5 132q1 28 5 75q0 7 -10 13t-20 9t-17 6q-14 6 -14 21q0 11 7.5 16.5t29.5 5.5h138q16 0 25.5 -4t9.5 -18q0 -11 -7 -17q-3 -3 -21 -9.5t-24.5 -15t-6.5 -29.5v-13q-4 -40 -5 -63q-5 -71 -5 -109q0 -59 46.5 -94.5t123.5 -35.5q58 0 131 32q24 10 62 33v273
q0 9 -9.5 14t-23.5 8q-15 5 -19 8q-9 6 -9 18q0 11 7 16.5t28 5.5h142q16 0 25.5 -4t9.5 -18q0 -11 -6 -16t-25 -10.5t-24.5 -13.5t-5.5 -31v-13v-546q0 -19 19 -27l11 -5l9 -5q9 -5 18 -9q4 -4 4 -11q0 -11 -7.5 -17t-27.5 -6h-141q-17 0 -26.5 4t-9.5 19q0 11 6.5 15.5
t18.5 8.5q26 7 31 17t5 42v226q-41 -23 -69 -34q-84 -34 -160 -34q-96 0 -158 49q-66 52 -66 141z" />
    <glyph glyph-name="multiply" unicode="&#x427;" horiz-adv-x="720" 
d="M80 454q0 48 5 132q1 28 5 75q0 7 -10 13t-20 9t-17 6q-14 6 -14 21q0 11 7.5 16.5t29.5 5.5h138q16 0 25.5 -4t9.5 -18q0 -11 -7 -17q-3 -3 -21 -9.5t-24.5 -15t-6.5 -29.5v-13q-4 -40 -5 -63q-5 -71 -5 -109q0 -59 46.5 -94.5t123.5 -35.5q58 0 131 32q24 10 62 33v273
q0 9 -9.5 14t-23.5 8q-15 5 -19 8q-9 6 -9 18q0 11 7 16.5t28 5.5h142q16 0 25.5 -4t9.5 -18q0 -11 -6 -16t-25 -10.5t-24.5 -13.5t-5.5 -31v-13v-546q0 -19 19 -27l11 -5l9 -5q9 -5 18 -9q4 -4 4 -11q0 -11 -7.5 -17t-27.5 -6h-141q-17 0 -26.5 4t-9.5 19q0 11 6.5 15.5
t18.5 8.5q26 7 31 17t5 42v226q-41 -23 -69 -34q-84 -34 -160 -34q-96 0 -158 49q-66 52 -66 141z" />
    <glyph glyph-name="Oslash" unicode="&#xd8;" horiz-adv-x="960" 
d="M411 52q14 5 17.5 12t3.5 26v16v556q0 9 -11 15l-19.5 6.5t-20.5 8.5q-9 6 -9 18q0 11 7.5 16.5t28.5 5.5h138q16 0 25.5 -4t9.5 -18q0 -11 -7 -17q-3 -3 -22 -9.5t-24.5 -14t-5.5 -29.5v-14v-555q0 -7 5 -11t15 -8h201q17 0 24 10t7 44v556q0 10 -11 16t-22 6
q-15 5 -19 8q-9 6 -9 18q0 11 7 16.5t28 5.5h142q16 0 25.5 -4t9.5 -18q0 -11 -6 -16t-25 -10.5t-24.5 -13.5t-5.5 -31v-13v-546q0 -19 19 -27l11 -5l9 -5q9 -5 18 -9q4 -4 4 -11q0 -9 -5 -16q-9 -13 -22 -13q-6 0 -8 6h-116h-593h-115q-2 -6 -9 -6q-8 0 -17.5 8.5
t-9.5 20.5t9 17t17 7q27 8 31 16.5t4 42.5v555q0 8 -5 12t-27 11q-8 2 -15 5q-14 6 -14 21q0 11 7.5 16.5t29.5 5.5h138q16 0 25.5 -4t9.5 -18q0 -11 -7 -17q-3 -3 -21.5 -9.5t-24.5 -14.5t-6 -29v-14v-554q0 -20 24 -20h206z" />
    <glyph glyph-name="Oslash" unicode="&#x428;" horiz-adv-x="960" 
d="M411 52q14 5 17.5 12t3.5 26v16v556q0 9 -11 15l-19.5 6.5t-20.5 8.5q-9 6 -9 18q0 11 7.5 16.5t28.5 5.5h138q16 0 25.5 -4t9.5 -18q0 -11 -7 -17q-3 -3 -22 -9.5t-24.5 -14t-5.5 -29.5v-14v-555q0 -7 5 -11t15 -8h201q17 0 24 10t7 44v556q0 10 -11 16t-22 6
q-15 5 -19 8q-9 6 -9 18q0 11 7 16.5t28 5.5h142q16 0 25.5 -4t9.5 -18q0 -11 -6 -16t-25 -10.5t-24.5 -13.5t-5.5 -31v-13v-546q0 -19 19 -27l11 -5l9 -5q9 -5 18 -9q4 -4 4 -11q0 -9 -5 -16q-9 -13 -22 -13q-6 0 -8 6h-116h-593h-115q-2 -6 -9 -6q-8 0 -17.5 8.5
t-9.5 20.5t9 17t17 7q27 8 31 16.5t4 42.5v555q0 8 -5 12t-27 11q-8 2 -15 5q-14 6 -14 21q0 11 7.5 16.5t29.5 5.5h138q16 0 25.5 -4t9.5 -18q0 -11 -7 -17q-3 -3 -21.5 -9.5t-24.5 -14.5t-6 -29v-14v-554q0 -20 24 -20h206z" />
    <glyph glyph-name="Ugrave" unicode="&#xd9;" horiz-adv-x="960" 
d="M66 0q-17 0 -26.5 4t-9.5 19q0 12 9 17t17 7q27 8 31 16.5t4 42.5v555q0 8 -5 12t-27 11q-8 2 -15 5q-14 6 -14 21q0 11 7.5 16.5t29.5 5.5h138q16 0 25.5 -4t9.5 -18q0 -11 -7 -17q-3 -3 -21.5 -9.5t-24.5 -14.5t-6 -29v-14v-554q0 -20 24 -20h206q14 5 17.5 12t3.5 26
v16v556q0 9 -11 15l-19.5 6.5t-20.5 8.5q-9 6 -9 18q0 11 7.5 16.5t28.5 5.5h138q16 0 25.5 -4t9.5 -18q0 -11 -7 -17q-3 -3 -22 -9.5t-24.5 -14t-5.5 -29.5v-14v-555q0 -19 20 -19h201q17 0 24 10t7 44v556q0 10 -11 16t-22 6q-15 5 -19 8q-9 6 -9 18q0 11 7 16.5t28 5.5
h142q16 0 25.5 -4t9.5 -18q0 -11 -6 -16t-25 -10.5t-24.5 -13.5t-5.5 -31v-13v-546q0 -16 13 -24l6 -3l15 -2q13 0 19 -6.5t12.5 -34t6.5 -41.5l4 -26q0 -21 -18 -21q-10 0 -20 8.5t-13 11.5q-26 21 -36 27q-18 12 -40 18.5t-44.5 9.5t-44.5 3h-658z" />
    <glyph glyph-name="Ugrave" unicode="&#x429;" horiz-adv-x="960" 
d="M66 0q-17 0 -26.5 4t-9.5 19q0 12 9 17t17 7q27 8 31 16.5t4 42.5v555q0 8 -5 12t-27 11q-8 2 -15 5q-14 6 -14 21q0 11 7.5 16.5t29.5 5.5h138q16 0 25.5 -4t9.5 -18q0 -11 -7 -17q-3 -3 -21.5 -9.5t-24.5 -14.5t-6 -29v-14v-554q0 -20 24 -20h206q14 5 17.5 12t3.5 26
v16v556q0 9 -11 15l-19.5 6.5t-20.5 8.5q-9 6 -9 18q0 11 7.5 16.5t28.5 5.5h138q16 0 25.5 -4t9.5 -18q0 -11 -7 -17q-3 -3 -22 -9.5t-24.5 -14t-5.5 -29.5v-14v-555q0 -19 20 -19h201q17 0 24 10t7 44v556q0 10 -11 16t-22 6q-15 5 -19 8q-9 6 -9 18q0 11 7 16.5t28 5.5
h142q16 0 25.5 -4t9.5 -18q0 -11 -6 -16t-25 -10.5t-24.5 -13.5t-5.5 -31v-13v-546q0 -16 13 -24l6 -3l15 -2q13 0 19 -6.5t12.5 -34t6.5 -41.5l4 -26q0 -21 -18 -21q-10 0 -20 8.5t-13 11.5q-26 21 -36 27q-18 12 -40 18.5t-44.5 9.5t-44.5 3h-658z" />
    <glyph glyph-name="Uacute" unicode="&#xda;" horiz-adv-x="740" 
d="M166 681q-16 0 -25.5 -1t-27.5 -7q-31 -10 -47 -20t-43 -32q-7 -7 -15.5 -14t-16.5 -7q-20 0 -20 23l3 23q6 29 11 48q11 38 28 38h171h140q17 0 26.5 -4t9.5 -19q0 -12 -9 -18q-4 -2 -21 -7q-11 0 -23 -10.5t-12 -21.5v-200q82 0 147 -10.5t124 -39.5q67 -33 107 -83
q47 -58 47 -127q0 -53 -25.5 -93.5t-73.5 -64.5q-38 -20 -81.5 -27t-99.5 -7h-260q-16 0 -25.5 4t-9.5 19q0 13 5.5 16.5t19 7.5t24.5 7q11 5 11 16v556q0 27 -7 41t-32 14zM295 129q0 -30 3.5 -42t20.5 -21t40.5 -11.5t51.5 -2.5q45 0 77.5 6t63 25.5t48.5 51t18 67.5
q0 104 -115 157q-89 41 -208 41v-271z" />
    <glyph glyph-name="Uacute" unicode="&#x42a;" horiz-adv-x="740" 
d="M166 681q-16 0 -25.5 -1t-27.5 -7q-31 -10 -47 -20t-43 -32q-7 -7 -15.5 -14t-16.5 -7q-20 0 -20 23l3 23q6 29 11 48q11 38 28 38h171h140q17 0 26.5 -4t9.5 -19q0 -12 -9 -18q-4 -2 -21 -7q-11 0 -23 -10.5t-12 -21.5v-200q82 0 147 -10.5t124 -39.5q67 -33 107 -83
q47 -58 47 -127q0 -53 -25.5 -93.5t-73.5 -64.5q-38 -20 -81.5 -27t-99.5 -7h-260q-16 0 -25.5 4t-9.5 19q0 13 5.5 16.5t19 7.5t24.5 7q11 5 11 16v556q0 27 -7 41t-32 14zM295 129q0 -30 3.5 -42t20.5 -21t40.5 -11.5t51.5 -2.5q45 0 77.5 6t63 25.5t48.5 51t18 67.5
q0 104 -115 157q-89 41 -208 41v-271z" />
    <glyph glyph-name="Ucircumflex" unicode="&#xdb;" horiz-adv-x="880" 
d="M699 662q0 9 -11 15l-19.5 6.5t-20.5 8.5q-9 6 -9 18q0 11 7.5 16.5t28.5 5.5h138q16 0 25.5 -4t9.5 -18q0 -11 -7 -17q-3 -3 -22 -9.5t-24.5 -14t-5.5 -29.5v-14v-555q0 -9 11 -15q15 -6 21 -8q15 -6 19 -8q8 -6 8 -17t-7.5 -17t-28.5 -6h-138q-17 0 -26.5 4t-9.5 19
q0 12 9 17t17 7q27 8 31 16.5t4 42.5v556zM179 452q82 0 147 -10.5t124 -39.5q67 -33 107 -83q47 -58 47 -127q0 -53 -25.5 -93.5t-73.5 -64.5q-38 -20 -81.5 -27t-99.5 -7h-260q-16 0 -25.5 4t-9.5 19q0 13 5.5 16.5t19 7.5t24.5 7q11 5 11 16v556v17q0 20 -5 27t-24.5 14
t-20.5 8q-7 5 -7 17q0 11 7.5 17t28.5 6h140q17 0 26.5 -4t9.5 -19q0 -12 -9 -18q-4 -2 -19.5 -6t-18.5 -5q-18 -6 -18 -18v-210zM179 129q0 -30 3.5 -42t20.5 -21t40.5 -11.5t51.5 -2.5q45 0 77.5 6t63 25.5t48.5 51t18 67.5q0 104 -115 157q-89 41 -208 41v-271z" />
    <glyph glyph-name="Ucircumflex" unicode="&#x42b;" horiz-adv-x="880" 
d="M699 662q0 9 -11 15l-19.5 6.5t-20.5 8.5q-9 6 -9 18q0 11 7.5 16.5t28.5 5.5h138q16 0 25.5 -4t9.5 -18q0 -11 -7 -17q-3 -3 -22 -9.5t-24.5 -14t-5.5 -29.5v-14v-555q0 -9 11 -15q15 -6 21 -8q15 -6 19 -8q8 -6 8 -17t-7.5 -17t-28.5 -6h-138q-17 0 -26.5 4t-9.5 19
q0 12 9 17t17 7q27 8 31 16.5t4 42.5v556zM179 452q82 0 147 -10.5t124 -39.5q67 -33 107 -83q47 -58 47 -127q0 -53 -25.5 -93.5t-73.5 -64.5q-38 -20 -81.5 -27t-99.5 -7h-260q-16 0 -25.5 4t-9.5 19q0 13 5.5 16.5t19 7.5t24.5 7q11 5 11 16v556v17q0 20 -5 27t-24.5 14
t-20.5 8q-7 5 -7 17q0 11 7.5 17t28.5 6h140q17 0 26.5 -4t9.5 -19q0 -12 -9 -18q-4 -2 -19.5 -6t-18.5 -5q-18 -6 -18 -18v-210zM179 129q0 -30 3.5 -42t20.5 -21t40.5 -11.5t51.5 -2.5q45 0 77.5 6t63 25.5t48.5 51t18 67.5q0 104 -115 157q-89 41 -208 41v-271z" />
    <glyph glyph-name="Udieresis" unicode="&#xdc;" horiz-adv-x="620" 
d="M179 452q82 0 147 -10.5t124 -39.5q67 -33 107 -83q47 -58 47 -127q0 -53 -25.5 -93.5t-73.5 -64.5q-38 -20 -81.5 -27t-99.5 -7h-260q-16 0 -25.5 4t-9.5 19q0 13 5.5 16.5t19 7.5t24.5 7q11 5 11 16v556v17q0 20 -5 27t-24.5 14t-20.5 8q-7 5 -7 17q0 11 7.5 17t28.5 6
h140q17 0 26.5 -4t9.5 -19q0 -12 -9 -18q-4 -2 -19.5 -6t-18.5 -5q-18 -6 -18 -18v-210zM179 129q0 -30 3.5 -42t20.5 -21t40.5 -11.5t51.5 -2.5q45 0 77.5 6t63 25.5t48.5 51t18 67.5q0 104 -115 157q-89 41 -208 41v-271z" />
    <glyph glyph-name="Udieresis" unicode="&#x42c;" horiz-adv-x="620" 
d="M179 452q82 0 147 -10.5t124 -39.5q67 -33 107 -83q47 -58 47 -127q0 -53 -25.5 -93.5t-73.5 -64.5q-38 -20 -81.5 -27t-99.5 -7h-260q-16 0 -25.5 4t-9.5 19q0 13 5.5 16.5t19 7.5t24.5 7q11 5 11 16v556v17q0 20 -5 27t-24.5 14t-20.5 8q-7 5 -7 17q0 11 7.5 17t28.5 6
h140q17 0 26.5 -4t9.5 -19q0 -12 -9 -18q-4 -2 -19.5 -6t-18.5 -5q-18 -6 -18 -18v-210zM179 129q0 -30 3.5 -42t20.5 -21t40.5 -11.5t51.5 -2.5q45 0 77.5 6t63 25.5t48.5 51t18 67.5q0 104 -115 157q-89 41 -208 41v-271z" />
    <glyph glyph-name="Yacute" unicode="&#xdd;" horiz-adv-x="720" 
d="M579 411q-10 100 -77 181q-42 52 -92 78t-114 26q-73 0 -129 -40q-27 -20 -46 -46q-13 -18 -32 -57q-6 -12 -11 -23q-9 -15 -19 -15q-17 0 -21 12t-4 22v72q0 24 12 41q4 6 16 14.5t39 23.5q91 47 191 47q164 0 279 -123q112 -120 112 -286q0 -152 -106.5 -252.5
t-258.5 -100.5q-104 0 -187 52q-29 18 -59 45q-41 38 -41 60q0 24 22 24q11 0 21 -9q12 -13 17 -18q50 -50 98.5 -73.5t112.5 -23.5q69 0 123.5 25t93.5 79q29 42 45.5 99t16.5 111h-362q-31 0 -31 27q0 11 8.5 19.5t22.5 8.5h360z" />
    <glyph glyph-name="Yacute" unicode="&#x42d;" horiz-adv-x="720" 
d="M579 411q-10 100 -77 181q-42 52 -92 78t-114 26q-73 0 -129 -40q-27 -20 -46 -46q-13 -18 -32 -57q-6 -12 -11 -23q-9 -15 -19 -15q-17 0 -21 12t-4 22v72q0 24 12 41q4 6 16 14.5t39 23.5q91 47 191 47q164 0 279 -123q112 -120 112 -286q0 -152 -106.5 -252.5
t-258.5 -100.5q-104 0 -187 52q-29 18 -59 45q-41 38 -41 60q0 24 22 24q11 0 21 -9q12 -13 17 -18q50 -50 98.5 -73.5t112.5 -23.5q69 0 123.5 25t93.5 79q29 42 45.5 99t16.5 111h-362q-31 0 -31 27q0 11 8.5 19.5t22.5 8.5h360z" />
    <glyph glyph-name="Thorn" unicode="&#xde;" horiz-adv-x="1040" 
d="M282 371l-102 1v-301q0 -9 11 -15q15 -6 21 -8q15 -6 19 -8q8 -6 8 -17t-7.5 -17t-28.5 -6h-138q-17 0 -26.5 4t-9.5 19q0 12 9 17t17 7q27 8 31 16.5t4 42.5v555q0 8 -5 12t-27 11q-8 2 -15 5q-14 6 -14 21q0 11 7.5 16.5t29.5 5.5h138q16 0 25.5 -4t9.5 -18
q0 -11 -7 -17q-3 -3 -21.5 -9.5t-24.5 -14.5t-6 -29v-14v-202l105 -1q19 143 112 231q97 93 243 93q75 0 143 -28.5t119 -81.5t76 -123.5t25 -150.5q0 -163 -103.5 -270.5t-266.5 -107.5q-74 0 -138 26.5t-114.5 79.5t-74.5 122.5t-24 148.5v9zM839 143q31 43 46.5 100
t15.5 115q0 64 -15 125t-49 107.5t-86.5 75t-110.5 28.5q-61 0 -113 -31.5t-86 -85.5q-30 -46 -43.5 -99.5t-13.5 -114.5q0 -62 14.5 -118t47.5 -104t83 -76t109 -28q61 0 112 27.5t89 78.5z" />
    <glyph glyph-name="Thorn" unicode="&#x42e;" horiz-adv-x="1040" 
d="M282 371l-102 1v-301q0 -9 11 -15q15 -6 21 -8q15 -6 19 -8q8 -6 8 -17t-7.5 -17t-28.5 -6h-138q-17 0 -26.5 4t-9.5 19q0 12 9 17t17 7q27 8 31 16.5t4 42.5v555q0 8 -5 12t-27 11q-8 2 -15 5q-14 6 -14 21q0 11 7.5 16.5t29.5 5.5h138q16 0 25.5 -4t9.5 -18
q0 -11 -7 -17q-3 -3 -21.5 -9.5t-24.5 -14.5t-6 -29v-14v-202l105 -1q19 143 112 231q97 93 243 93q75 0 143 -28.5t119 -81.5t76 -123.5t25 -150.5q0 -163 -103.5 -270.5t-266.5 -107.5q-74 0 -138 26.5t-114.5 79.5t-74.5 122.5t-24 148.5v9zM839 143q31 43 46.5 100
t15.5 115q0 64 -15 125t-49 107.5t-86.5 75t-110.5 28.5q-61 0 -113 -31.5t-86 -85.5q-30 -46 -43.5 -99.5t-13.5 -114.5q0 -62 14.5 -118t47.5 -104t83 -76t109 -28q61 0 112 27.5t89 78.5z" />
    <glyph glyph-name="germandbls" unicode="&#xdf;" horiz-adv-x="680" 
d="M499 314l-162 29q-39 -40 -95 -129q-62 -99 -62 -136q0 -19 25.5 -31t25.5 -26q0 -13 -11.5 -17t-28.5 -4h-148q-16 0 -25 3t-9 17q0 11 8 16q2 1 20.5 9t29.5 22q8 10 20 36q39 85 69 138q41 72 88 126q-74 33 -113 74q-51 53 -51 123q0 41 19.5 75.5t53.5 56.5t68.5 29
t82.5 7h311q17 0 26.5 -4t9.5 -19q0 -12 -9 -18q-4 -3 -16 -6l-20 -5q-17 -6 -17 -19v-555q0 -34 4 -42t31 -17q13 -5 19 -9.5t6 -15.5t-7.5 -16.5t-28.5 -5.5h-134q-20 0 -28.5 3t-8.5 19q0 11 8 17q3 2 18 9q10 3 20.5 7.5t10.5 14.5v244zM499 605q0 28 -2 40.5t-14.5 21
t-39 11t-52.5 2.5q-114 0 -165 -37q-44 -32 -44 -91q0 -95 118 -142q52 -21 199 -44v239z" />
    <glyph glyph-name="germandbls" unicode="&#x42f;" horiz-adv-x="680" 
d="M499 314l-162 29q-39 -40 -95 -129q-62 -99 -62 -136q0 -19 25.5 -31t25.5 -26q0 -13 -11.5 -17t-28.5 -4h-148q-16 0 -25 3t-9 17q0 11 8 16q2 1 20.5 9t29.5 22q8 10 20 36q39 85 69 138q41 72 88 126q-74 33 -113 74q-51 53 -51 123q0 41 19.5 75.5t53.5 56.5t68.5 29
t82.5 7h311q17 0 26.5 -4t9.5 -19q0 -12 -9 -18q-4 -3 -16 -6l-20 -5q-17 -6 -17 -19v-555q0 -34 4 -42t31 -17q13 -5 19 -9.5t6 -15.5t-7.5 -16.5t-28.5 -5.5h-134q-20 0 -28.5 3t-8.5 19q0 11 8 17q3 2 18 9q10 3 20.5 7.5t10.5 14.5v244zM499 605q0 28 -2 40.5t-14.5 21
t-39 11t-52.5 2.5q-114 0 -165 -37q-44 -32 -44 -91q0 -95 118 -142q52 -21 199 -44v239z" />
    <glyph glyph-name="agrave" unicode="&#xe0;" horiz-adv-x="500" 
d="M429 123q0 -16 0.5 -34.5t5.5 -27t11.5 -12t17.5 -7t15 -7.5t4 -13q0 -14 -11.5 -18t-28.5 -4h-44q-24 0 -30.5 8.5t-6.5 29.5v16v25q-60 -94 -167 -94q-71 0 -118 35q-52 39 -52 108q0 45 22 80t61.5 60.5t85.5 36t98 10.5l61 -3q0 53 -41.5 86.5t-97.5 33.5
q-29 0 -45.5 -5.5t-43.5 -21.5q-11 -7 -22 -13t-23 -6q-28 0 -28 25q0 13 14 26q8 7 26 17q28 13 58.5 19.5t63.5 6.5q41 0 80.5 -11.5t72.5 -37t47.5 -62.5t14.5 -85v-161zM309 270q-78 0 -133 -29q-71 -37 -71 -108q0 -41 26 -64q31 -28 72 -28q32 0 60.5 9.5t51.5 29
t31 44t8 62.5v81z" />
    <glyph glyph-name="agrave" unicode="&#x430;" horiz-adv-x="500" 
d="M429 123q0 -16 0.5 -34.5t5.5 -27t11.5 -12t17.5 -7t15 -7.5t4 -13q0 -14 -11.5 -18t-28.5 -4h-44q-24 0 -30.5 8.5t-6.5 29.5v16v25q-60 -94 -167 -94q-71 0 -118 35q-52 39 -52 108q0 45 22 80t61.5 60.5t85.5 36t98 10.5l61 -3q0 53 -41.5 86.5t-97.5 33.5
q-29 0 -45.5 -5.5t-43.5 -21.5q-11 -7 -22 -13t-23 -6q-28 0 -28 25q0 13 14 26q8 7 26 17q28 13 58.5 19.5t63.5 6.5q41 0 80.5 -11.5t72.5 -37t47.5 -62.5t14.5 -85v-161zM309 270q-78 0 -133 -29q-71 -37 -71 -108q0 -41 26 -64q31 -28 72 -28q32 0 60.5 9.5t51.5 29
t31 44t8 62.5v81z" />
    <glyph glyph-name="aacute" unicode="&#xe1;" horiz-adv-x="560" 
d="M93 388q38 42 86 65q56 27 122 27q100 0 164 -70t64 -174q0 -107 -73 -179t-180 -72q-103 0 -174 76t-71 191q0 117 30.5 206t80.5 127q38 30 91 46l152 40q34 13 46 50q5 15 24 15q21 0 21 -18q0 -41 -29.5 -77.5t-80.5 -50.5l-134 -36q-66 -18 -102.5 -66t-36.5 -100z
M407 99q21 27 31.5 63t10.5 75q0 83 -41 136q-45 58 -125 58q-84 0 -130 -61q-42 -55 -42 -139t41 -138q45 -59 125 -59q81 0 130 65z" />
    <glyph glyph-name="aacute" unicode="&#x431;" horiz-adv-x="560" 
d="M93 388q38 42 86 65q56 27 122 27q100 0 164 -70t64 -174q0 -107 -73 -179t-180 -72q-103 0 -174 76t-71 191q0 117 30.5 206t80.5 127q38 30 91 46l152 40q34 13 46 50q5 15 24 15q21 0 21 -18q0 -41 -29.5 -77.5t-80.5 -50.5l-134 -36q-66 -18 -102.5 -66t-36.5 -100z
M407 99q21 27 31.5 63t10.5 75q0 83 -41 136q-45 58 -125 58q-84 0 -130 -61q-42 -55 -42 -139t41 -138q45 -59 125 -59q81 0 130 65z" />
    <glyph glyph-name="acircumflex" unicode="&#xe2;" horiz-adv-x="500" 
d="M28 21q0 10 7 15.5t19 8t18.5 8t6.5 20.5v327q0 13 -7.5 21t-16.5 9q-12 0 -19.5 5t-7.5 17q0 14 7.5 17.5t24.5 3.5h238q31 0 53 -3.5t44.5 -16.5t37 -35t14.5 -49q0 -37 -28 -66q-22 -23 -63 -43q54 -13 87 -43q39 -36 39 -86q0 -31 -17 -57t-45.5 -43.5t-60 -24
t-70.5 -6.5h-230q-14 0 -19 2q-12 5 -12 19zM164 51q7 -3 29 -4.5t43 -1.5q34 0 60.5 3.5t50.5 14.5q51 25 51 69q0 41 -37 68q-31 22 -82 31l-125 -27v-116v-23q2 -11 10 -14zM321 303q19 13 30.5 29t11.5 34q0 40 -40 53q-24 8 -81 8q-21 0 -45.5 -0.5t-34.5 -6.5
q-4 -2 -6 -9.5t-2 -16.5v-12v-127q62 12 87 18q56 14 80 30z" />
    <glyph glyph-name="acircumflex" unicode="&#x432;" horiz-adv-x="500" 
d="M28 21q0 10 7 15.5t19 8t18.5 8t6.5 20.5v327q0 13 -7.5 21t-16.5 9q-12 0 -19.5 5t-7.5 17q0 14 7.5 17.5t24.5 3.5h238q31 0 53 -3.5t44.5 -16.5t37 -35t14.5 -49q0 -37 -28 -66q-22 -23 -63 -43q54 -13 87 -43q39 -36 39 -86q0 -31 -17 -57t-45.5 -43.5t-60 -24
t-70.5 -6.5h-230q-14 0 -19 2q-12 5 -12 19zM164 51q7 -3 29 -4.5t43 -1.5q34 0 60.5 3.5t50.5 14.5q51 25 51 69q0 41 -37 68q-31 22 -82 31l-125 -27v-116v-23q2 -11 10 -14zM321 303q19 13 30.5 29t11.5 34q0 40 -40 53q-24 8 -81 8q-21 0 -45.5 -0.5t-34.5 -6.5
q-4 -2 -6 -9.5t-2 -16.5v-12v-127q62 12 87 18q56 14 80 30z" />
    <glyph glyph-name="atilde" unicode="&#xe3;" horiz-adv-x="399" 
d="M179 45q12 -3 19 -7.5t7 -16.5t-9.5 -16.5t-21.5 -4.5h-117q-13 0 -21 2t-8 19q0 10 7 16t17 7q10 0 18.5 8.5t8.5 20.5v322q0 31 -19 33.5t-25.5 8t-6.5 13.5q0 23 20 23h322q14 0 18 -6t10.5 -29.5t6.5 -39.5q0 -7 -5.5 -13.5t-13.5 -6.5t-12 2q-9 9 -14 12
q-15 12 -24 17t-27.5 10t-49 6.5t-75.5 1.5q-14 0 -22 -7t-8 -29v-318q0 -13 10 -21q5 -4 15 -7z" />
    <glyph glyph-name="atilde" unicode="&#x433;" horiz-adv-x="399" 
d="M179 45q12 -3 19 -7.5t7 -16.5t-9.5 -16.5t-21.5 -4.5h-117q-13 0 -21 2t-8 19q0 10 7 16t17 7q10 0 18.5 8.5t8.5 20.5v322q0 31 -19 33.5t-25.5 8t-6.5 13.5q0 23 20 23h322q14 0 18 -6t10.5 -29.5t6.5 -39.5q0 -7 -5.5 -13.5t-13.5 -6.5t-12 2q-9 9 -14 12
q-15 12 -24 17t-27.5 10t-49 6.5t-75.5 1.5q-14 0 -22 -7t-8 -29v-318q0 -13 10 -21q5 -4 15 -7z" />
    <glyph glyph-name="adieresis" unicode="&#xe4;" horiz-adv-x="520" 
d="M485 39q10 -10 14.5 -33.5t4.5 -34.5q0 -7 -5.5 -13.5t-13.5 -6.5q-9 0 -15.5 5t-11.5 9q-25 19 -49 27t-59 8h-206q-36 0 -62 -9t-48 -27q-6 -5 -12.5 -10t-15.5 -5q-12 0 -16.5 7.5t-4.5 14.5q0 36 7 55t24 19q26 0 33 25q29 98 62.5 180.5t74.5 152.5q3 5 -1 15.5
t-18 10.5q-10 0 -18 5.5t-8 17.5q0 14 8.5 17.5t23.5 3.5h288q13 0 22 -4.5t9 -16.5q0 -10 -5 -15t-15.5 -9.5t-19.5 -7.5q-9 -6 -9 -20v-332q0 -18 19.5 -22t22.5 -7zM341 45q27 0 27 28v329q0 14 -9 19t-18 5h-66q-7 0 -11 -2.5t-16 -17.5q-49 -65 -94 -187
q-40 -109 -40 -156q0 -10 7.5 -14t18.5 -4h201z" />
    <glyph glyph-name="adieresis" unicode="&#x434;" horiz-adv-x="520" 
d="M485 39q10 -10 14.5 -33.5t4.5 -34.5q0 -7 -5.5 -13.5t-13.5 -6.5q-9 0 -15.5 5t-11.5 9q-25 19 -49 27t-59 8h-206q-36 0 -62 -9t-48 -27q-6 -5 -12.5 -10t-15.5 -5q-12 0 -16.5 7.5t-4.5 14.5q0 36 7 55t24 19q26 0 33 25q29 98 62.5 180.5t74.5 152.5q3 5 -1 15.5
t-18 10.5q-10 0 -18 5.5t-8 17.5q0 14 8.5 17.5t23.5 3.5h288q13 0 22 -4.5t9 -16.5q0 -10 -5 -15t-15.5 -9.5t-19.5 -7.5q-9 -6 -9 -20v-332q0 -18 19.5 -22t22.5 -7zM341 45q27 0 27 28v329q0 14 -9 19t-18 5h-66q-7 0 -11 -2.5t-16 -17.5q-49 -65 -94 -187
q-40 -109 -40 -156q0 -10 7.5 -14t18.5 -4h201z" />
    <glyph glyph-name="aring" unicode="&#xe5;" horiz-adv-x="500" 
d="M113 174q11 -61 57 -96.5t109 -35.5q54 0 96 26l76 58q7 0 13 -5t6 -13q0 -19 -23 -43q-18 -20 -40 -34q-33 -23 -68.5 -34.5t-75.5 -11.5q-100 0 -168 64t-68 164q0 111 77 189t188 78q61 0 102 -26q27 -17 44.5 -44t17.5 -57q0 -50 -37 -87q-30 -30 -83 -50
q-41 -16 -100 -26q-35 -6 -103 -14zM376 355q0 38 -25 57t-64 19q-87 0 -136 -65q-44 -59 -44 -149q109 10 166 30q103 35 103 108z" />
    <glyph glyph-name="aring" unicode="&#x435;" horiz-adv-x="500" 
d="M113 174q11 -61 57 -96.5t109 -35.5q54 0 96 26l76 58q7 0 13 -5t6 -13q0 -19 -23 -43q-18 -20 -40 -34q-33 -23 -68.5 -34.5t-75.5 -11.5q-100 0 -168 64t-68 164q0 111 77 189t188 78q61 0 102 -26q27 -17 44.5 -44t17.5 -57q0 -50 -37 -87q-30 -30 -83 -50
q-41 -16 -100 -26q-35 -6 -103 -14zM376 355q0 38 -25 57t-64 19q-87 0 -136 -65q-44 -59 -44 -149q109 10 166 30q103 35 103 108z" />
    <glyph glyph-name="ae" unicode="&#xe6;" horiz-adv-x="720" 
d="M300 0q-26 0 -26 23q0 7 3 11t15 11q16 0 24 15q3 6 5 22.5t2 41.5v51l-74 70q-29 -25 -70 -88q-45 -68 -45 -96q0 -10 16.5 -19.5t16.5 -21.5q0 -13 -7 -16.5t-21 -3.5h-114q-12 0 -18.5 2t-6.5 20q0 8 4.5 13t15 10.5t15 10t12.5 19.5q57 96 90 140q29 39 68 75l-13 13
l-40 51q-38 40 -42 44q-23 21 -50 33q-11 5 -17 10t-6 16t6.5 13.5t19.5 2.5h117q11 0 17.5 -3t6.5 -12t-14 -20l-8 -6q-7 -7 -7 -17q0 -30 59 -96q49 -56 89 -86v116v16q0 17 -1.5 28.5t-5.5 19.5q-8 15 -24 15q-8 5 -13 9t-5 13q0 11 7 17t19 6h121q26 0 26 -23
q0 -7 -3 -11t-15 -11q-16 0 -24 -15q-4 -8 -5.5 -19t-1.5 -29v-16v-116q39 30 88 85q60 67 60 97q0 12 -14.5 23t-14.5 20q0 11 10 13t14 2h117q13 0 19.5 -2.5t6.5 -13.5q0 -10 -5.5 -15.5t-17.5 -10.5q-30 -13 -50 -32q-26 -28 -42 -45l-40 -51l-13 -13q44 -41 86 -101
q29 -41 72 -114q11 -21 29 -30t18 -23q0 -15 -5 -18.5t-20 -3.5h-114q-13 0 -20.5 4t-7.5 16q0 11 22 25q11 7 11 16q0 29 -44 96q-40 61 -71 88l-74 -70v-51q0 -16 0.5 -34.5t7.5 -31.5t23 -13q8 -5 13 -9t5 -13q0 -10 -7.5 -16.5t-18.5 -6.5h-121z" />
    <glyph glyph-name="ae" unicode="&#x436;" horiz-adv-x="720" 
d="M300 0q-26 0 -26 23q0 7 3 11t15 11q16 0 24 15q3 6 5 22.5t2 41.5v51l-74 70q-29 -25 -70 -88q-45 -68 -45 -96q0 -10 16.5 -19.5t16.5 -21.5q0 -13 -7 -16.5t-21 -3.5h-114q-12 0 -18.5 2t-6.5 20q0 8 4.5 13t15 10.5t15 10t12.5 19.5q57 96 90 140q29 39 68 75l-13 13
l-40 51q-38 40 -42 44q-23 21 -50 33q-11 5 -17 10t-6 16t6.5 13.5t19.5 2.5h117q11 0 17.5 -3t6.5 -12t-14 -20l-8 -6q-7 -7 -7 -17q0 -30 59 -96q49 -56 89 -86v116v16q0 17 -1.5 28.5t-5.5 19.5q-8 15 -24 15q-8 5 -13 9t-5 13q0 11 7 17t19 6h121q26 0 26 -23
q0 -7 -3 -11t-15 -11q-16 0 -24 -15q-4 -8 -5.5 -19t-1.5 -29v-16v-116q39 30 88 85q60 67 60 97q0 12 -14.5 23t-14.5 20q0 11 10 13t14 2h117q13 0 19.5 -2.5t6.5 -13.5q0 -10 -5.5 -15.5t-17.5 -10.5q-30 -13 -50 -32q-26 -28 -42 -45l-40 -51l-13 -13q44 -41 86 -101
q29 -41 72 -114q11 -21 29 -30t18 -23q0 -15 -5 -18.5t-20 -3.5h-114q-13 0 -20.5 4t-7.5 16q0 11 22 25q11 7 11 16q0 29 -44 96q-40 61 -71 88l-74 -70v-51q0 -16 0.5 -34.5t7.5 -31.5t23 -13q8 -5 13 -9t5 -13q0 -10 -7.5 -16.5t-18.5 -6.5h-121z" />
    <glyph glyph-name="ccedilla" unicode="&#xe7;" horiz-adv-x="400" 
d="M117 251q0 14 10 19t38 5q39 0 65 5.5t43 21.5q25 24 25 61q0 31 -22 52q-26 25 -74 25q-49 0 -84 -24l-60 -52q-9 0 -14.5 7t-8.5 20t-3 21t2 16t13 15q28 19 67 30t94 11q75 0 121.5 -31t46.5 -91q0 -37 -29 -65q-25 -24 -65 -39q49 -12 80 -42q36 -34 36 -79
q0 -66 -59.5 -106t-145.5 -40q-59 0 -107 24q-56 28 -74 77q-4 14 -4 23q0 17 17 20q17 0 25 -7t23 -34q35 -59 118 -59q55 0 89 23q39 26 39 76q0 41 -29.5 67.5t-81.5 26.5h-59q-32 0 -32 23z" />
    <glyph glyph-name="ccedilla" unicode="&#x437;" horiz-adv-x="400" 
d="M117 251q0 14 10 19t38 5q39 0 65 5.5t43 21.5q25 24 25 61q0 31 -22 52q-26 25 -74 25q-49 0 -84 -24l-60 -52q-9 0 -14.5 7t-8.5 20t-3 21t2 16t13 15q28 19 67 30t94 11q75 0 121.5 -31t46.5 -91q0 -37 -29 -65q-25 -24 -65 -39q49 -12 80 -42q36 -34 36 -79
q0 -66 -59.5 -106t-145.5 -40q-59 0 -107 24q-56 28 -74 77q-4 14 -4 23q0 17 17 20q17 0 25 -7t23 -34q35 -59 118 -59q55 0 89 23q39 26 39 76q0 41 -29.5 67.5t-81.5 26.5h-59q-32 0 -32 23z" />
    <glyph glyph-name="egrave" unicode="&#xe8;" horiz-adv-x="560" 
d="M412 339l-258 -248v-19q0 -14 10.5 -21t20.5 -7q10 -4 15 -8t5 -13q0 -11 -7 -17t-19 -6h-111q-11 -1 -17 -1q-11 0 -17 4.5t-6 19.5q0 13 18 20q11 0 19 5q14 8 14 24v329q0 11 -9.5 20t-23.5 9q-12 5 -15 9t-3 11q0 17 8.5 20.5t15.5 3.5q11 -1 16 -1h111q26 0 26 -23
q0 -9 -5 -13t-15 -8q-10 0 -20.5 -7t-10.5 -21v-248l258 248q0 23 -24.5 28.5t-24.5 20.5q0 14 6 18.5t18 4.5h14h110q10 0 17.5 -6.5t7.5 -16.5q0 -8 -4 -12t-13.5 -8.5t-18.5 -7.5q-13 -7 -13 -21v-329q0 -14 12 -21q3 -1 19 -7q18 -5 18 -21q0 -8 -4 -13q-7 -10 -21 -10
h-110q-20 0 -29 3t-9 20q0 18 14.5 19.5t21.5 6.5q13 8 13 23v267z" />
    <glyph glyph-name="egrave" unicode="&#x438;" horiz-adv-x="560" 
d="M412 339l-258 -248v-19q0 -14 10.5 -21t20.5 -7q10 -4 15 -8t5 -13q0 -11 -7 -17t-19 -6h-111q-11 -1 -17 -1q-11 0 -17 4.5t-6 19.5q0 13 18 20q11 0 19 5q14 8 14 24v329q0 11 -9.5 20t-23.5 9q-12 5 -15 9t-3 11q0 17 8.5 20.5t15.5 3.5q11 -1 16 -1h111q26 0 26 -23
q0 -9 -5 -13t-15 -8q-10 0 -20.5 -7t-10.5 -21v-248l258 248q0 23 -24.5 28.5t-24.5 20.5q0 14 6 18.5t18 4.5h14h110q10 0 17.5 -6.5t7.5 -16.5q0 -8 -4 -12t-13.5 -8.5t-18.5 -7.5q-13 -7 -13 -21v-329q0 -14 12 -21q3 -1 19 -7q18 -5 18 -21q0 -8 -4 -13q-7 -10 -21 -10
h-110q-20 0 -29 3t-9 20q0 18 14.5 19.5t21.5 6.5q13 8 13 23v267z" />
    <glyph glyph-name="eacute" unicode="&#xe9;" horiz-adv-x="560" 
d="M423 646q0 -16 -6.5 -31.5t-18.5 -29.5q-41 -52 -112 -52q-29 0 -55 8.5t-46 25t-35 38t-15 41.5q0 9 6 16t15 7q5 0 38.5 -42.5t92.5 -42.5q24 0 49 14t39 35q11 19 12 20q9 11 20 11q16 0 16 -18zM412 339l-258 -248v-19q0 -14 10.5 -21t20.5 -7q10 -4 15 -8t5 -13
q0 -11 -7 -17t-19 -6h-111q-11 -1 -17 -1q-11 0 -17 4.5t-6 19.5q0 13 18 20q11 0 19 5q14 8 14 24v329q0 11 -9.5 20t-23.5 9q-12 5 -15 9t-3 11q0 17 8.5 20.5t15.5 3.5q11 -1 16 -1h111q26 0 26 -23q0 -9 -5 -13t-15 -8q-10 0 -20.5 -7t-10.5 -21v-248l258 248
q0 23 -24.5 28.5t-24.5 20.5q0 14 6 18.5t18 4.5h14h110q10 0 17.5 -6.5t7.5 -16.5q0 -8 -4 -12t-13.5 -8.5t-18.5 -7.5q-13 -7 -13 -21v-329q0 -14 12 -21q3 -1 19 -7q18 -5 18 -21q0 -8 -4 -13q-7 -10 -21 -10h-110q-20 0 -29 3t-9 20q0 18 14.5 19.5t21.5 6.5q13 8 13 23
v267z" />
    <glyph glyph-name="eacute" unicode="&#x439;" horiz-adv-x="560" 
d="M423 646q0 -16 -6.5 -31.5t-18.5 -29.5q-41 -52 -112 -52q-29 0 -55 8.5t-46 25t-35 38t-15 41.5q0 9 6 16t15 7q5 0 38.5 -42.5t92.5 -42.5q24 0 49 14t39 35q11 19 12 20q9 11 20 11q16 0 16 -18zM412 339l-258 -248v-19q0 -14 10.5 -21t20.5 -7q10 -4 15 -8t5 -13
q0 -11 -7 -17t-19 -6h-111q-11 -1 -17 -1q-11 0 -17 4.5t-6 19.5q0 13 18 20q11 0 19 5q14 8 14 24v329q0 11 -9.5 20t-23.5 9q-12 5 -15 9t-3 11q0 17 8.5 20.5t15.5 3.5q11 -1 16 -1h111q26 0 26 -23q0 -9 -5 -13t-15 -8q-10 0 -20.5 -7t-10.5 -21v-248l258 248
q0 23 -24.5 28.5t-24.5 20.5q0 14 6 18.5t18 4.5h14h110q10 0 17.5 -6.5t7.5 -16.5q0 -8 -4 -12t-13.5 -8.5t-18.5 -7.5q-13 -7 -13 -21v-329q0 -14 12 -21q3 -1 19 -7q18 -5 18 -21q0 -8 -4 -13q-7 -10 -21 -10h-110q-20 0 -29 3t-9 20q0 18 14.5 19.5t21.5 6.5q13 8 13 23
v267z" />
    <glyph glyph-name="ecircumflex" unicode="&#xea;" horiz-adv-x="500" 
d="M152 233q63 48 103 85q75 68 75 97q0 12 -14.5 23t-14.5 20q0 11 10 13t14 2h117q13 0 19.5 -2.5t6.5 -13.5q0 -10 -5.5 -15.5t-17.5 -10.5q-30 -13 -50 -32q-26 -28 -42 -45l-50 -51l-13 -13q47 -44 91 -101q41 -53 77 -114q11 -21 29 -30t18 -23q0 -15 -5 -18.5
t-20 -3.5h-114q-13 0 -20.5 4t-7.5 16q0 11 22 25q11 7 11 16q0 28 -53 96q-44 56 -80 88l-86 -70v-51q0 -16 0.5 -34.5t7.5 -31.5t23 -13q8 -5 13 -9t5 -13q0 -11 -7 -17t-19 -6h-115q-21 0 -27.5 5.5t-6.5 17.5q0 8 4.5 13t13.5 8q17 0 26 14q4 6 5.5 16t1.5 26v24v225v26
q0 16 -1.5 25t-5.5 15q-11 14 -26 14q-10 4 -14 8t-4 13q0 14 9 18.5t25 4.5h115q26 0 26 -23q0 -7 -3 -11t-15 -11q-16 0 -24 -15q-4 -8 -5.5 -19t-1.5 -29v-16v-116z" />
    <glyph glyph-name="ecircumflex" unicode="&#x43a;" horiz-adv-x="500" 
d="M152 233q63 48 103 85q75 68 75 97q0 12 -14.5 23t-14.5 20q0 11 10 13t14 2h117q13 0 19.5 -2.5t6.5 -13.5q0 -10 -5.5 -15.5t-17.5 -10.5q-30 -13 -50 -32q-26 -28 -42 -45l-50 -51l-13 -13q47 -44 91 -101q41 -53 77 -114q11 -21 29 -30t18 -23q0 -15 -5 -18.5
t-20 -3.5h-114q-13 0 -20.5 4t-7.5 16q0 11 22 25q11 7 11 16q0 28 -53 96q-44 56 -80 88l-86 -70v-51q0 -16 0.5 -34.5t7.5 -31.5t23 -13q8 -5 13 -9t5 -13q0 -11 -7 -17t-19 -6h-115q-21 0 -27.5 5.5t-6.5 17.5q0 8 4.5 13t13.5 8q17 0 26 14q4 6 5.5 16t1.5 26v24v225v26
q0 16 -1.5 25t-5.5 15q-11 14 -26 14q-10 4 -14 8t-4 13q0 14 9 18.5t25 4.5h115q26 0 26 -23q0 -7 -3 -11t-15 -11q-16 0 -24 -15q-4 -8 -5.5 -19t-1.5 -29v-16v-116z" />
    <glyph glyph-name="edieresis" unicode="&#xeb;" horiz-adv-x="500" 
d="M146 429q-11 2 -18 7t-7 16q0 21 32 21h291q28 0 28 -21q0 -7 -4 -13t-15.5 -10t-16.5 -7q-13 -7 -13 -22v-327q0 -13 8 -19q3 -2 17 -8t19 -10t5 -15q0 -10 -8.5 -15.5t-20.5 -5.5h-114q-31 0 -31 21q0 16 17.5 21t25 11.5t7.5 19.5v325q0 17 -8 22.5t-22 5.5h-51
q-16 0 -25 -5.5t-17 -17.5q-52 -75 -94 -190q-36 -99 -36 -139q0 -18 23 -28t23 -26q0 -9 -9.5 -14.5t-19.5 -5.5h-91q-6 0 -14.5 5t-8.5 16q0 12 12.5 20.5t15.5 18.5q30 108 59 177q24 58 78 162q4 8 4 13q0 13 -21 17z" />
    <glyph glyph-name="edieresis" unicode="&#x43b;" horiz-adv-x="500" 
d="M146 429q-11 2 -18 7t-7 16q0 21 32 21h291q28 0 28 -21q0 -7 -4 -13t-15.5 -10t-16.5 -7q-13 -7 -13 -22v-327q0 -13 8 -19q3 -2 17 -8t19 -10t5 -15q0 -10 -8.5 -15.5t-20.5 -5.5h-114q-31 0 -31 21q0 16 17.5 21t25 11.5t7.5 19.5v325q0 17 -8 22.5t-22 5.5h-51
q-16 0 -25 -5.5t-17 -17.5q-52 -75 -94 -190q-36 -99 -36 -139q0 -18 23 -28t23 -26q0 -9 -9.5 -14.5t-19.5 -5.5h-91q-6 0 -14.5 5t-8.5 16q0 12 12.5 20.5t15.5 18.5q30 108 59 177q24 58 78 162q4 8 4 13q0 13 -21 17z" />
    <glyph glyph-name="igrave" unicode="&#xec;" horiz-adv-x="620" 
d="M445 442q8 17 12 22q8 9 23 9h87q9 0 17 -6t8 -18q0 -10 -8 -15q-12 -5 -16 -7q-18 -8 -21.5 -12.5t-3.5 -17.5v-324q0 -11 6.5 -17t19 -10.5t13.5 -5.5q10 -6 10 -19q0 -11 -10 -16t-22 -5h-116q-17 0 -21 3q-8 6 -8 17q0 19 17.5 22.5t19.5 4.5q16 7 16 26v298
l-137 -280l-8 -18q-8 -13 -21 -13q-12 0 -20.5 9.5t-15.5 23.5l-136 278v-293q0 -17 9 -25q5 -5 15.5 -8l17.5 -5q14 -6 14 -20q0 -11 -7.5 -15.5t-17.5 -4.5h-102q-17 0 -24 3t-7 18q0 10 5.5 14.5t18.5 8.5t17 7q11 8 11 27v319q0 25 -26 31t-26 24q0 21 25 21h87
q19 0 26 -6t18 -31l129 -270z" />
    <glyph glyph-name="igrave" unicode="&#x43c;" horiz-adv-x="620" 
d="M445 442q8 17 12 22q8 9 23 9h87q9 0 17 -6t8 -18q0 -10 -8 -15q-12 -5 -16 -7q-18 -8 -21.5 -12.5t-3.5 -17.5v-324q0 -11 6.5 -17t19 -10.5t13.5 -5.5q10 -6 10 -19q0 -11 -10 -16t-22 -5h-116q-17 0 -21 3q-8 6 -8 17q0 19 17.5 22.5t19.5 4.5q16 7 16 26v298
l-137 -280l-8 -18q-8 -13 -21 -13q-12 0 -20.5 9.5t-15.5 23.5l-136 278v-293q0 -17 9 -25q5 -5 15.5 -8l17.5 -5q14 -6 14 -20q0 -11 -7.5 -15.5t-17.5 -4.5h-102q-17 0 -24 3t-7 18q0 10 5.5 14.5t18.5 8.5t17 7q11 8 11 27v319q0 25 -26 31t-26 24q0 21 25 21h87
q19 0 26 -6t18 -31l129 -270z" />
    <glyph glyph-name="iacute" unicode="&#xed;" horiz-adv-x="560" 
d="M412 230h-258v-158q0 -14 10.5 -21t20.5 -7q10 -4 15 -8t5 -13q0 -11 -7 -17t-19 -6h-117q-11 -1 -15 -1q-19 0 -19 24q0 13 18 20q11 0 19 5q14 8 14 24v329q0 11 -9.5 20t-23.5 9q-12 5 -15 9t-3 11q0 17 8.5 20.5t15.5 3.5q11 -1 16 -1h111q26 0 26 -23q0 -9 -5 -13
t-15 -8q-10 0 -20.5 -7t-10.5 -21v-127h258v127q0 15 -11 22t-21 7q-17 7 -17 20q0 24 22 24q11 -1 16 -1h110q10 0 17.5 -6.5t7.5 -16.5q0 -8 -4 -12t-13.5 -8.5t-18.5 -7.5q-13 -7 -13 -21v-329q0 -14 12 -21q3 -1 19 -7q18 -5 18 -21q0 -8 -4 -13q-7 -10 -21 -10h-110
q-21 0 -26 2q-12 5 -12 21q0 13 17 20q10 0 21 7t11 22v158z" />
    <glyph glyph-name="iacute" unicode="&#x43d;" horiz-adv-x="560" 
d="M412 230h-258v-158q0 -14 10.5 -21t20.5 -7q10 -4 15 -8t5 -13q0 -11 -7 -17t-19 -6h-117q-11 -1 -15 -1q-19 0 -19 24q0 13 18 20q11 0 19 5q14 8 14 24v329q0 11 -9.5 20t-23.5 9q-12 5 -15 9t-3 11q0 17 8.5 20.5t15.5 3.5q11 -1 16 -1h111q26 0 26 -23q0 -9 -5 -13
t-15 -8q-10 0 -20.5 -7t-10.5 -21v-127h258v127q0 15 -11 22t-21 7q-17 7 -17 20q0 24 22 24q11 -1 16 -1h110q10 0 17.5 -6.5t7.5 -16.5q0 -8 -4 -12t-13.5 -8.5t-18.5 -7.5q-13 -7 -13 -21v-329q0 -14 12 -21q3 -1 19 -7q18 -5 18 -21q0 -8 -4 -13q-7 -10 -21 -10h-110
q-21 0 -26 2q-12 5 -12 21q0 13 17 20q10 0 21 7t11 22v158z" />
    <glyph glyph-name="icircumflex" unicode="&#xee;" horiz-adv-x="560" 
d="M529 236q0 -107 -73 -179t-180 -72q-102 0 -173.5 72.5t-71.5 174.5t74 175t176 73t175 -71t73 -173zM407 99q21 27 31.5 63t10.5 75q0 82 -43 136q-47 58 -127 58q-81 0 -127 -63q-41 -56 -41 -140q0 -82 41 -135q45 -59 125 -59q81 0 130 65z" />
    <glyph glyph-name="icircumflex" unicode="&#x43e;" horiz-adv-x="560" 
d="M529 236q0 -107 -73 -179t-180 -72q-102 0 -173.5 72.5t-71.5 174.5t74 175t176 73t175 -71t73 -173zM407 99q21 27 31.5 63t10.5 75q0 82 -43 136q-47 58 -127 58q-81 0 -127 -63q-41 -56 -41 -140q0 -82 41 -135q45 -59 125 -59q81 0 130 65z" />
    <glyph glyph-name="idieresis" unicode="&#xef;" horiz-adv-x="560" 
d="M185 429q-10 0 -20.5 -7t-10.5 -21v-329q0 -14 10.5 -21t20.5 -7q10 -4 15 -8t5 -13q0 -11 -7 -17t-19 -6h-111q-11 -1 -17 -1q-11 0 -17 4.5t-6 19.5q0 13 18 20q11 0 19 5q14 8 14 24v329q0 11 -9.5 20t-23.5 9q-12 5 -15 9t-3 11q0 17 8.5 20.5t15.5 3.5q11 -1 16 -1
h443q10 0 17.5 -6.5t7.5 -16.5q0 -8 -4 -12t-13.5 -8.5t-18.5 -7.5q-13 -7 -13 -21v-329q0 -11 7 -17q19 -9 24 -11q12 -6 13 -7q5 -5 5 -14q0 -8 -4 -13q-7 -10 -21 -10h-110q-11 -1 -17 -1q-10 0 -15.5 4.5t-5.5 19.5q0 13 17 20q10 0 21 7t11 22v329q0 15 -11 22t-21 7z
" />
    <glyph glyph-name="idieresis" unicode="&#x43f;" horiz-adv-x="560" 
d="M185 429q-10 0 -20.5 -7t-10.5 -21v-329q0 -14 10.5 -21t20.5 -7q10 -4 15 -8t5 -13q0 -11 -7 -17t-19 -6h-111q-11 -1 -17 -1q-11 0 -17 4.5t-6 19.5q0 13 18 20q11 0 19 5q14 8 14 24v329q0 11 -9.5 20t-23.5 9q-12 5 -15 9t-3 11q0 17 8.5 20.5t15.5 3.5q11 -1 16 -1
h443q10 0 17.5 -6.5t7.5 -16.5q0 -8 -4 -12t-13.5 -8.5t-18.5 -7.5q-13 -7 -13 -21v-329q0 -11 7 -17q19 -9 24 -11q12 -6 13 -7q5 -5 5 -14q0 -8 -4 -13q-7 -10 -21 -10h-110q-11 -1 -17 -1q-10 0 -15.5 4.5t-5.5 19.5q0 13 17 20q10 0 21 7t11 22v329q0 15 -11 22t-21 7z
" />
    <glyph glyph-name="eth" unicode="&#xf0;" horiz-adv-x="580" 
d="M170 -74q0 -16 0.5 -34.5t5.5 -27.5t25 -18q12 -5 15.5 -9.5t3.5 -11.5q0 -21 -25 -21h-120q-17 0 -22.5 3t-5.5 18q0 12 16 21q20 0 26 18.5t6 51.5v406v13q0 32 -6 46q-9 22 -36 25q-19 4 -21 5q-7 4 -7 12q0 18 34 37.5t53 19.5q27 0 41 -31q5 -11 16 -55q38 43 72 62
q42 24 94 24q93 0 156 -71q30 -34 43.5 -77t13.5 -92q0 -53 -13 -96.5t-44.5 -80t-78.5 -57.5t-97 -21q-46 0 -85 18q-30 14 -30 34q0 8 5.5 15.5t12.5 7.5q9 0 21 -7q36 -17 82 -17q32 0 61 15.5t48 42.5t28.5 64t9.5 74q0 80 -32 130q-39 60 -115 60q-62 0 -106 -39
q-26 -23 -35.5 -50t-9.5 -65v-342z" />
    <glyph glyph-name="eth" unicode="&#x440;" horiz-adv-x="580" 
d="M170 -74q0 -16 0.5 -34.5t5.5 -27.5t25 -18q12 -5 15.5 -9.5t3.5 -11.5q0 -21 -25 -21h-120q-17 0 -22.5 3t-5.5 18q0 12 16 21q20 0 26 18.5t6 51.5v406v13q0 32 -6 46q-9 22 -36 25q-19 4 -21 5q-7 4 -7 12q0 18 34 37.5t53 19.5q27 0 41 -31q5 -11 16 -55q38 43 72 62
q42 24 94 24q93 0 156 -71q30 -34 43.5 -77t13.5 -92q0 -53 -13 -96.5t-44.5 -80t-78.5 -57.5t-97 -21q-46 0 -85 18q-30 14 -30 34q0 8 5.5 15.5t12.5 7.5q9 0 21 -7q36 -17 82 -17q32 0 61 15.5t48 42.5t28.5 64t9.5 74q0 80 -32 130q-39 60 -115 60q-62 0 -106 -39
q-26 -23 -35.5 -50t-9.5 -65v-342z" />
    <glyph glyph-name="ntilde" unicode="&#xf1;" horiz-adv-x="460" 
d="M251 431q-32 0 -59.5 -18t-45.5 -47.5t-27.5 -68.5t-9.5 -78q0 -72 41.5 -124t112.5 -52q35 0 68.5 14t55.5 41q9 12 13 15q9 8 19 8q17 0 17 -18q0 -13 -12.5 -30t-26.5 -30q-64 -58 -147 -58q-102 0 -161.5 66.5t-59.5 170.5q0 107 68.5 182.5t174.5 75.5q62 0 110 -33
q17 -11 28.5 -27t11.5 -34q0 -14 -10.5 -26.5t-23.5 -12.5q-16 0 -25 8q-11 14 -18 22q-23 29 -39 40q-21 14 -55 14z" />
    <glyph glyph-name="ntilde" unicode="&#x441;" horiz-adv-x="460" 
d="M251 431q-32 0 -59.5 -18t-45.5 -47.5t-27.5 -68.5t-9.5 -78q0 -72 41.5 -124t112.5 -52q35 0 68.5 14t55.5 41q9 12 13 15q9 8 19 8q17 0 17 -18q0 -13 -12.5 -30t-26.5 -30q-64 -58 -147 -58q-102 0 -161.5 66.5t-59.5 170.5q0 107 68.5 182.5t174.5 75.5q62 0 110 -33
q17 -11 28.5 -27t11.5 -34q0 -14 -10.5 -26.5t-23.5 -12.5q-16 0 -25 8q-11 14 -18 22q-23 29 -39 40q-21 14 -55 14z" />
    <glyph glyph-name="ograve" unicode="&#xf2;" horiz-adv-x="431" 
d="M283 44q11 0 18.5 -5.5t7.5 -17.5q0 -11 -9 -16t-22 -5h-125q-14 0 -22.5 2t-8.5 19q0 12 9.5 17t15.5 5q31 0 31 32v320q0 24 -3 28t-20 4q-37 0 -61.5 -7t-51.5 -29q-5 -5 -9 -8q-8 -7 -16 -7q-21 0 -21 22q0 21 5 40q9 35 29 35h370q16 0 25.5 -22t9.5 -53
q0 -7 -5.5 -13.5t-13.5 -6.5q-9 0 -16 5.5t-10 8.5q-29 24 -53 29.5t-60 5.5q-18 0 -21 -4.5t-3 -31.5v-316q0 -15 10 -23t20 -8z" />
    <glyph glyph-name="ograve" unicode="&#x442;" horiz-adv-x="431" 
d="M283 44q11 0 18.5 -5.5t7.5 -17.5q0 -11 -9 -16t-22 -5h-125q-14 0 -22.5 2t-8.5 19q0 12 9.5 17t15.5 5q31 0 31 32v320q0 24 -3 28t-20 4q-37 0 -61.5 -7t-51.5 -29q-5 -5 -9 -8q-8 -7 -16 -7q-21 0 -21 22q0 21 5 40q9 35 29 35h370q16 0 25.5 -22t9.5 -53
q0 -7 -5.5 -13.5t-13.5 -6.5q-9 0 -16 5.5t-10 8.5q-29 24 -53 29.5t-60 5.5q-18 0 -21 -4.5t-3 -31.5v-316q0 -15 10 -23t20 -8z" />
    <glyph glyph-name="oacute" unicode="&#xf3;" horiz-adv-x="480" 
d="M49 379q-4 27 -5 31q-5 15 -18 24q-6 4 -11.5 9t-5.5 12q0 13 8.5 15.5t17.5 2.5h106q10 0 16.5 -3.5t6.5 -12.5q0 -10 -12 -20q-27 -22 -27 -59q0 -28 13.5 -91t25.5 -96q9 -23 22 -46t28 -39q10 -12 27 -23.5t31 -11.5q30 0 53 36q14 21 27 63q14 39 28.5 98.5
t14.5 96.5q0 54 -32 71q-16 8 -16 22q0 15 22 15h88q22 0 22 -14l-3 -14q-8 -16 -12.5 -26.5t-6.5 -25.5l-14 -85q-12 -74 -43 -158.5t-70 -155.5q-43 -77 -98 -130q-72 -69 -143 -69q-22 0 -38.5 10t-16.5 31q0 14 10 25t25 11q8 0 26 -4t28 -4q45 0 100 60q51 55 66 105
q-17 -6 -25 -8t-21 -2q-40 0 -77 35q-30 28 -51 69.5t-37 98t-23 109.5z" />
    <glyph glyph-name="oacute" unicode="&#x443;" horiz-adv-x="480" 
d="M49 379q-4 27 -5 31q-5 15 -18 24q-6 4 -11.5 9t-5.5 12q0 13 8.5 15.5t17.5 2.5h106q10 0 16.5 -3.5t6.5 -12.5q0 -10 -12 -20q-27 -22 -27 -59q0 -28 13.5 -91t25.5 -96q9 -23 22 -46t28 -39q10 -12 27 -23.5t31 -11.5q30 0 53 36q14 21 27 63q14 39 28.5 98.5
t14.5 96.5q0 54 -32 71q-16 8 -16 22q0 15 22 15h88q22 0 22 -14l-3 -14q-8 -16 -12.5 -26.5t-6.5 -25.5l-14 -85q-12 -74 -43 -158.5t-70 -155.5q-43 -77 -98 -130q-72 -69 -143 -69q-22 0 -38.5 10t-16.5 31q0 14 10 25t25 11q8 0 26 -4t28 -4q45 0 100 60q51 55 66 105
q-17 -6 -25 -8t-21 -2q-40 0 -77 35q-30 28 -51 69.5t-37 98t-23 109.5z" />
    <glyph glyph-name="ocircumflex" unicode="&#xf4;" horiz-adv-x="820" 
d="M373 44q-20 -22 -58.5 -40.5t-66.5 -18.5q-95 0 -154 72t-59 183q0 99 54 169.5t139 70.5q41 0 80.5 -22t65.5 -64l-1 164v13q0 32 -6 46q-9 22 -36 25q-28 0 -28 17q0 18 34 37.5t53 19.5q28 0 44 -31q13 -25 13 -55v-236q26 43 64.5 64.5t81.5 21.5q84 0 138.5 -71
t54.5 -169q0 -111 -59 -183t-154 -72q-30 0 -66.5 18t-58.5 41v-118q0 -16 0.5 -34.5t5.5 -27.5t25 -18q12 -5 15.5 -9.5t3.5 -11.5q0 -21 -25 -21h-120q-17 0 -22.5 3t-5.5 18q0 12 16 21q20 0 26 18.5t6 51.5v128zM373 268q0 62 -32 105q-36 49 -99 49t-97 -59
q-30 -52 -30 -131q0 -75 31 -131q36 -65 96 -65q56 0 99 36q14 12 32 36v160zM448 108q18 -24 32 -36q43 -36 99 -36q59 0 95 64q32 57 32 132q0 78 -30 130q-34 60 -97 60q-61 0 -98 -49q-33 -44 -33 -105v-160z" />
    <glyph glyph-name="ocircumflex" unicode="&#x444;" horiz-adv-x="820" 
d="M373 44q-20 -22 -58.5 -40.5t-66.5 -18.5q-95 0 -154 72t-59 183q0 99 54 169.5t139 70.5q41 0 80.5 -22t65.5 -64l-1 164v13q0 32 -6 46q-9 22 -36 25q-28 0 -28 17q0 18 34 37.5t53 19.5q28 0 44 -31q13 -25 13 -55v-236q26 43 64.5 64.5t81.5 21.5q84 0 138.5 -71
t54.5 -169q0 -111 -59 -183t-154 -72q-30 0 -66.5 18t-58.5 41v-118q0 -16 0.5 -34.5t5.5 -27.5t25 -18q12 -5 15.5 -9.5t3.5 -11.5q0 -21 -25 -21h-120q-17 0 -22.5 3t-5.5 18q0 12 16 21q20 0 26 18.5t6 51.5v128zM373 268q0 62 -32 105q-36 49 -99 49t-97 -59
q-30 -52 -30 -131q0 -75 31 -131q36 -65 96 -65q56 0 99 36q14 12 32 36v160zM448 108q18 -24 32 -36q43 -36 99 -36q59 0 95 64q32 57 32 132q0 78 -30 130q-34 60 -97 60q-61 0 -98 -49q-33 -44 -33 -105v-160z" />
    <glyph glyph-name="otilde" unicode="&#xf5;" horiz-adv-x="500" 
d="M88 366q-24 34 -26 37q-15 17 -35 28q-11 6 -13 9q-5 6 -5 17q0 10 6 13t18 3h117q13 0 18 -2.5t5 -14.5q0 -9 -12 -19t-12 -19q0 -18 41 -67q5 -6 58 -64q28 29 54 63q38 49 38 68q0 9 -15.5 18t-15.5 21q0 8 5 12t21 4h92q14 0 19.5 -3t5.5 -14q0 -12 -17 -21.5
t-23 -14.5t-17 -21l-116 -145l113 -133q21 -28 31.5 -40t17.5 -18.5t17.5 -11.5t20 -9.5t11.5 -8t2 -12.5q0 -13 -7.5 -17t-20.5 -4h-120q-25 0 -25 19q0 9 12.5 20.5t12.5 19.5q0 14 -43 63q-10 11 -56 60l-17 18q-30 -32 -56 -64q-40 -50 -40 -70q0 -15 18.5 -25.5
t18.5 -22.5q0 -11 -7 -14.5t-20 -3.5h-113q-21 0 -21 21q0 8 4.5 13t13.5 8q20 10 26 15t21 26l124 151z" />
    <glyph glyph-name="otilde" unicode="&#x445;" horiz-adv-x="500" 
d="M88 366q-24 34 -26 37q-15 17 -35 28q-11 6 -13 9q-5 6 -5 17q0 10 6 13t18 3h117q13 0 18 -2.5t5 -14.5q0 -9 -12 -19t-12 -19q0 -18 41 -67q5 -6 58 -64q28 29 54 63q38 49 38 68q0 9 -15.5 18t-15.5 21q0 8 5 12t21 4h92q14 0 19.5 -3t5.5 -14q0 -12 -17 -21.5
t-23 -14.5t-17 -21l-116 -145l113 -133q21 -28 31.5 -40t17.5 -18.5t17.5 -11.5t20 -9.5t11.5 -8t2 -12.5q0 -13 -7.5 -17t-20.5 -4h-120q-25 0 -25 19q0 9 12.5 20.5t12.5 19.5q0 14 -43 63q-10 11 -56 60l-17 18q-30 -32 -56 -64q-40 -50 -40 -70q0 -15 18.5 -25.5
t18.5 -22.5q0 -11 -7 -14.5t-20 -3.5h-113q-21 0 -21 21q0 8 4.5 13t13.5 8q20 10 26 15t21 26l124 151z" />
    <glyph glyph-name="odieresis" unicode="&#xf6;" horiz-adv-x="560" 
d="M68 0h-13q-12 0 -15 1q-12 4 -12 22q0 13 18 20q11 0 19 5q14 8 14 24v329q0 11 -9.5 20t-23.5 9q-12 5 -15 9t-3 11q0 17 8.5 20.5t15.5 3.5q11 -1 16 -1h111q26 0 26 -23q0 -9 -5 -13t-15 -8q-10 0 -20.5 -7t-10.5 -21v-329q0 -28 31 -28h195q16 0 24 5.5t8 22.5v329
q0 15 -11 22t-21 7q-17 7 -17 20q0 14 6 18.5t18 4.5h14h110q25 0 25 -23q0 -8 -4 -12t-13.5 -8.5t-18.5 -7.5q-13 -7 -13 -21v-329q0 -15 18 -23q11 -5 23 -10q10 -9 14.5 -33t4.5 -35q0 -7 -5.5 -13.5t-13.5 -6.5q-9 0 -15.5 5t-11.5 9q-25 19 -49 27t-59 8h-325z" />
    <glyph glyph-name="odieresis" unicode="&#x446;" horiz-adv-x="560" 
d="M68 0h-13q-12 0 -15 1q-12 4 -12 22q0 13 18 20q11 0 19 5q14 8 14 24v329q0 11 -9.5 20t-23.5 9q-12 5 -15 9t-3 11q0 17 8.5 20.5t15.5 3.5q11 -1 16 -1h111q26 0 26 -23q0 -9 -5 -13t-15 -8q-10 0 -20.5 -7t-10.5 -21v-329q0 -28 31 -28h195q16 0 24 5.5t8 22.5v329
q0 15 -11 22t-21 7q-17 7 -17 20q0 14 6 18.5t18 4.5h14h110q25 0 25 -23q0 -8 -4 -12t-13.5 -8.5t-18.5 -7.5q-13 -7 -13 -21v-329q0 -15 18 -23q11 -5 23 -10q10 -9 14.5 -33t4.5 -35q0 -7 -5.5 -13.5t-13.5 -6.5q-9 0 -15.5 5t-11.5 9q-25 19 -49 27t-59 8h-325z" />
    <glyph glyph-name="divide" unicode="&#xf7;" horiz-adv-x="500" 
d="M50 413q2 13 -13.5 16t-21.5 8.5t-6 14.5q0 11 7 16t24 5h93q14 0 22.5 -3.5t8.5 -17.5q0 -10 -4.5 -14t-15 -8t-15 -9.5t-5.5 -20.5q-4 -21 -5 -34q-5 -41 -5 -73q0 -39 28 -57.5t80 -18.5q37 0 85 16q16 5 41 17v151q0 14 -8 19.5t-15 7.5l-14 4q-12 6 -12 20
q0 13 8.5 17t24.5 4h109q14 0 22.5 -4t8.5 -17q0 -17 -22 -25q-9 -4 -18 -7q-9 -6 -9 -20v-328q0 -10 6.5 -16t18 -9.5t18 -9t6.5 -16.5q0 -21 -31 -21h-112q-13 0 -22 4t-9 17q0 10 6.5 15.5t18 8t18.5 8.5t7 20v132q-29 -13 -48 -19q-59 -20 -102 -20q-74 0 -113 28
q-45 32 -45 99q0 32 5 79q1 15 5 41z" />
    <glyph glyph-name="divide" unicode="&#x447;" horiz-adv-x="500" 
d="M50 413q2 13 -13.5 16t-21.5 8.5t-6 14.5q0 11 7 16t24 5h93q14 0 22.5 -3.5t8.5 -17.5q0 -10 -4.5 -14t-15 -8t-15 -9.5t-5.5 -20.5q-4 -21 -5 -34q-5 -41 -5 -73q0 -39 28 -57.5t80 -18.5q37 0 85 16q16 5 41 17v151q0 14 -8 19.5t-15 7.5l-14 4q-12 6 -12 20
q0 13 8.5 17t24.5 4h109q14 0 22.5 -4t8.5 -17q0 -17 -22 -25q-9 -4 -18 -7q-9 -6 -9 -20v-328q0 -10 6.5 -16t18 -9.5t18 -9t6.5 -16.5q0 -21 -31 -21h-112q-13 0 -22 4t-9 17q0 10 6.5 15.5t18 8t18.5 8.5t7 20v132q-29 -13 -48 -19q-59 -20 -102 -20q-74 0 -113 28
q-45 32 -45 99q0 32 5 79q1 15 5 41z" />
    <glyph glyph-name="oslash" unicode="&#xf8;" horiz-adv-x="720" 
d="M296 44q9 0 18 8t9 20v329q0 15 -11 22t-21 7q-17 7 -17 20q0 24 22 24q11 -1 16 -1h110q10 0 17.5 -6.5t7.5 -16.5q0 -8 -4 -12t-13.5 -8.5t-18.5 -7.5q-13 -7 -13 -21v-329q0 -11 7 -17q19 -9 24 -11l107 -1q10 0 21 7t11 22v329q0 15 -11 22t-21 7q-17 7 -17 20
q0 24 22 24q11 -1 16 -1h110q10 0 17.5 -6.5t7.5 -16.5q0 -8 -4 -12t-13.5 -8.5t-18.5 -7.5q-13 -7 -13 -21v-329q0 -11 7 -17q19 -9 24 -11q12 -6 13 -7q5 -5 5 -14q0 -8 -4 -13q-7 -10 -21 -10h-599q-11 -1 -17 -1q-11 0 -17 4.5t-6 19.5q0 13 18 20q11 0 19 5q14 8 14 24
v329q0 11 -9.5 20t-23.5 9q-12 5 -15 9t-3 11q0 17 8.5 20.5t15.5 3.5q11 -1 16 -1h111q26 0 26 -23q0 -9 -5 -13t-15 -8q-10 0 -20.5 -7t-10.5 -21v-329q0 -11 9 -19.5t24 -8.5h109z" />
    <glyph glyph-name="oslash" unicode="&#x448;" horiz-adv-x="720" 
d="M296 44q9 0 18 8t9 20v329q0 15 -11 22t-21 7q-17 7 -17 20q0 24 22 24q11 -1 16 -1h110q10 0 17.5 -6.5t7.5 -16.5q0 -8 -4 -12t-13.5 -8.5t-18.5 -7.5q-13 -7 -13 -21v-329q0 -11 7 -17q19 -9 24 -11l107 -1q10 0 21 7t11 22v329q0 15 -11 22t-21 7q-17 7 -17 20
q0 24 22 24q11 -1 16 -1h110q10 0 17.5 -6.5t7.5 -16.5q0 -8 -4 -12t-13.5 -8.5t-18.5 -7.5q-13 -7 -13 -21v-329q0 -11 7 -17q19 -9 24 -11q12 -6 13 -7q5 -5 5 -14q0 -8 -4 -13q-7 -10 -21 -10h-599q-11 -1 -17 -1q-11 0 -17 4.5t-6 19.5q0 13 18 20q11 0 19 5q14 8 14 24
v329q0 11 -9.5 20t-23.5 9q-12 5 -15 9t-3 11q0 17 8.5 20.5t15.5 3.5q11 -1 16 -1h111q26 0 26 -23q0 -9 -5 -13t-15 -8q-10 0 -20.5 -7t-10.5 -21v-329q0 -11 9 -19.5t24 -8.5h109z" />
    <glyph glyph-name="ugrave" unicode="&#xf9;" horiz-adv-x="720" 
d="M68 0q-11 -1 -17 -1q-11 0 -17 4.5t-6 19.5q0 13 18 20q11 0 19 5q14 8 14 24v329q0 11 -9.5 20t-23.5 9q-12 5 -15 9t-3 11q0 17 8.5 20.5t15.5 3.5q11 -1 16 -1h111q26 0 26 -23q0 -9 -5 -13t-15 -8q-10 0 -20.5 -7t-10.5 -21v-329q0 -28 31 -28h111q27 0 27 28v329
q0 15 -11 22t-21 7q-17 7 -17 20q0 24 22 24q11 -1 16 -1h110q10 0 17.5 -6.5t7.5 -16.5q0 -8 -4 -12t-13.5 -8.5t-18.5 -7.5q-13 -7 -13 -21v-329q0 -17 6.5 -22.5t24.5 -5.5h107q16 0 24 5.5t8 22.5v329q0 15 -11 22t-21 7q-17 7 -17 20q0 24 22 24q11 -1 16 -1h110
q10 0 17.5 -6.5t7.5 -16.5q0 -8 -4 -12t-13.5 -8.5t-18.5 -7.5q-13 -7 -13 -21v-329q0 -15 18 -23q11 -5 23 -10q10 -9 14.5 -33t4.5 -35q0 -7 -5.5 -13.5t-13.5 -6.5q-9 0 -15.5 5t-11.5 9q-25 19 -49 27t-59 8h-481z" />
    <glyph glyph-name="ugrave" unicode="&#x449;" horiz-adv-x="720" 
d="M68 0q-11 -1 -17 -1q-11 0 -17 4.5t-6 19.5q0 13 18 20q11 0 19 5q14 8 14 24v329q0 11 -9.5 20t-23.5 9q-12 5 -15 9t-3 11q0 17 8.5 20.5t15.5 3.5q11 -1 16 -1h111q26 0 26 -23q0 -9 -5 -13t-15 -8q-10 0 -20.5 -7t-10.5 -21v-329q0 -28 31 -28h111q27 0 27 28v329
q0 15 -11 22t-21 7q-17 7 -17 20q0 24 22 24q11 -1 16 -1h110q10 0 17.5 -6.5t7.5 -16.5q0 -8 -4 -12t-13.5 -8.5t-18.5 -7.5q-13 -7 -13 -21v-329q0 -17 6.5 -22.5t24.5 -5.5h107q16 0 24 5.5t8 22.5v329q0 15 -11 22t-21 7q-17 7 -17 20q0 24 22 24q11 -1 16 -1h110
q10 0 17.5 -6.5t7.5 -16.5q0 -8 -4 -12t-13.5 -8.5t-18.5 -7.5q-13 -7 -13 -21v-329q0 -15 18 -23q11 -5 23 -10q10 -9 14.5 -33t4.5 -35q0 -7 -5.5 -13.5t-13.5 -6.5q-9 0 -15.5 5t-11.5 9q-25 19 -49 27t-59 8h-481z" />
    <glyph glyph-name="uacute" unicode="&#xfa;" horiz-adv-x="500" 
d="M118 427q-25 0 -43.5 -7.5t-42.5 -28.5q-6 -6 -11.5 -10.5t-13.5 -4.5q-21 0 -21 22q6 34 10 46q10 29 29 29h206q17 0 24.5 -5t7.5 -16q0 -14 -9 -19.5t-19 -5.5q-5 0 -10 -3q-13 -8 -13 -25v-102q51 0 94.5 -6.5t86.5 -26.5t72 -53q33 -38 33 -84q0 -73 -71 -105
q-27 -13 -57 -17.5t-68 -4.5h-186q-11 0 -20.5 4t-9.5 17q0 11 8.5 16.5t17.5 5.5t15 5q10 8 10 25v327q0 13 -3.5 20t-15.5 7zM212 251v-163v-21q2 -7 11.5 -12.5t25.5 -6.5t34 -1q30 0 51 3.5t40 14.5q41 25 41 69q0 59 -70 91q-57 26 -133 26z" />
    <glyph glyph-name="uacute" unicode="&#x44a;" horiz-adv-x="500" 
d="M118 427q-25 0 -43.5 -7.5t-42.5 -28.5q-6 -6 -11.5 -10.5t-13.5 -4.5q-21 0 -21 22q6 34 10 46q10 29 29 29h206q17 0 24.5 -5t7.5 -16q0 -14 -9 -19.5t-19 -5.5q-5 0 -10 -3q-13 -8 -13 -25v-102q51 0 94.5 -6.5t86.5 -26.5t72 -53q33 -38 33 -84q0 -73 -71 -105
q-27 -13 -57 -17.5t-68 -4.5h-186q-11 0 -20.5 4t-9.5 17q0 11 8.5 16.5t17.5 5.5t15 5q10 8 10 25v327q0 13 -3.5 20t-15.5 7zM212 251v-163v-21q2 -7 11.5 -12.5t25.5 -6.5t34 -1q30 0 51 3.5t40 14.5q41 25 41 69q0 59 -70 91q-57 26 -133 26z" />
    <glyph glyph-name="ucircumflex" unicode="&#xfb;" horiz-adv-x="660" 
d="M581 72q0 -14 10.5 -21t20.5 -7q10 -4 15 -8t5 -13q0 -11 -7 -17t-19 -6h-111q-11 -1 -17 -1q-11 0 -17 4.5t-6 19.5q0 13 18 20q11 0 19 5q14 8 14 24v329q0 11 -9.5 20t-23.5 9q-12 5 -15 9t-3 11q0 17 8.5 20.5t15.5 3.5q11 -1 16 -1h111q26 0 26 -23q0 -9 -5 -13
t-15 -8q-10 0 -20.5 -7t-10.5 -21v-329zM154 399v-102q51 0 94.5 -6.5t86.5 -26.5t72 -53q33 -38 33 -84q0 -73 -71 -105q-27 -13 -57 -17.5t-68 -4.5h-186q-11 0 -20.5 4t-9.5 17q0 8 5.5 13.5t25.5 9.5t20 29v327q0 14 -8 20.5t-18 8.5t-17.5 8t-7.5 15q0 13 8 17t21 4
h116q17 0 24.5 -5t7.5 -16q0 -13 -10 -19q-3 -2 -15 -5t-13 -4q-13 -8 -13 -25zM154 251v-163v-21q2 -7 11.5 -12.5t25.5 -6.5t34 -1q30 0 51 3.5t40 14.5q41 25 41 69q0 59 -70 91q-57 26 -133 26z" />
    <glyph glyph-name="ucircumflex" unicode="&#x44b;" horiz-adv-x="660" 
d="M581 72q0 -14 10.5 -21t20.5 -7q10 -4 15 -8t5 -13q0 -11 -7 -17t-19 -6h-111q-11 -1 -17 -1q-11 0 -17 4.5t-6 19.5q0 13 18 20q11 0 19 5q14 8 14 24v329q0 11 -9.5 20t-23.5 9q-12 5 -15 9t-3 11q0 17 8.5 20.5t15.5 3.5q11 -1 16 -1h111q26 0 26 -23q0 -9 -5 -13
t-15 -8q-10 0 -20.5 -7t-10.5 -21v-329zM154 399v-102q51 0 94.5 -6.5t86.5 -26.5t72 -53q33 -38 33 -84q0 -73 -71 -105q-27 -13 -57 -17.5t-68 -4.5h-186q-11 0 -20.5 4t-9.5 17q0 8 5.5 13.5t25.5 9.5t20 29v327q0 14 -8 20.5t-18 8.5t-17.5 8t-7.5 15q0 13 8 17t21 4
h116q17 0 24.5 -5t7.5 -16q0 -13 -10 -19q-3 -2 -15 -5t-13 -4q-13 -8 -13 -25zM154 251v-163v-21q2 -7 11.5 -12.5t25.5 -6.5t34 -1q30 0 51 3.5t40 14.5q41 25 41 69q0 59 -70 91q-57 26 -133 26z" />
    <glyph glyph-name="udieresis" unicode="&#xfc;" horiz-adv-x="440" 
d="M154 399v-102q51 0 94.5 -6.5t86.5 -26.5t72 -53q33 -38 33 -84q0 -73 -71 -105q-27 -13 -57 -17.5t-68 -4.5h-186q-11 0 -20.5 4t-9.5 17q0 8 5.5 13.5t25.5 9.5t20 29v327q0 14 -8 20.5t-18 8.5t-17.5 8t-7.5 15q0 13 8 17t21 4h116q17 0 24.5 -5t7.5 -16
q0 -13 -10 -19q-3 -2 -15 -5t-13 -4q-13 -8 -13 -25zM154 251v-163v-21q2 -7 11.5 -12.5t25.5 -6.5t34 -1q30 0 51 3.5t40 14.5q41 25 41 69q0 59 -70 91q-57 26 -133 26z" />
    <glyph glyph-name="udieresis" unicode="&#x44c;" horiz-adv-x="440" 
d="M154 399v-102q51 0 94.5 -6.5t86.5 -26.5t72 -53q33 -38 33 -84q0 -73 -71 -105q-27 -13 -57 -17.5t-68 -4.5h-186q-11 0 -20.5 4t-9.5 17q0 8 5.5 13.5t25.5 9.5t20 29v327q0 14 -8 20.5t-18 8.5t-17.5 8t-7.5 15q0 13 8 17t21 4h116q17 0 24.5 -5t7.5 -16
q0 -13 -10 -19q-3 -2 -15 -5t-13 -4q-13 -8 -13 -25zM154 251v-163v-21q2 -7 11.5 -12.5t25.5 -6.5t34 -1q30 0 51 3.5t40 14.5q41 25 41 69q0 59 -70 91q-57 26 -133 26z" />
    <glyph glyph-name="yacute" unicode="&#xfd;" horiz-adv-x="460" 
d="M348 276q0 14 -10.5 41t-23.5 48q-17 29 -45 47.5t-60 18.5q-33 0 -55 -14q-16 -11 -39 -40q-7 -9 -13 -17q-11 -13 -30 -13q-14 0 -24 12t-10 27q0 18 11 34t29 27q48 33 110 33q106 0 174.5 -75.5t68.5 -182.5q0 -103 -58 -168q-61 -69 -163 -69q-83 0 -147 58
q-13 12 -24 27q-15 20 -15 33q0 18 17 18q10 0 18 -7q4 -3 14 -16q46 -55 124 -55q70 0 112 52t42 135h-194q-24 0 -24 22q0 24 24 24h191z" />
    <glyph glyph-name="yacute" unicode="&#x44d;" horiz-adv-x="460" 
d="M348 276q0 14 -10.5 41t-23.5 48q-17 29 -45 47.5t-60 18.5q-33 0 -55 -14q-16 -11 -39 -40q-7 -9 -13 -17q-11 -13 -30 -13q-14 0 -24 12t-10 27q0 18 11 34t29 27q48 33 110 33q106 0 174.5 -75.5t68.5 -182.5q0 -103 -58 -168q-61 -69 -163 -69q-83 0 -147 58
q-13 12 -24 27q-15 20 -15 33q0 18 17 18q10 0 18 -7q4 -3 14 -16q46 -55 124 -55q70 0 112 52t42 135h-194q-24 0 -24 22q0 24 24 24h191z" />
    <glyph glyph-name="thorn" unicode="&#xfe;" horiz-adv-x="760" 
d="M234 275q16 87 86 146t161 59q102 0 175 -71t73 -173q0 -107 -73 -179t-180 -72q-101 0 -173 72t-72 173h-77v-158q0 -14 10.5 -21t20.5 -7q10 -4 15 -8t5 -13q0 -11 -7 -17t-19 -6h-111q-11 -1 -17 -1q-11 0 -17 4.5t-6 19.5q0 13 18 20q11 0 19 5q14 8 14 24v329
q0 11 -9.5 20t-23.5 9q-12 5 -15 9t-3 11q0 17 8.5 20.5t15.5 3.5q11 -1 16 -1h111q26 0 26 -23q0 -9 -5 -13t-15 -8q-10 0 -20.5 -7t-10.5 -21v-126h80zM607 99q21 27 31.5 63t10.5 75q0 82 -43 136q-47 58 -127 58q-81 0 -127 -63q-41 -56 -41 -140q0 -82 41 -135
q45 -59 125 -59q81 0 130 65z" />
    <glyph glyph-name="thorn" unicode="&#x44e;" horiz-adv-x="760" 
d="M234 275q16 87 86 146t161 59q102 0 175 -71t73 -173q0 -107 -73 -179t-180 -72q-101 0 -173 72t-72 173h-77v-158q0 -14 10.5 -21t20.5 -7q10 -4 15 -8t5 -13q0 -11 -7 -17t-19 -6h-111q-11 -1 -17 -1q-11 0 -17 4.5t-6 19.5q0 13 18 20q11 0 19 5q14 8 14 24v329
q0 11 -9.5 20t-23.5 9q-12 5 -15 9t-3 11q0 17 8.5 20.5t15.5 3.5q11 -1 16 -1h111q26 0 26 -23q0 -9 -5 -13t-15 -8q-10 0 -20.5 -7t-10.5 -21v-126h80zM607 99q21 27 31.5 63t10.5 75q0 82 -43 136q-47 58 -127 58q-81 0 -127 -63q-41 -56 -41 -140q0 -82 41 -135
q45 -59 125 -59q81 0 130 65z" />
    <glyph glyph-name="ydieresis" unicode="&#xff;" horiz-adv-x="500" 
d="M235 214q-21 -21 -59 -83t-38 -75q0 -5 16 -12t19 -24q0 -14 -9.5 -17t-24.5 -3h-104q-12 0 -21 3t-9 17q0 11 7.5 16t14.5 5q8 2 17 12t15 22q22 43 53 92q22 34 46 67q-46 21 -72 48q-33 34 -33 79q0 28 13.5 50.5t37.5 37.5t49 19.5t58 4.5h229q19 0 25 -5t6 -16
q0 -12 -9 -18q-4 -3 -18 -8.5t-18.5 -10t-4.5 -14.5v-328q0 -9 5 -15t23 -13q9 -4 15 -9t6 -15t-9.5 -15.5t-21.5 -5.5h-109h-18q-15 2 -15 21q0 12 7.5 16.5t16.5 7t15 7.5q10 8 10 19v127zM337 419q-6 4 -25.5 5.5t-41.5 1.5q-75 0 -107 -21q-27 -18 -27 -52q0 -52 77 -80
q43 -16 133 -29v142q0 15 -1.5 22.5t-7.5 10.5z" />
    <glyph glyph-name="ydieresis" unicode="&#x44f;" horiz-adv-x="500" 
d="M235 214q-21 -21 -59 -83t-38 -75q0 -5 16 -12t19 -24q0 -14 -9.5 -17t-24.5 -3h-104q-12 0 -21 3t-9 17q0 11 7.5 16t14.5 5q8 2 17 12t15 22q22 43 53 92q22 34 46 67q-46 21 -72 48q-33 34 -33 79q0 28 13.5 50.5t37.5 37.5t49 19.5t58 4.5h229q19 0 25 -5t6 -16
q0 -12 -9 -18q-4 -3 -18 -8.5t-18.5 -10t-4.5 -14.5v-328q0 -9 5 -15t23 -13q9 -4 15 -9t6 -15t-9.5 -15.5t-21.5 -5.5h-109h-18q-15 2 -15 21q0 12 7.5 16.5t16.5 7t15 7.5q10 8 10 19v127zM337 419q-6 4 -25.5 5.5t-41.5 1.5q-75 0 -107 -21q-27 -18 -27 -52q0 -52 77 -80
q43 -16 133 -29v142q0 15 -1.5 22.5t-7.5 10.5z" />
    <glyph glyph-name="OE" unicode="&#x152;" horiz-adv-x="1140" 
d="M703 129q0 -30 3.5 -42t20.5 -21t40.5 -11.5t51.5 -2.5q45 0 77.5 6t63 25.5t48.5 51t18 67.5q0 104 -115 157q-89 41 -208 41v-271zM613 372h-433v-301q0 -9 11 -15q15 -6 21 -8q15 -6 19 -8q8 -6 8 -17t-7.5 -17t-28.5 -6h-138q-17 0 -26.5 4t-9.5 19q0 12 9 17t17 7
q27 8 31 16.5t4 42.5v555q0 8 -5 12t-27 11q-8 2 -15 5q-14 6 -14 21q0 11 7.5 16.5t29.5 5.5h138q16 0 25.5 -4t9.5 -18q0 -11 -7 -17q-3 -3 -21.5 -9.5t-24.5 -14.5t-6 -29v-14v-202h433v202v17q0 20 -5 27t-24.5 14t-20.5 8q-7 5 -7 17q0 11 7.5 17t28.5 6h140
q17 0 26.5 -4t9.5 -19q0 -12 -9 -18q-4 -2 -19.5 -6t-18.5 -5q-18 -6 -18 -18v-210q82 0 147 -10.5t124 -39.5q67 -33 107 -83q47 -58 47 -127q0 -53 -25.5 -93.5t-73.5 -64.5q-38 -20 -81.5 -27t-99.5 -7h-260q-16 0 -25.5 4t-9.5 19q0 13 5.5 16.5t19 7.5t24.5 7
q11 5 11 16v302z" />
    <glyph glyph-name="oe" unicode="&#x153;" horiz-adv-x="780" 
d="M487 251v-163v-21q2 -7 11.5 -12.5t25.5 -6.5t34 -1q30 0 51 3.5t40 14.5q41 25 41 69q0 59 -70 91q-57 26 -133 26zM412 230h-258v-158q0 -14 10.5 -21t20.5 -7q10 -4 15 -8t5 -13q0 -11 -7 -17t-19 -6h-117q-11 -1 -15 -1q-19 0 -19 24q0 13 18 20q11 0 19 5
q14 8 14 24v329q0 11 -9.5 20t-23.5 9q-12 5 -15 9t-3 11q0 17 8.5 20.5t15.5 3.5q11 -1 16 -1h111q26 0 26 -23q0 -9 -5 -13t-15 -8q-10 0 -20.5 -7t-10.5 -21v-127h258v126q0 14 -8 20.5t-18 8.5t-17.5 8t-7.5 15q0 13 8 17t21 4h116q17 0 24.5 -5t7.5 -16q0 -13 -10 -19
q-3 -2 -15 -5t-13 -4q-13 -8 -13 -25v-102q51 0 94.5 -6.5t86.5 -26.5t72 -53q33 -38 33 -84q0 -62 -64 -97q-55 -30 -132 -30h-186q-11 0 -20.5 4t-9.5 17q0 8 5.5 13.5t25.5 9.5t20 29v157z" />
    <glyph glyph-name="Scaron" unicode="&#x160;" horiz-adv-x="1040" 
d="M603 129q0 -30 3.5 -42t20.5 -21t40.5 -11.5t51.5 -2.5q45 0 77.5 6t63 25.5t48.5 51t18 67.5q0 104 -115 157q-89 41 -208 41v-271zM480 680h-115q-14 0 -21 -4.5t-17 -21.5q-31 -61 -48 -97q-53 -110 -74 -166q-31 -84 -53 -151q-36 -112 -36 -151q0 -27 32.5 -42
t32.5 -28q0 -12 -7.5 -16t-21.5 -4h-135q-16 0 -20 3t-4 11q0 9 5 17.5t13 15.5q16 13 23 33l32 112q28 100 73 213q52 133 107 231q6 11 6 19q0 10 -8 17t-26 13q-8 2 -15 5q-14 6 -14 21q0 11 7.5 16.5t29.5 5.5h406q17 0 26.5 -4t9.5 -19q0 -12 -9 -18q-4 -2 -19.5 -6
t-18.5 -5q-18 -6 -18 -18v-210q82 0 147 -10.5t124 -39.5q67 -33 107 -83q47 -58 47 -127q0 -95 -90 -147q-78 -45 -190 -45h-260q-16 0 -25.5 4t-9.5 19q0 13 5.5 16.5t19 7.5t24.5 7q11 5 11 16v556q0 32 -6 43t-27 11z" />
    <glyph glyph-name="scaron" unicode="&#x161;" horiz-adv-x="720" 
d="M423 251v-163v-21q2 -7 11.5 -12.5t25.5 -6.5t34 -1q30 0 51 3.5t40 14.5q41 25 41 69q0 59 -70 91q-57 26 -133 26zM318 426h-51q-16 0 -25 -5.5t-17 -17.5q-52 -75 -94 -190q-36 -99 -36 -139q0 -18 23 -28t23 -26q0 -9 -9.5 -14.5t-19.5 -5.5h-91q-6 0 -14.5 5
t-8.5 16q0 12 12.5 20.5t15.5 18.5q30 108 59 177q24 58 78 162q4 8 4 13q0 13 -16 16t-23 8t-7 16q0 21 32 21h289q17 0 24.5 -5t7.5 -16q0 -13 -10 -19q-3 -2 -15 -5t-13 -4q-13 -8 -13 -25v-102q51 0 94.5 -6.5t86.5 -26.5t72 -53q33 -38 33 -84q0 -62 -64 -97
q-55 -30 -132 -30h-186q-11 0 -20.5 4t-9.5 17q0 8 5.5 13.5t25.5 9.5t20 29v327q0 14 -9 20t-21 6z" />
    <glyph glyph-name="Ydieresis" unicode="&#x178;" horiz-adv-x="560" 
d="M305 -29q0 -6 -7 -13t-16 -7q-11 0 -17 6t-6 14q0 11 -13.5 20t-40.5 9h-137h-13q-12 0 -15 1q-12 4 -12 22q0 13 18 20q11 0 19 5q14 8 14 24v329q0 11 -9.5 20t-23.5 9q-12 5 -15 9t-3 11q0 17 8.5 20.5t15.5 3.5q11 -1 16 -1h111q26 0 26 -23q0 -9 -5 -13t-15 -8
q-10 0 -20.5 -7t-10.5 -21v-329q0 -28 31 -28h195q16 0 24 5.5t8 22.5v329q0 15 -11 22t-21 7q-17 7 -17 20q0 14 6 18.5t18 4.5h14h110q25 0 25 -23q0 -8 -4 -12t-13.5 -8.5t-18.5 -7.5q-13 -7 -13 -21v-338q0 -9 12 -14.5t20 -5.5q12 -5 15 -9t3 -11q0 -14 -7 -18.5
t-20 -4.5h-13h-138q-27 0 -40.5 -8.5t-13.5 -20.5z" />
    <glyph glyph-name="florin" unicode="&#x192;" horiz-adv-x="399" 
d="M179 45q12 -3 19 -7.5t7 -16.5t-9.5 -16.5t-21.5 -4.5h-117q-13 0 -21 2t-8 19q0 10 7 16t17 7q10 0 18.5 8.5t8.5 20.5v322q0 31 -19 33.5t-25.5 8t-6.5 13.5q0 23 20 23h322q14 0 18 -6t10.5 -29.5t6.5 -39.5q0 -7 -5.5 -13.5t-13.5 -6.5t-12 2q-9 9 -14 12
q-15 12 -24 17t-27.5 10t-49 6.5t-75.5 1.5q-14 0 -22 -7t-8 -29v-318q0 -13 10 -21q5 -4 15 -7zM181 548q-9 -8 -16.5 -14t-13.5 -6q-17 0 -17 15q0 7 4 15l6 12l50 90q3 8 7.5 15t8 9t18.5 3.5t26 1.5l38 3q17 0 17 -13q0 -7 -10 -16.5t-13 -12.5z" />
    <glyph glyph-name="endash" unicode="&#x2013;" horiz-adv-x="500" 
d="M40 257h-17q-14 0 -21.5 5t-7.5 20q0 22 6.5 27t27.5 5h12h419h17q14 0 22 -4.5t8 -19.5q0 -25 -8 -29t-39 -4h-419z" />
    <glyph glyph-name="emdash" unicode="&#x2014;" horiz-adv-x="1000" 
d="M51 257h-21q-18 0 -27 5t-9 20q0 21 8.5 26.5t33.5 5.5h15h898h22q17 0 26 -4.5t9 -19.5q0 -25 -9.5 -29t-47.5 -4h-898z" />
    <glyph glyph-name="quoteleft" unicode="&#x2018;" horiz-adv-x="280" 
d="M84 588q0 42 18 81.5t50 66.5q11 11 16 11q12 0 12 -12q-23 -25 -40 -51q-20 -30 -20 -59q0 -11 2.5 -17.5t19.5 -6.5q25 0 39 -12t14 -36q0 -20 -14 -33t-35 -13q-31 0 -46.5 24t-15.5 57z" />
    <glyph glyph-name="quoteright" unicode="&#x2019;" horiz-adv-x="280" 
d="M196 666q0 -42 -18 -81.5t-50 -66.5q-11 -11 -16 -11q-12 0 -12 12q23 25 41.5 53t18.5 57q0 11 -2.5 17.5t-19.5 6.5q-25 0 -39 12t-14 36q0 20 14 33t35 13q31 0 48 -26q14 -22 14 -55z" />
    <glyph glyph-name="quotesinglbase" unicode="&#x201a;" horiz-adv-x="300" 
d="M201 5q0 -42 -18 -81.5t-50 -66.5q-11 -11 -16 -11q-12 0 -12 12q23 25 41.5 53t18.5 57q0 11 -2.5 17.5t-19.5 6.5q-25 0 -39 12t-14 36q0 20 14 33t35 13q31 0 48 -26q14 -22 14 -55z" />
    <glyph glyph-name="quotedblleft" unicode="&#x201c;" horiz-adv-x="460" 
d="M84 588q0 42 18 81.5t50 66.5q11 11 16 11q12 0 12 -12q-23 -25 -40 -51q-20 -30 -20 -59q0 -11 2.5 -17.5t19.5 -6.5q25 0 39 -12t14 -36q0 -20 -14 -33t-35 -13q-31 0 -46.5 24t-15.5 57zM259 588q0 42 18 81.5t50 66.5q11 11 16 11q12 0 12 -12q-23 -25 -40 -51
q-20 -30 -20 -59q0 -11 2.5 -17.5t19.5 -6.5q25 0 39 -12t14 -36q0 -20 -14 -33t-35 -13q-31 0 -46.5 24t-15.5 57z" />
    <glyph glyph-name="quotedblright" unicode="&#x201d;" horiz-adv-x="460" 
d="M371 666q0 -42 -18 -81.5t-50 -66.5q-11 -11 -16 -11q-12 0 -12 12q23 25 41.5 53t18.5 57q0 11 -2.5 17.5t-19.5 6.5q-25 0 -39 12t-14 36q0 20 14 33t35 13q31 0 48 -26q14 -22 14 -55zM196 666q0 -42 -18 -81.5t-50 -66.5q-11 -11 -16 -11q-12 0 -12 12q23 25 41.5 53
t18.5 57q0 11 -2.5 17.5t-19.5 6.5q-25 0 -39 12t-14 36q0 20 14 33t35 13q31 0 48 -26q14 -22 14 -55z" />
    <glyph glyph-name="quotedblbase" unicode="&#x201e;" horiz-adv-x="460" 
d="M371 5q0 -42 -18 -81.5t-50 -66.5q-11 -11 -16 -11q-12 0 -12 12q23 25 41.5 53t18.5 57q0 11 -2.5 17.5t-19.5 6.5q-25 0 -39 12t-14 36q0 20 14 33t35 13q31 0 48 -26q14 -22 14 -55zM196 5q0 -42 -18 -81.5t-50 -66.5q-11 -11 -16 -11q-12 0 -12 12q23 25 41.5 53
t18.5 57q0 11 -2.5 17.5t-19.5 6.5q-25 0 -39 12t-14 36q0 20 14 33t35 13q31 0 48 -26q14 -22 14 -55z" />
    <glyph glyph-name="dagger" unicode="&#x2020;" horiz-adv-x="500" 
d="M295 329l-34 -430q-2 -21 -3 -23q-4 -7 -12 -7t-11.5 5.5t-3.5 24.5l-30 430l22 138l-120 -22q-16 -2 -23 -2q-18 0 -31 8q-22 13 -22 42q0 23 13 34t30 11q6 0 20 -2l133 -20l-20 158q-2 16 -2 23q0 16 7 27q15 23 44 23q18 0 32 -14q6 -6 8.5 -13.5t2.5 -18.5
q0 -12 -1 -18l-21 -167l126 20q14 1 28 3q14 0 25 -8q21 -15 21 -41q0 -22 -14 -35t-36 -13l-30 3l-120 22z" />
    <glyph glyph-name="daggerdbl" unicode="&#x2021;" horiz-adv-x="500" 
d="M265 -126q0 -15 -2 -22.5t-13 -7.5q-16 0 -16 30l-26 302l18 110l-126 -20q-12 -2 -24 -3q-17 0 -27.5 7.5t-16 18.5t-5.5 24q0 21 13.5 34.5t35.5 13.5h12q12 -3 18 -4l120 -21l-14 85l14 86l-120 -21q-12 -2 -17.5 -3t-15.5 -1q-13 0 -24 6q-22 15 -22 42q0 22 16 38
q12 11 33 11h12q8 -2 12 -2l126 -20l-20 126q-2 14 -2 21q0 16 11.5 29.5t34.5 13.5q18 0 31.5 -11.5t13.5 -30.5q0 -8 -2 -22l-20 -126l126 20q12 1 25 3q16 0 28 -9q21 -15 21 -41q0 -22 -14 -35t-36 -13q-7 0 -16 1.5t-14 2.5l-120 21l15 -86l-15 -85l120 21q12 2 17.5 3
t16.5 1q12 0 23 -6q23 -13 23 -42q0 -23 -17 -38q-12 -11 -33 -11h-12q-8 2 -12 2l-126 20l18 -110z" />
    <glyph glyph-name="bullet" unicode="&#x2022;" horiz-adv-x="460" 
d="M58 341q0 72 51 121t124 49q69 0 119 -49t50 -121q0 -71 -51 -121t-124 -50q-68 0 -118.5 50.5t-50.5 120.5z" />
    <glyph glyph-name="ellipsis" unicode="&#x2026;" horiz-adv-x="1000" 
d="M113 47q0 22 16 37t38 15q23 0 38 -16t15 -39q0 -22 -16 -37t-38 -15q-23 0 -38 16t-15 39zM446 47q0 22 16 37t38 15q23 0 38 -16t15 -39q0 -22 -16 -37t-38 -15q-23 0 -38 16t-15 39zM779 47q0 22 16 37t38 15q23 0 38 -16t15 -39q0 -22 -16 -37t-38 -15q-23 0 -38 16
t-15 39z" />
    <glyph glyph-name="perthousand" unicode="&#x2030;" horiz-adv-x="1200" 
d="M23 528q0 89 33 148q42 74 124 74t124 -74q34 -60 34 -148t-34 -148q-42 -74 -124 -74t-123 73q-34 60 -34 149zM277 533q0 76 -14 119q-23 71 -82 71q-62 0 -84 -73q-13 -42 -13 -123q0 -73 15 -120q24 -74 82 -74t81 76q15 49 15 124zM477 207q0 89 33 148
q42 74 124 74t124 -74q34 -60 34 -148t-34 -148q-42 -74 -124 -74t-123 73q-34 60 -34 149zM731 212q0 76 -14 119q-23 71 -82 71q-62 0 -84 -73q-13 -42 -13 -123q0 -73 15 -120q24 -74 82 -74t81 76q15 49 15 124zM226 31q-8 -12 -15 -24q-9 -10 -26 -10q-13 0 -17 2t-4 7
t7 16.5t7 12.5l414 673q5 8 10 17q8 11 26 11q22 0 22 -10q0 -4 -5 -12.5t-5 -9.5zM858 207q0 89 33 148q42 74 124 74t124 -74q34 -60 34 -148t-34 -148q-42 -74 -124 -74t-123 73q-34 60 -34 149zM1112 212q0 76 -14 119q-23 71 -82 71q-62 0 -84 -73q-13 -42 -13 -123
q0 -73 15 -120q24 -74 82 -74t81 76q15 49 15 124z" />
    <glyph glyph-name="guilsinglleft" unicode="&#x2039;" horiz-adv-x="200" 
d="M106 300q-3 -9 -3 -18q0 -10 3 -18l41 -95q4 -10 7.5 -19.5t3.5 -11.5q0 -6 -4.5 -11.5t-10.5 -5.5q-11 0 -24 17l-10 15l-66 97q-4 6 -11 17.5t-7 17.5q0 5 7 15.5t9 14.5l68 105q6 9 14 19.5t19 10.5q16 0 16 -15q0 -6 -5 -18t-6 -16z" />
    <glyph glyph-name="guilsinglright" unicode="&#x203a;" horiz-adv-x="200" 
d="M89 271q3 8 3 18q0 9 -3 18l-41 95q-4 10 -7.5 19.5t-3.5 11.5q0 6 4.5 11.5t10.5 5.5q9 0 20 -12l14 -20l66 -97q4 -6 11 -17.5t7 -17.5q0 -5 -7 -15.5t-9 -14.5l-68 -105q-7 -10 -14.5 -20t-18.5 -10q-16 0 -16 15q0 6 5 18t6 16z" />
    <glyph glyph-name="trademark" unicode="&#x2122;" horiz-adv-x="800" 
d="M603 432q-10 -25 -19 -37.5t-16 -12.5q-13 0 -22 17l-42 95l-51 135v-289q0 -5 6 -8t15 -7q11 -3 15.5 -8t4.5 -16q0 -22 -17 -22h-79q-11 0 -18.5 3t-7.5 20q0 16 14.5 20t17.5 9t3 14v16v315q0 3 -4.5 5t-6.5 3q-12 4 -17 9t-5 17q0 19 11 20.5t24 1.5h48h14
q14 0 21 -18l5 -17l75 -214q13 18 23 47q3 10 16 51l34 111q7 29 13.5 34.5t32.5 5.5h21q18 1 26 1q13 0 20 -4.5t7 -18.5q0 -20 -19 -28q-10 -5 -11.5 -9.5t-1.5 -20.5v-291v-16q0 -17 17.5 -22t17.5 -21q0 -23 -26 -23h-78q-13 0 -19 4t-6 18q0 17 17 23t17 16v274z
M230 361v-14q0 -19 9.5 -21.5t15.5 -4.5q10 -6 10 -19q0 -23 -26 -23h-80q-11 0 -18.5 3t-7.5 20q0 16 14.5 20t17.5 9t3 14v16v308q0 7 -0.5 12.5t-9.5 5.5q-7 0 -21 -2.5t-19 -3.5q-21 -6 -33 -14t-19.5 -22.5t-8.5 -15.5q-5 -6 -13 -6q-9 0 -13.5 6.5t-4.5 16.5
q0 7 2.5 19t2.5 15q9 42 10 44q5 8 34 8h247q27 0 33 -9q3 -4 10 -37q2 -12 4 -23.5t2 -13.5q0 -24 -19 -24q-9 0 -17 15q-13 24 -29.5 32.5t-38 10.5t-31.5 4q-6 0 -6 -16v-310z" />
    </font>
</defs>
</svg>
